<svg width="1440" height="786" viewBox="0 0 1440 786" fill="none" xmlns="http://www.w3.org/2000/svg">
<path d="M750.313 321.123C750.313 321.123 759.931 294.822 792.679 239.118C837.502 162.934 772.358 77.7338 643.731 33.7415C492.934 -17.7916 299.286 2.55968 159.683 35.1104C44.2755 62.053 -3.20421 131.232 -23.7265 200.065C-34.1539 234.951 -36.0123 270.58 -42.5468 305.918C-51.2222 353.02 -70.3647 400.907 -87.1059 447.085C-107.312 502.865 -127.351 565.841 -98.299 625.91C-8.80239 810.664 479.331 816.427 671.087 729.849C779.5 680.927 819.245 609.526 782.328 526.588C754.922 465.149 728.247 381.247 750.313 321.123Z" fill="url(#paint0_linear)"/>
<path d="M202.385 235.327C236.924 217.594 250.342 175.614 232.354 141.564C214.366 107.513 171.784 94.2848 137.245 112.018C102.705 129.751 89.2871 171.731 107.275 205.782C125.263 239.832 167.845 253.06 202.385 235.327Z" fill="#263238" stroke="#263238" stroke-linecap="round" stroke-linejoin="round"/>
<path d="M234.516 175.353C239.323 137.254 211.891 102.528 173.246 97.7896C134.601 93.051 99.3761 120.094 94.5694 158.193C89.7628 196.291 117.194 231.017 155.839 235.755C194.485 240.494 229.709 213.451 234.516 175.353Z" fill="white" stroke="#263238" stroke-linecap="round" stroke-linejoin="round"/>
<path d="M227.226 176.933C232.913 142.81 209.464 110.604 174.851 104.997C140.238 99.3912 107.569 122.508 101.883 156.631C96.1959 190.754 119.645 222.961 154.258 228.567C188.871 234.173 221.54 211.056 227.226 176.933Z" fill="#263238" stroke="#263238" stroke-linecap="round" stroke-linejoin="round"/>
<path d="M157.115 119.716C157.115 119.716 150.115 102.447 137.839 90.3132C125.564 78.1794 75.6584 70.4519 75.6584 70.4519C83.7176 78.1215 91.0445 86.5052 97.5467 95.4972C108.934 111.033 146.614 146.446 146.614 146.446C146.614 146.446 128.21 130.894 111.564 129.177C94.9174 127.46 52.8827 136.078 50.2535 136.078C47.6243 136.078 66.0124 142.996 79.1585 149.038C92.3046 155.081 143.098 160.265 143.098 160.265C143.098 160.265 121.21 166.308 106.305 171.492C91.4008 176.676 77.4002 214.665 77.4002 214.665C77.4002 214.665 96.6757 197.396 113.322 193.07C129.968 188.745 153.615 181.034 153.615 181.034C153.615 181.034 138.727 197.444 135.227 208.671C131.727 219.897 134.339 245.801 134.339 245.801C134.339 245.801 142.227 221.615 151.857 212.121C161.486 202.628 172.003 186.201 172.003 186.201C176.856 194.001 181.245 202.071 185.149 210.372C192.149 225.065 196.537 246.644 196.537 246.644C196.537 246.644 207.925 222.473 207.054 210.372C206.183 198.27 193.053 176.708 193.053 176.708C193.053 176.708 201.812 170.666 214.941 175.85C228.071 181.034 250.863 202.628 250.863 202.628C250.863 202.628 245.605 174.132 236.846 162.906C228.088 151.679 190.424 148.212 190.424 148.212C190.424 148.212 211.441 136.127 224.587 133.535C237.733 130.943 255.251 136.986 255.251 136.986C255.251 136.986 235.088 109.445 219.329 107.631C203.57 105.817 179.891 130.084 179.891 130.084C179.891 130.084 185.149 104.164 186.907 95.5458C188.666 86.9274 185.149 65.3165 185.149 65.3165C185.149 65.3165 175.52 70.5005 164.132 86.9112C160.79 91.636 158.447 96.9751 157.242 102.611C156.037 108.247 155.993 114.064 157.115 119.716Z" fill="#D292E3"/>
<path opacity="0.5" d="M157.115 119.716C157.115 119.716 150.115 102.447 137.839 90.3132C125.564 78.1794 75.6584 70.4519 75.6584 70.4519C83.7176 78.1215 91.0445 86.5052 97.5467 95.4972C108.934 111.033 146.614 146.446 146.614 146.446C146.614 146.446 128.21 130.894 111.564 129.177C94.9174 127.46 52.8827 136.078 50.2535 136.078C47.6243 136.078 66.0124 142.996 79.1585 149.038C92.3046 155.081 143.098 160.265 143.098 160.265C143.098 160.265 121.21 166.308 106.305 171.492C91.4008 176.676 77.4002 214.665 77.4002 214.665C77.4002 214.665 96.6757 197.396 113.322 193.07C129.968 188.745 153.615 181.034 153.615 181.034C153.615 181.034 138.727 197.444 135.227 208.671C131.727 219.897 134.339 245.801 134.339 245.801C134.339 245.801 142.227 221.615 151.857 212.121C161.486 202.628 172.003 186.201 172.003 186.201C176.856 194.001 181.245 202.071 185.149 210.372C192.149 225.065 196.537 246.644 196.537 246.644C196.537 246.644 207.925 222.473 207.054 210.372C206.183 198.27 193.053 176.708 193.053 176.708C193.053 176.708 201.812 170.666 214.941 175.85C228.071 181.034 250.863 202.628 250.863 202.628C250.863 202.628 245.605 174.132 236.846 162.906C228.088 151.679 190.424 148.212 190.424 148.212C190.424 148.212 211.441 136.127 224.587 133.535C237.733 130.943 255.251 136.986 255.251 136.986C255.251 136.986 235.088 109.445 219.329 107.631C203.57 105.817 179.891 130.084 179.891 130.084C179.891 130.084 185.149 104.164 186.907 95.5458C188.666 86.9274 185.149 65.3165 185.149 65.3165C185.149 65.3165 175.52 70.5005 164.132 86.9112C160.79 91.636 158.447 96.9751 157.242 102.611C156.037 108.247 155.993 114.064 157.115 119.716Z" fill="black"/>
<path d="M174.369 93.4399C174.977 90.9451 175.651 88.4827 176.39 86.0365" stroke="#263238" stroke-width="0.5" stroke-linecap="round" stroke-linejoin="round"/>
<path d="M115.819 93.4237C124.036 99.3367 134.273 107.453 139.548 114.484C149.178 127.444 168.453 155.081 168.453 155.081C167.905 136.525 169.398 117.965 172.906 99.7255" stroke="#263238" stroke-width="0.5" stroke-linecap="round" stroke-linejoin="round"/>
<path d="M103.692 85.1779C103.692 85.1779 106.239 86.7979 110.068 89.3737" stroke="#263238" stroke-width="0.5" stroke-linecap="round" stroke-linejoin="round"/>
<path d="M168.503 155.114C168.503 155.114 201.795 122.292 215.813 119.7C229.83 117.108 242.105 127.476 242.105 127.476" stroke="#263238" stroke-width="0.5" stroke-linecap="round" stroke-linejoin="round"/>
<path d="M109.016 182.653C100.915 187.74 100.176 190.608 100.176 190.608" stroke="#263238" stroke-width="0.5" stroke-linecap="round" stroke-linejoin="round"/>
<path d="M241.217 185.359C241.217 185.359 235.959 172.399 217.554 166.356C199.15 160.314 170.261 159.439 170.261 159.439C170.261 159.439 129.722 172.529 114.899 179.349" stroke="#263238" stroke-width="0.5" stroke-linecap="round" stroke-linejoin="round"/>
<path d="M152.563 154.514C162.423 157.317 170.261 159.374 170.261 159.374" stroke="#263238" stroke-width="0.5" stroke-linecap="round" stroke-linejoin="round"/>
<path d="M90.8584 139.173C100.373 139.74 112.632 141.019 119.451 143.903C125.005 146.252 135.966 149.654 146.286 152.683" stroke="#263238" stroke-width="0.5" stroke-linecap="round" stroke-linejoin="round"/>
<path d="M77.4004 138.719C77.4004 138.719 80.6048 138.719 85.3374 138.897" stroke="#263238" stroke-width="0.5" stroke-linecap="round" stroke-linejoin="round"/>
<path d="M168.503 164.623C168.503 164.623 143.985 200.895 142.21 209.529C141.156 214.652 140.568 219.856 140.452 225.081" stroke="#263238" stroke-width="0.5" stroke-linecap="round" stroke-linejoin="round"/>
<path d="M179.414 176.044C184.13 182.054 189.799 190.057 192.149 196.586C194.919 204.447 196.976 212.536 198.295 220.756" stroke="#263238" stroke-width="0.5" stroke-linecap="round" stroke-linejoin="round"/>
<path d="M172.003 167.215C172.003 167.215 173.958 169.353 176.67 172.642" stroke="#263238" stroke-width="0.5" stroke-linecap="round" stroke-linejoin="round"/>
<path d="M145.99 127.168C145.99 127.168 141.454 109.105 144.264 92.2248C147.074 75.3444 183.045 40.3846 183.045 40.3846C181.028 51.2493 180.033 62.2743 180.071 73.3194C180.071 92.5002 170.359 142.98 170.359 142.98C170.359 142.98 176.111 119.765 188.616 108.797C201.121 97.8301 240.362 80.5932 242.499 78.9732C244.635 77.3532 233.789 93.6504 226.69 106.124C219.592 118.599 181.386 152.003 181.386 152.003C181.386 152.003 202.748 144.324 217.915 139.966C233.083 135.609 267 158.483 267 158.483C267 158.483 241.135 155.535 225.064 161.593C208.992 167.652 185.182 174.942 185.182 174.942C185.182 174.942 206.988 179.721 216.404 186.817C225.819 193.913 239.064 216.479 239.064 216.479C239.064 216.479 218.359 201.365 204.917 199.194C191.475 197.023 173.219 189.733 173.219 189.733C173.902 198.86 175.115 207.942 176.85 216.933C179.841 232.89 189.06 252.946 189.06 252.946C189.06 252.946 165.512 239.856 159.07 229.52C152.629 219.185 150.525 194.107 150.525 194.107C150.525 194.107 139.827 194.237 132.219 205.998C124.611 217.759 118.892 248.393 118.892 248.393C118.892 248.393 106.288 222.23 106.765 208.071C107.242 193.913 135.801 169.451 135.801 169.451C135.801 169.451 111.563 171.719 99.3539 177.162C87.1445 182.605 76.4961 197.606 76.4961 197.606C76.4961 197.606 76.4961 163.586 88.2947 153.105C100.093 142.623 133.616 148.633 133.616 148.633L107.488 124.593C100.915 118.599 91.0554 99.0451 91.0554 99.0451C91.0554 99.0451 101.934 97.7004 120.897 104.488C126.411 106.413 131.474 109.413 135.786 113.31C140.097 117.207 143.567 121.92 145.99 127.168V127.168Z" fill="#D292E3"/>
<path d="M116.427 115.731C114.456 114.057 112.451 112.437 110.413 110.871" stroke="#263238" stroke-width="0.5" stroke-linecap="round" stroke-linejoin="round"/>
<path d="M163.935 82.0836C160.764 91.5931 157.247 104.083 157.148 112.864C156.984 128.918 157.691 162.452 157.691 162.452C147.162 147.059 134.968 132.838 121.325 120.04" stroke="#263238" stroke-width="0.5" stroke-linecap="round" stroke-linejoin="round"/>
<path d="M168.963 68.3785C168.963 68.3785 167.813 71.1488 166.252 75.458" stroke="#263238" stroke-width="0.5" stroke-linecap="round" stroke-linejoin="round"/>
<path d="M157.69 162.468C157.69 162.468 111.235 154.951 98.3191 160.848C85.403 166.745 81.5742 182.265 81.5742 182.265" stroke="#263238" stroke-width="0.5" stroke-linecap="round" stroke-linejoin="round"/>
<path d="M222.254 150.545C231.851 150.027 234.135 151.938 234.135 151.938" stroke="#263238" stroke-width="0.5" stroke-linecap="round" stroke-linejoin="round"/>
<path d="M116.51 228.824C116.51 228.824 113.125 215.28 124.48 199.793C135.835 184.306 158.824 166.988 158.824 166.988C158.824 166.988 199.479 154.303 215.566 151.323" stroke="#263238" stroke-width="0.5" stroke-linecap="round" stroke-linejoin="round"/>
<path d="M170.277 152.813C163.984 160.719 158.774 166.988 158.774 166.988" stroke="#263238" stroke-width="0.5" stroke-linecap="round" stroke-linejoin="round"/>
<path d="M211.326 104.893C203.915 110.823 194.729 118.906 190.884 125.176C187.762 130.279 180.893 139.351 174.304 147.742" stroke="#263238" stroke-width="0.5" stroke-linecap="round" stroke-linejoin="round"/>
<path d="M221.974 96.7932C221.974 96.7932 219.378 98.6238 215.647 101.491" stroke="#263238" stroke-width="0.5" stroke-linecap="round" stroke-linejoin="round"/>
<path d="M163.31 170.18C163.31 170.18 204.687 185.537 211.227 191.547C215.104 195.105 218.657 198.992 221.843 203.163" stroke="#263238" stroke-width="0.5" stroke-linecap="round" stroke-linejoin="round"/>
<path d="M161.207 185.715C160.927 193.329 161.059 203.098 162.998 209.74C165.406 217.72 168.53 225.472 172.331 232.906" stroke="#263238" stroke-width="0.5" stroke-linecap="round" stroke-linejoin="round"/>
<path d="M161.995 174.311C161.995 174.311 161.666 177.146 161.42 181.39" stroke="#263238" stroke-width="0.5" stroke-linecap="round" stroke-linejoin="round"/>
<path d="M1463 710.104C1463 726.339 1309.43 740.253 1120.02 740.253C930.601 740.253 777 726.339 777 710.104C777 693.868 930.536 679.95 1120.02 679.95C1309.5 679.95 1463 692.708 1463 710.104Z" fill="#D7A9ED" fill-opacity="0.91"/>
<path d="M1133.82 331H956.469C946.269 331 938 338.575 938 347.919V697.172C938 706.516 946.269 714.091 956.469 714.091H1133.82C1144.02 714.091 1152.29 706.516 1152.29 697.172V347.919C1152.29 338.575 1144.02 331 1133.82 331Z" fill="#263238"/>
<path opacity="0.2" d="M956.495 331C951.601 330.994 946.904 332.767 943.437 335.931C939.969 339.094 938.013 343.389 938 347.872V697.172C937.999 699.648 938.592 702.094 939.737 704.337C940.882 706.58 942.552 708.566 944.627 710.152L1069.7 331H956.495Z" fill="white"/>
<path d="M1052.43 703.009C1052.43 701.688 1052 700.397 1051.2 699.299C1050.4 698.2 1049.26 697.345 1047.93 696.84C1046.59 696.335 1045.13 696.203 1043.71 696.462C1042.3 696.72 1041 697.357 1039.98 698.292C1038.96 699.227 1038.27 700.418 1037.99 701.714C1037.71 703.01 1037.86 704.353 1038.41 705.572C1038.96 706.792 1039.9 707.834 1041.1 708.566C1042.3 709.299 1043.71 709.688 1045.15 709.686C1046.11 709.686 1047.06 709.513 1047.94 709.178C1048.82 708.842 1049.63 708.35 1050.3 707.73C1050.98 707.11 1051.51 706.373 1051.88 705.563C1052.24 704.753 1052.43 703.886 1052.43 703.009V703.009Z" stroke="white" stroke-linecap="round" stroke-linejoin="round"/>
<path d="M1133.82 331H956.469C946.269 331 938 338.575 938 347.919V697.172C938 706.516 946.269 714.091 956.469 714.091H1133.82C1144.02 714.091 1152.29 706.516 1152.29 697.172V347.919C1152.29 338.575 1144.02 331 1133.82 331Z" stroke="#263238" stroke-linecap="round" stroke-linejoin="round"/>
<path d="M1142.77 357.02H947.527V691.357H1142.77V357.02Z" fill="white"/>
<path opacity="0.2" d="M947.591 549.776C973.183 535.007 1011.01 518.743 1053.47 518.743C1085.29 518.642 1116.41 528.358 1142.83 546.641V356.874H947.591V549.776Z" fill="black"/>
<path d="M1049.54 421.328C1049.54 421.328 1045.93 414.14 1041.54 411.477C1037.15 408.815 1027.55 413.34 1027.55 413.34C1027.55 413.34 1033.22 407.228 1037.86 405.903C1042.51 404.578 1049.21 410.153 1049.21 410.153C1048.66 406.452 1047.81 402.805 1046.67 399.253C1044.61 392.603 1039.45 384.615 1039.45 384.615C1039.45 384.615 1048.74 390.465 1050.8 394.465C1052.33 397.724 1053.6 401.101 1054.62 404.565C1054.62 404.565 1056.17 397.115 1057.45 394.728C1058.74 392.341 1065.45 390.203 1065.45 390.203C1065.45 390.203 1061.07 396.328 1060.54 398.978C1060.02 401.627 1059.51 407.49 1059.51 407.49C1061.53 405.864 1063.8 404.604 1066.23 403.765C1069.32 402.978 1073.44 407.49 1073.44 407.49C1070.88 407.23 1068.3 407.683 1065.96 408.802C1062.43 410.651 1058.56 425.079 1058.56 425.079L1050.83 424.279L1049.54 421.328Z" fill="url(#paint1_linear)"/>
<path opacity="0.37" d="M1049.54 421.328C1049.54 421.328 1045.93 414.14 1041.54 411.477C1037.15 408.815 1027.55 413.34 1027.55 413.34C1027.55 413.34 1033.22 407.228 1037.86 405.903C1042.51 404.578 1049.21 410.153 1049.21 410.153C1048.66 406.452 1047.81 402.805 1046.67 399.253C1044.61 392.603 1039.45 384.615 1039.45 384.615C1039.45 384.615 1048.74 390.465 1050.8 394.465C1052.33 397.724 1053.6 401.101 1054.62 404.565C1054.62 404.565 1056.17 397.115 1057.45 394.728C1058.74 392.341 1065.45 390.203 1065.45 390.203C1065.45 390.203 1061.07 396.328 1060.54 398.978C1060.02 401.627 1059.51 407.49 1059.51 407.49C1061.53 405.864 1063.8 404.604 1066.23 403.765C1069.32 402.978 1073.44 407.49 1073.44 407.49C1070.88 407.23 1068.3 407.683 1065.96 408.802C1062.43 410.651 1058.56 425.079 1058.56 425.079L1050.83 424.279L1049.54 421.328Z" fill="black"/>
<path d="M1049.54 421.328C1049.54 421.328 1045.93 414.14 1041.54 411.477C1037.15 408.815 1027.55 413.34 1027.55 413.34C1027.55 413.34 1033.22 407.228 1037.86 405.903C1042.51 404.578 1049.21 410.153 1049.21 410.153C1048.66 406.452 1047.81 402.805 1046.67 399.253C1044.61 392.603 1039.45 384.615 1039.45 384.615C1039.45 384.615 1048.74 390.465 1050.8 394.465C1052.33 397.724 1053.6 401.101 1054.62 404.565C1054.62 404.565 1056.17 397.115 1057.45 394.728C1058.74 392.341 1065.45 390.203 1065.45 390.203C1065.45 390.203 1061.07 396.328 1060.54 398.978C1060.02 401.627 1059.51 407.49 1059.51 407.49C1061.53 405.864 1063.8 404.604 1066.23 403.765C1069.32 402.978 1073.44 407.49 1073.44 407.49C1070.88 407.23 1068.3 407.683 1065.96 408.802C1062.43 410.651 1058.56 425.079 1058.56 425.079L1050.83 424.279L1049.54 421.328Z" stroke="#263238" stroke-linecap="round" stroke-linejoin="round"/>
<path d="M1049.54 421.328C1049.54 421.328 1048.27 413.078 1045.41 408.828C1042.55 404.578 1032.25 400.578 1032.25 400.578C1032.25 400.578 1041.54 398.715 1046.96 402.703C1052.38 406.69 1054.95 417.34 1054.95 417.34C1054.95 417.34 1056.5 405.628 1061.4 400.289C1066.29 394.951 1078.94 401.876 1078.94 401.876C1078.94 401.876 1069.4 398.951 1066.31 403.739C1064.03 407.672 1062.21 411.868 1060.89 416.239C1060.89 416.239 1067.07 412.304 1070.43 414.114C1073.79 415.924 1075.07 421.826 1075.07 421.826C1075.07 421.826 1068.62 417.576 1065.26 418.639C1061.91 419.701 1056.5 428.476 1056.5 428.476L1051.08 426.614L1049.54 421.328Z" fill="url(#paint2_linear)" stroke="#263238" stroke-linecap="round" stroke-linejoin="round"/>
<path d="M1049.35 431.27C1047.71 428.565 1046.21 425.776 1044.85 422.915C1043.3 419.465 1041.24 417.34 1038.4 417.865C1035.94 418.578 1033.59 419.651 1031.43 421.052C1031.43 421.052 1036.59 413.878 1043.3 414.14C1050 414.402 1052.58 423.19 1052.58 423.19C1052.6 421.059 1053.06 418.956 1053.94 417.027C1054.82 415.098 1056.09 413.388 1057.67 412.015C1063.09 407.49 1074.21 410.152 1075.48 412.015C1075.48 412.015 1066.45 411.477 1063.61 414.94C1062.01 416.801 1060.78 418.972 1060 421.328C1060 421.328 1065.09 417.393 1069.03 418.927C1072.97 420.462 1074.44 434.89 1074.44 434.89C1074.44 434.89 1066.7 424.515 1064.39 425.315C1062.07 426.115 1057.82 432.109 1057.82 432.109L1049.35 431.27Z" fill="url(#paint3_linear)" stroke="#263238" stroke-linecap="round" stroke-linejoin="round"/>
<path d="M1051.34 495.789C1045.8 495.789 1040.48 493.52 1036.57 489.481C1032.65 485.442 1030.45 479.964 1030.45 474.252V459.824C1030.45 438.838 1039.8 428.699 1051.34 428.699C1062.89 428.699 1072.23 435.887 1072.23 459.824V474.252C1072.23 477.082 1071.69 479.883 1070.64 482.497C1069.59 485.111 1068.05 487.486 1066.11 489.486C1064.17 491.486 1061.87 493.072 1059.33 494.154C1056.8 495.235 1054.08 495.791 1051.34 495.789V495.789Z" fill="white" stroke="#263238" stroke-linecap="round" stroke-linejoin="round"/>
<path d="M1070.54 480.587C1070.03 478.463 1069.46 476.368 1068.85 474.305C1070 473.57 1071.11 472.901 1072.23 472.272V470.776C1070.96 471.445 1069.69 472.18 1068.42 472.98C1067.83 471.039 1067.22 469.045 1066.59 467.222C1068.41 466.088 1070.3 465.067 1072.25 464.166V460.493C1071.7 459.077 1071.13 457.66 1070.54 456.257L1072.13 455.627C1072.13 455.142 1072.13 454.683 1072.04 454.224C1071.37 454.486 1070.7 454.735 1070.02 455.024C1069.17 452.96 1068.27 450.94 1067.32 448.964C1068.6 448.334 1069.87 447.77 1071.14 447.233C1071.05 446.787 1070.96 446.354 1070.86 445.921C1069.5 446.498 1068.15 447.101 1066.79 447.783C1065.9 445.868 1065 444.032 1064.11 442.261C1065.65 441.422 1067.21 440.609 1068.83 439.822L1068.25 438.641C1066.64 439.428 1065.06 440.255 1063.52 441.107C1062.57 439.232 1061.64 437.461 1060.76 435.861C1062.1 435.205 1063.47 434.549 1064.87 433.972C1064.54 433.631 1064.2 433.303 1063.84 433.001C1062.57 433.552 1061.3 434.116 1060.14 434.706C1059.18 432.949 1058.29 431.349 1057.5 429.958L1057.98 429.775C1057.19 429.535 1056.39 429.342 1055.58 429.198L1055.67 429.329C1054.03 430.05 1052.47 430.824 1050.95 431.663C1050.41 430.653 1049.9 429.762 1049.44 428.948C1048.98 428.948 1048.54 429.08 1048.08 429.158C1048.61 430.076 1049.2 431.113 1049.83 432.28C1047.89 433.395 1046.02 434.588 1044.31 435.834C1043.5 434.142 1042.76 432.66 1042.13 431.401C1041.76 431.624 1041.4 431.86 1041.04 432.109C1041.68 433.421 1042.43 434.89 1043.27 436.608C1041.43 437.92 1039.71 439.402 1038.09 440.858C1037.38 439.468 1036.73 438.235 1036.16 437.185C1035.89 437.592 1035.63 437.986 1035.37 438.405C1035.89 439.389 1036.48 440.504 1037.11 441.75C1035.35 443.403 1033.71 445.095 1032.2 446.76C1032.2 446.669 1032.12 446.577 1032.08 446.472C1031.8 447.508 1031.57 448.597 1031.35 449.725L1031.86 449.108C1032.52 450.603 1033.3 452.322 1034.13 454.237C1032.85 455.548 1031.64 456.978 1030.54 458.29C1030.54 458.854 1030.54 459.378 1030.54 459.955V460.349C1031.8 458.792 1033.2 457.179 1034.74 455.509C1035.45 457.162 1036.19 458.919 1036.96 460.755C1035.31 462.329 1033.81 463.825 1032.46 465.202C1031.77 463.444 1031.12 461.844 1030.54 460.454V463.825L1031.49 466.225C1031.15 466.579 1030.86 466.907 1030.54 467.248V469.15L1032 467.55C1032.61 469.111 1033.27 470.776 1033.86 472.508C1032.69 473.636 1031.61 474.711 1030.6 475.721C1030.6 476.285 1030.7 476.836 1030.78 477.387C1031.85 476.298 1033.04 475.105 1034.34 473.846C1035.17 476.18 1035.99 478.633 1036.78 481.138C1035.51 482.542 1034.37 483.866 1033.35 485.073C1033.58 485.493 1033.81 485.9 1034.06 486.293C1035 485.178 1036.07 483.958 1037.25 482.647C1037.9 484.824 1038.53 487.014 1039.09 489.205L1037.81 490.595C1038.14 490.884 1038.48 491.172 1038.82 491.435L1039.52 490.713L1039.86 492.235C1040.35 492.563 1040.85 492.877 1041.38 493.179C1041.12 491.999 1040.85 490.818 1040.56 489.625C1042.11 488.011 1043.89 486.227 1045.83 484.378C1046.43 486.28 1046.99 488.156 1047.48 489.979C1045.92 491.448 1044.45 492.838 1043.16 494.11C1043.59 494.307 1044.05 494.478 1044.43 494.635C1045.47 493.625 1046.6 492.55 1047.81 491.422C1048.21 492.904 1048.54 494.333 1048.83 495.711C1049.27 495.711 1049.71 495.802 1050.1 495.829C1049.75 494.097 1049.34 492.3 1048.83 490.438C1050.71 488.706 1052.73 486.883 1054.86 485.073C1055.52 487.395 1056.13 489.729 1056.65 492.038C1055.1 493.35 1053.65 494.661 1052.33 495.855C1053.07 495.816 1053.81 495.738 1054.54 495.619L1056.97 493.494C1057.07 494.005 1057.16 494.504 1057.26 495.015L1058.53 494.596C1058.39 493.914 1058.27 493.284 1058.12 492.55C1059.74 491.146 1061.43 489.69 1063.2 488.26C1063.48 489.362 1063.75 490.451 1064 491.553C1064.37 491.264 1064.74 490.962 1065.1 490.648C1064.83 489.559 1064.56 488.47 1064.28 487.369C1066.17 485.808 1068.1 484.299 1069.88 482.909C1069.96 483.263 1070.03 483.644 1070.12 483.998C1070.74 482.738 1071.23 481.421 1071.6 480.063L1070.54 480.587ZM1067.35 473.701C1065.38 475.013 1063.39 476.416 1061.43 477.899C1060.82 475.984 1060.16 474.069 1059.53 472.18C1061.51 470.658 1063.52 469.216 1065.52 467.93C1066.15 469.819 1066.76 471.747 1067.35 473.701ZM1053.36 455.942C1052.58 454.092 1051.82 452.282 1051.07 450.538C1052.95 449.226 1054.88 447.81 1056.98 446.485C1057.78 448.234 1058.59 450.039 1059.4 451.902C1057.34 453.187 1055.32 454.538 1053.35 455.942H1053.36ZM1059.91 453.109C1060.71 455.006 1061.5 456.974 1062.3 459.011C1060.23 460.323 1058.19 461.634 1056.22 463.116C1055.44 461.083 1054.64 459.103 1053.85 457.175C1055.83 455.758 1057.85 454.394 1059.9 453.109H1059.91ZM1052.28 456.716C1050.6 457.949 1048.94 459.208 1047.35 460.48C1046.58 458.67 1045.8 456.912 1045.04 455.234C1046.6 453.922 1048.27 452.61 1050 451.299C1050.75 453.069 1051.51 454.866 1052.28 456.716ZM1050.52 449.331C1049.64 447.298 1048.78 445.396 1047.98 443.56C1049.78 442.248 1051.7 440.937 1053.73 439.625C1054.6 441.37 1055.51 443.245 1056.44 445.226C1054.38 446.599 1052.4 447.967 1050.52 449.331V449.331ZM1049.48 450.105C1047.74 451.417 1046.06 452.728 1044.48 454.04C1043.59 452.086 1042.71 450.21 1041.94 448.465C1043.51 447.084 1045.19 445.72 1046.96 444.373C1047.74 446.157 1048.59 448.085 1049.48 450.105V450.105ZM1046.31 461.306C1044.3 462.946 1042.35 464.585 1040.52 466.199C1039.82 464.428 1039.11 462.684 1038.41 461.018C1040.13 459.418 1042 457.752 1044.02 456.06C1044.78 457.752 1045.53 459.509 1046.31 461.306ZM1046.83 462.539C1047.68 464.533 1048.5 466.57 1049.3 468.652C1047.26 470.409 1045.33 472.219 1043.51 473.99C1042.71 471.786 1041.87 469.609 1041.03 467.432C1042.86 465.858 1044.81 464.192 1046.81 462.539H1046.83ZM1047.86 461.713C1049.47 460.401 1051.11 459.182 1052.79 457.949C1053.57 459.877 1054.36 461.884 1055.14 463.903C1053.48 465.215 1051.88 466.448 1050.33 467.838C1049.52 465.74 1048.7 463.68 1047.86 461.713ZM1055.65 465.241C1056.45 467.349 1057.24 469.495 1058 471.681C1056.37 472.993 1054.77 474.305 1053.21 475.616C1052.45 473.422 1051.67 471.266 1050.85 469.15C1052.4 467.812 1054.01 466.5 1055.71 465.241H1055.65ZM1056.72 464.441C1058.69 462.972 1060.72 461.569 1062.8 460.296C1063.58 462.356 1064.35 464.481 1065.09 466.645C1063.08 467.956 1061.07 469.347 1059.07 470.868C1058.31 468.691 1057.52 466.544 1056.72 464.428V464.441ZM1071.83 462.92C1069.9 463.811 1068.02 464.822 1066.2 465.95C1065.46 463.798 1064.69 461.691 1063.9 459.627C1065.7 458.565 1067.53 457.594 1069.37 456.729C1070.22 458.775 1071.05 460.847 1071.83 462.92V462.92ZM1068.85 455.509C1066.99 456.36 1065.17 457.31 1063.41 458.355C1062.6 456.318 1061.8 454.342 1060.99 452.427C1062.69 451.377 1064.41 450.402 1066.17 449.502C1067.07 451.456 1067.97 453.463 1068.85 455.509ZM1065.62 448.321C1063.92 449.196 1062.23 450.162 1060.53 451.22C1059.68 449.331 1058.87 447.517 1058.1 445.777C1059.68 444.78 1061.32 443.796 1063 442.852C1063.85 444.609 1064.72 446.432 1065.62 448.321V448.321ZM1062.36 441.684C1060.7 442.629 1059.07 443.599 1057.5 444.596C1056.58 442.616 1055.66 440.753 1054.8 439.009C1056.32 438.09 1057.92 437.212 1059.58 436.385C1060.47 438.012 1061.4 439.809 1062.36 441.684V441.684ZM1056.28 430.404C1057.08 431.808 1057.99 433.421 1058.95 435.218C1057.33 436.057 1055.74 436.936 1054.21 437.841C1053.26 435.979 1052.35 434.274 1051.53 432.739C1053.05 431.9 1054.64 431.113 1056.28 430.404V430.404ZM1050.41 433.355C1051.25 434.903 1052.16 436.635 1053.12 438.523C1051.12 439.756 1049.21 441.042 1047.39 442.353C1046.5 440.412 1045.64 438.589 1044.85 436.949C1046.6 435.69 1048.46 434.483 1050.41 433.355ZM1043.79 437.723C1044.59 439.363 1045.45 441.186 1046.34 443.14C1044.56 444.478 1042.86 445.842 1041.25 447.233C1040.32 445.318 1039.45 443.569 1038.63 441.986C1040.27 440.517 1041.97 439.087 1043.79 437.723V437.723ZM1032.81 447.98C1034.32 446.231 1035.96 444.531 1037.75 442.878C1038.56 444.452 1039.43 446.209 1040.29 448.124C1038.41 449.803 1036.67 451.495 1035.05 453.161C1034.2 451.194 1033.43 449.462 1032.81 447.98ZM1035.68 454.42C1037.29 452.728 1039.05 451.01 1040.94 449.305C1041.79 451.054 1042.64 452.899 1043.49 454.84C1041.49 456.519 1039.67 458.158 1037.92 459.746C1037.1 457.87 1036.34 456.086 1035.61 454.42H1035.68ZM1032.95 466.474C1034.29 465.084 1035.79 463.562 1037.47 461.975C1038.16 463.641 1038.86 465.359 1039.56 467.13C1037.88 468.625 1036.3 470.094 1034.84 471.485C1034.09 469.675 1033.5 468.048 1032.89 466.474H1032.95ZM1035.32 472.809C1036.78 471.406 1038.36 469.924 1040.05 468.402C1040.9 470.562 1041.75 472.748 1042.6 474.96C1040.87 476.679 1039.26 478.371 1037.79 479.958C1036.9 477.544 1036.08 475.118 1035.26 472.809H1035.32ZM1040.03 488.037C1039.45 485.847 1038.83 483.644 1038.16 481.479C1039.63 479.866 1041.26 478.161 1043 476.403C1043.78 478.567 1044.53 480.719 1045.23 482.857C1043.33 484.693 1041.59 486.45 1040.03 488.037ZM1044.03 475.393C1045.84 473.61 1047.85 471.786 1049.82 470.003C1050.67 472.127 1051.45 474.287 1052.17 476.482C1050.11 478.279 1048.13 480.089 1046.27 481.847C1045.53 479.722 1044.81 477.544 1044.03 475.406V475.393ZM1048.42 488.877C1047.9 487.041 1047.33 485.165 1046.73 483.263C1048.59 481.479 1050.55 479.656 1052.63 477.846C1053.27 479.735 1053.9 481.637 1054.43 483.539C1052.31 485.414 1050.29 487.159 1048.42 488.89V488.877ZM1053.68 476.941C1055.24 475.629 1056.84 474.318 1058.47 473.006C1059.12 474.895 1059.74 476.81 1060.35 478.725C1058.7 480.037 1057.07 481.348 1055.49 482.66C1054.92 480.745 1054.31 478.856 1053.68 476.954V476.941ZM1057.71 490.989C1057.17 488.68 1056.56 486.359 1055.9 484.05C1057.49 482.738 1059.12 481.361 1060.77 480.115C1061.46 482.345 1062.11 484.575 1062.72 486.805C1061.02 488.182 1059.32 489.611 1057.71 491.002V490.989ZM1063.79 485.873C1063.19 483.657 1062.52 481.453 1061.85 479.236C1063.81 477.741 1065.79 476.311 1067.74 475.013C1068.34 477.112 1068.91 479.25 1069.44 481.401C1067.6 482.791 1065.7 484.326 1063.79 485.886V485.873Z" fill="#263238"/>
<path d="M1072.17 467.864C1072.17 472.202 1070.5 476.362 1067.53 479.43C1064.55 482.497 1060.52 484.22 1056.31 484.22C1052.1 484.22 1048.07 482.497 1045.09 479.43C1042.12 476.362 1040.45 472.202 1040.45 467.864C1040.45 458.827 1047.04 453.03 1056.36 453.436C1066.04 453.935 1072.17 458.827 1072.17 467.864Z" fill="white" stroke="#263238" stroke-linecap="round" stroke-linejoin="round"/>
<path d="M1030.97 437.356L1027.15 428.41C1025.83 425.261 1025.05 421.895 1024.86 418.468L1024.43 403.909H1015.53L1015.13 418.521C1014.94 421.948 1014.17 425.314 1012.84 428.463L1009.03 437.408C1007.48 441.088 1006.68 445.057 1006.69 449.069V481.859C1006.69 482.751 1007.03 483.607 1007.64 484.238C1008.25 484.87 1009.08 485.227 1009.94 485.23H1030C1030.87 485.23 1031.7 484.875 1032.31 484.243C1032.93 483.611 1033.27 482.753 1033.27 481.859V449.069C1033.29 445.043 1032.51 441.055 1030.97 437.356Z" fill="white" stroke="#263238" stroke-linecap="round" stroke-linejoin="round"/>
<path d="M1015.57 403.909L1015.55 408.552H1024.52L1024.48 403.909H1022.99H1017.05H1015.57Z" fill="url(#paint4_linear)" stroke="#263238" stroke-linecap="round" stroke-linejoin="round"/>
<path d="M1019.14 439.612C1019.14 439.612 1011.25 432.175 1008.77 431.48C1006.29 430.785 999.539 430.548 990.75 430.785C981.96 431.021 982.647 432.175 986.247 433.565C989.846 434.956 994.807 433.342 994.807 433.342C994.807 433.342 989.401 433.106 981.973 439.14C974.544 445.173 972.725 448.675 974.086 448.898C975.447 449.121 981.718 444.019 983.321 442.865C984.219 442.186 985.204 441.639 986.247 441.238C986.247 441.238 980.612 447.98 978.131 453.777C975.651 459.575 970.703 469.11 973.628 470.973C976.554 472.836 980.841 459.588 980.841 459.588C980.841 459.588 978.818 470.973 979.034 476.547C979.251 482.122 982.418 491.421 983.55 486.306C984.682 481.191 986.705 458.198 986.705 457.45C986.705 456.702 988.727 462.329 989.846 458.84C990.966 455.351 990.304 441.881 990.979 441.422C991.653 440.963 993.23 444.203 995.036 442.576C996.842 440.95 1003.83 434.916 1003.83 434.916C1003.83 434.916 999.768 439.795 1002.69 439.795C1005.62 439.795 1008.77 435.611 1009.68 435.139C1010.58 434.667 1019.14 439.612 1019.14 439.612Z" fill="url(#paint5_linear)" stroke="#263238" stroke-linecap="round" stroke-linejoin="round"/>
<path d="M1037.9 471.209C1037.9 471.209 1034.53 458.893 1032.27 450.997C1030 443.101 1026.19 438.681 1023.71 437.749C1021.23 436.818 1012.78 438.707 1011.99 444.491C1011.2 450.276 1014.03 456.099 1016.05 460.06C1018.4 464.351 1020.52 468.769 1022.41 473.295C1023.99 477.479 1025.12 479.341 1026.01 483.525C1026.9 487.71 1031.2 495.133 1033.01 497.691C1034.81 500.249 1035.7 503.266 1037.51 504.249C1039.31 505.233 1040.2 502.387 1040.66 498.675C1040.95 494.186 1040.87 489.68 1040.43 485.204C1040.09 483.525 1037.9 471.209 1037.9 471.209Z" fill="white" stroke="#263238" stroke-linecap="round" stroke-linejoin="round"/>
<path d="M1027.96 456.558C1029.18 458.296 1030.06 460.266 1030.55 462.355C1031.04 464.444 1031.12 466.612 1030.79 468.734C1030.47 470.856 1029.74 472.892 1028.65 474.724C1027.56 476.557 1026.14 478.15 1024.45 479.413C1022.77 480.677 1020.86 481.586 1018.83 482.088C1016.8 482.59 1014.7 482.676 1012.64 482.34C1010.59 482.004 1008.61 481.254 1006.83 480.132C1005.06 479.01 1003.51 477.538 1002.29 475.8C997.199 468.481 999.17 459.798 1006.98 454.512C1015.07 449.029 1022.82 449.265 1027.96 456.558Z" fill="white" stroke="#263238" stroke-linecap="round" stroke-linejoin="round"/>
<path d="M1009.79 454.984L1007.41 448.439L1009.46 447.77L1011.24 455.05L1009.79 454.984Z" fill="white" stroke="#263238" stroke-linecap="round" stroke-linejoin="round"/>
<path d="M1004.33 462.657C1004.45 462.825 1004.52 463.026 1004.53 463.234C1004.54 463.442 1004.49 463.648 1004.38 463.825C1004.27 464.002 1004.12 464.143 1003.94 464.23C1003.75 464.317 1003.55 464.345 1003.35 464.312C1003.15 464.279 1002.97 464.185 1002.82 464.043C1002.67 463.901 1002.57 463.717 1002.52 463.514C1002.48 463.312 1002.49 463.099 1002.56 462.905C1002.63 462.71 1002.76 462.542 1002.92 462.421C1003.03 462.34 1003.15 462.282 1003.28 462.25C1003.41 462.218 1003.55 462.213 1003.68 462.235C1003.81 462.257 1003.93 462.306 1004.05 462.378C1004.16 462.451 1004.26 462.545 1004.33 462.657V462.657Z" stroke="#263238" stroke-width="0.5" stroke-linecap="round" stroke-linejoin="round"/>
<path d="M1008.84 461.726C1008.92 461.837 1008.97 461.963 1009 462.096C1009.03 462.229 1009.04 462.368 1009.02 462.503C1009 462.639 1008.95 462.768 1008.88 462.885C1008.81 463.001 1008.72 463.102 1008.61 463.182C1008.45 463.305 1008.25 463.375 1008.05 463.383C1007.85 463.391 1007.65 463.338 1007.48 463.229C1007.3 463.12 1007.17 462.961 1007.08 462.772C1007 462.583 1006.97 462.372 1007 462.166C1007.04 461.961 1007.13 461.77 1007.27 461.618C1007.4 461.466 1007.58 461.36 1007.78 461.313C1007.97 461.265 1008.18 461.279 1008.37 461.353C1008.56 461.427 1008.72 461.556 1008.84 461.726V461.726Z" stroke="#263238" stroke-width="0.5" stroke-linecap="round" stroke-linejoin="round"/>
<path d="M1010.71 464.992C1010.75 465.047 1010.77 465.11 1010.79 465.176C1010.8 465.242 1010.81 465.31 1010.79 465.377C1010.78 465.444 1010.76 465.508 1010.73 465.566C1010.69 465.624 1010.65 465.674 1010.59 465.713C1010.54 465.753 1010.48 465.781 1010.41 465.797C1010.35 465.812 1010.28 465.815 1010.22 465.804C1010.15 465.793 1010.09 465.769 1010.04 465.733C1009.98 465.697 1009.93 465.651 1009.89 465.595C1009.82 465.484 1009.78 465.346 1009.81 465.21C1009.83 465.075 1009.9 464.954 1010.01 464.874C1010.12 464.794 1010.25 464.762 1010.38 464.784C1010.51 464.806 1010.63 464.881 1010.71 464.992V464.992Z" stroke="#263238" stroke-width="0.5" stroke-linecap="round" stroke-linejoin="round"/>
<path d="M1006.62 466.107C1006.74 466.275 1006.81 466.476 1006.82 466.684C1006.83 466.891 1006.78 467.097 1006.67 467.275C1006.56 467.452 1006.41 467.593 1006.23 467.68C1006.04 467.766 1005.84 467.795 1005.64 467.761C1005.44 467.728 1005.26 467.635 1005.11 467.492C1004.96 467.35 1004.86 467.166 1004.81 466.964C1004.77 466.761 1004.78 466.549 1004.85 466.354C1004.92 466.16 1005.05 465.991 1005.21 465.871C1005.32 465.79 1005.44 465.732 1005.57 465.7C1005.7 465.668 1005.84 465.663 1005.97 465.685C1006.1 465.706 1006.22 465.755 1006.34 465.828C1006.45 465.9 1006.55 465.995 1006.62 466.107V466.107Z" stroke="#263238" stroke-width="0.5" stroke-linecap="round" stroke-linejoin="round"/>
<path d="M1053.88 470.724C1053.88 475.062 1052.21 479.222 1049.23 482.289C1046.26 485.357 1042.22 487.08 1038.02 487.08C1033.81 487.08 1029.78 485.357 1026.8 482.289C1023.83 479.222 1022.16 475.062 1022.16 470.724C1022.16 461.687 1028.74 455.889 1038.07 456.296C1047.76 456.807 1053.88 461.687 1053.88 470.724Z" fill="white" stroke="#263238" stroke-linecap="round" stroke-linejoin="round"/>
<path d="M1040.09 458.434L1041.9 451.692L1043.92 452.387L1041.22 459.352L1040.09 458.434Z" fill="white" stroke="#263238" stroke-linecap="round" stroke-linejoin="round"/>
<path d="M1031.31 461.333C1031.31 461.54 1031.25 461.743 1031.14 461.916C1031.03 462.088 1030.87 462.223 1030.69 462.302C1030.5 462.381 1030.29 462.402 1030.1 462.362C1029.9 462.321 1029.72 462.221 1029.58 462.075C1029.43 461.928 1029.34 461.741 1029.3 461.537C1029.26 461.334 1029.28 461.123 1029.36 460.931C1029.43 460.739 1029.56 460.575 1029.73 460.46C1029.9 460.345 1030.09 460.283 1030.3 460.283C1030.57 460.283 1030.82 460.394 1031.02 460.591C1031.21 460.787 1031.31 461.054 1031.31 461.333V461.333Z" stroke="#263238" stroke-width="0.5" stroke-linecap="round" stroke-linejoin="round"/>
<path d="M1035.47 463.313C1035.45 463.57 1035.33 463.806 1035.14 463.978C1034.95 464.15 1034.71 464.245 1034.46 464.245C1034.21 464.245 1033.97 464.15 1033.78 463.978C1033.6 463.806 1033.48 463.57 1033.45 463.313C1033.43 463.166 1033.45 463.018 1033.49 462.877C1033.54 462.736 1033.61 462.607 1033.7 462.497C1033.8 462.387 1033.92 462.299 1034.05 462.238C1034.18 462.178 1034.32 462.147 1034.46 462.147C1034.61 462.147 1034.75 462.178 1034.88 462.238C1035.01 462.299 1035.13 462.387 1035.22 462.497C1035.32 462.607 1035.39 462.736 1035.43 462.877C1035.47 463.018 1035.49 463.166 1035.47 463.313V463.313Z" stroke="#263238" stroke-width="0.5" stroke-linecap="round" stroke-linejoin="round"/>
<path d="M1035.14 467.051C1035.14 467.191 1035.09 467.324 1034.99 467.422C1034.9 467.521 1034.77 467.576 1034.63 467.576C1034.5 467.576 1034.37 467.521 1034.27 467.422C1034.18 467.324 1034.12 467.191 1034.12 467.051C1034.12 466.912 1034.18 466.779 1034.27 466.68C1034.37 466.582 1034.5 466.527 1034.63 466.527C1034.77 466.527 1034.9 466.582 1034.99 466.68C1035.09 466.779 1035.14 466.912 1035.14 467.051V467.051Z" stroke="#263238" stroke-width="0.5" stroke-linecap="round" stroke-linejoin="round"/>
<path d="M1031.2 465.517C1031.2 465.724 1031.14 465.927 1031.03 466.1C1030.92 466.272 1030.76 466.407 1030.57 466.486C1030.39 466.566 1030.18 466.586 1029.98 466.546C1029.79 466.505 1029.6 466.406 1029.46 466.259C1029.32 466.112 1029.22 465.925 1029.18 465.722C1029.14 465.518 1029.16 465.307 1029.24 465.115C1029.32 464.924 1029.45 464.76 1029.62 464.644C1029.78 464.529 1029.98 464.468 1030.18 464.468C1030.45 464.468 1030.71 464.578 1030.9 464.775C1031.09 464.972 1031.2 465.239 1031.2 465.517V465.517Z" stroke="#263238" stroke-width="0.5" stroke-linecap="round" stroke-linejoin="round"/>
<path d="M1095.7 474.134C1095.7 478.472 1094.03 482.632 1091.06 485.699C1088.08 488.767 1084.05 490.49 1079.84 490.49C1075.63 490.49 1071.6 488.767 1068.62 485.699C1065.65 482.632 1063.98 478.472 1063.98 474.134C1063.98 465.097 1070.55 459.299 1079.88 459.706C1089.57 460.218 1095.7 465.097 1095.7 474.134Z" fill="white" stroke="#263238" stroke-linecap="round" stroke-linejoin="round"/>
<path d="M1081.91 461.844L1083.71 455.102L1085.74 455.797L1083.03 462.762L1081.91 461.844Z" stroke="#263238" stroke-linecap="round" stroke-linejoin="round"/>
<path d="M1073.13 464.743C1073.13 465.021 1073.02 465.288 1072.83 465.485C1072.64 465.681 1072.38 465.792 1072.11 465.792C1071.84 465.792 1071.58 465.681 1071.39 465.485C1071.2 465.288 1071.09 465.021 1071.09 464.743C1071.09 464.464 1071.2 464.197 1071.39 464.001C1071.58 463.804 1071.84 463.693 1072.11 463.693C1072.38 463.693 1072.64 463.804 1072.83 464.001C1073.02 464.197 1073.13 464.464 1073.13 464.743V464.743Z" stroke="#263238" stroke-width="0.5" stroke-linecap="round" stroke-linejoin="round"/>
<path d="M1077.34 466.71C1077.34 466.989 1077.23 467.255 1077.04 467.452C1076.85 467.649 1076.59 467.76 1076.32 467.76C1076.05 467.76 1075.79 467.649 1075.6 467.452C1075.41 467.255 1075.3 466.989 1075.3 466.71C1075.3 466.432 1075.41 466.165 1075.6 465.968C1075.79 465.772 1076.05 465.661 1076.32 465.661C1076.59 465.661 1076.85 465.772 1077.04 465.968C1077.23 466.165 1077.34 466.432 1077.34 466.71Z" stroke="#263238" stroke-width="0.5" stroke-linecap="round" stroke-linejoin="round"/>
<path d="M1076.95 470.488C1076.95 470.591 1076.92 470.693 1076.87 470.779C1076.81 470.865 1076.73 470.933 1076.64 470.972C1076.55 471.012 1076.44 471.022 1076.35 471.002C1076.25 470.982 1076.16 470.932 1076.08 470.859C1076.01 470.785 1075.96 470.692 1075.95 470.59C1075.93 470.488 1075.94 470.383 1075.97 470.287C1076.01 470.191 1076.08 470.109 1076.16 470.051C1076.25 469.994 1076.34 469.963 1076.44 469.963C1076.58 469.963 1076.71 470.018 1076.8 470.117C1076.9 470.215 1076.95 470.349 1076.95 470.488V470.488Z" stroke="#263238" stroke-width="0.5" stroke-linecap="round" stroke-linejoin="round"/>
<path d="M1073.01 468.927C1073.01 469.064 1072.98 469.2 1072.93 469.327C1072.88 469.453 1072.81 469.568 1072.71 469.664C1072.62 469.761 1072.5 469.837 1072.38 469.888C1072.26 469.939 1072.13 469.965 1071.99 469.963C1071.73 469.963 1071.47 469.854 1071.28 469.66C1071.09 469.465 1070.99 469.202 1070.99 468.927C1070.99 468.79 1071.01 468.654 1071.06 468.526C1071.11 468.399 1071.18 468.283 1071.28 468.186C1071.37 468.088 1071.48 468.011 1071.6 467.958C1071.73 467.905 1071.86 467.878 1071.99 467.878C1072.26 467.878 1072.52 467.988 1072.71 468.185C1072.9 468.382 1073.01 468.649 1073.01 468.927V468.927Z" stroke="#263238" stroke-width="0.5" stroke-linecap="round" stroke-linejoin="round"/>
<path d="M1050.01 479.499C1050.01 479.499 1076.72 416.068 1092.95 406.493C1109.19 396.918 1100.7 427.637 1094.12 448.78C1087.55 469.924 1072.5 502.636 1058.92 515.805C1045.33 528.974 1034.93 520.986 1050.01 479.499Z" fill="white" stroke="#263238" stroke-linecap="round" stroke-linejoin="round"/>
<path d="M1081.35 423.649L1096.41 430.037C1096.41 430.037 1089.48 418.862 1081.35 423.649Z" stroke="#263238" stroke-linecap="round" stroke-linejoin="round"/>
<path d="M1074.38 436.884L1089.48 443.258C1089.48 443.258 1082.51 432.031 1074.38 436.884Z" stroke="#263238" stroke-linecap="round" stroke-linejoin="round"/>
<path d="M1066.65 451.968L1081.74 458.355C1081.74 458.355 1074.79 447.18 1066.65 451.968Z" stroke="#263238" stroke-linecap="round" stroke-linejoin="round"/>
<path d="M1059.3 470.33L1074.38 476.705C1074.38 476.705 1067.43 465.543 1059.3 470.33Z" stroke="#263238" stroke-linecap="round" stroke-linejoin="round"/>
<path d="M1051.17 486.28L1066.27 492.667C1066.27 492.667 1059.3 481.479 1051.17 486.28Z" stroke="#263238" stroke-linecap="round" stroke-linejoin="round"/>
<path d="M1045.75 501.049L1060.8 507.423C1060.8 507.423 1053.88 496.261 1045.75 501.049Z" stroke="#263238" stroke-linecap="round" stroke-linejoin="round"/>
<path d="M997.39 465.543L1070.14 481.899L1096.42 471.117C1096.42 471.117 1101.5 517.025 1104.92 534.155C1108.35 551.284 1107.25 562.486 1103.39 568.073C1099.52 573.661 1080.17 581.19 1072.86 583.223C1065.54 585.256 1045.38 584.023 1035.72 579.642C1026.05 575.261 1004.37 566.867 997.403 562.079C994.92 560.495 992.893 558.255 991.533 555.591C990.174 552.928 989.53 549.937 989.669 546.93C990.063 543.729 997.021 485.48 997.403 479.905C997.784 474.331 997.39 465.543 997.39 465.543Z" fill="url(#paint6_linear)" stroke="#263238" stroke-linecap="round" stroke-linejoin="round"/>
<path d="M1072.25 505.089C1072.54 514.191 1072.83 525.314 1072.83 533.328C1072.83 549.291 1078.24 568.834 1074.77 576.022" stroke="#263238" stroke-linecap="round" stroke-linejoin="round"/>
<path d="M1071.67 489.073C1071.67 489.073 1071.83 492.602 1072 497.875" stroke="#263238" stroke-linecap="round" stroke-linejoin="round"/>
<path d="M1091.76 603.409H998.534C996.293 603.409 994.477 605.282 994.477 607.593V637.406C994.477 639.717 996.293 641.59 998.534 641.59H1091.76C1094 641.59 1095.82 639.717 1095.82 637.406V607.593C1095.82 605.282 1094 603.409 1091.76 603.409Z" fill="#263238"/>
<path d="M1005.98 624.946C1005.25 623.917 1004.86 622.677 1004.86 621.404C1004.86 620.131 1005.25 618.891 1005.98 617.863C1006.87 617.06 1008.01 616.618 1009.2 616.618C1010.39 616.618 1011.53 617.06 1012.42 617.863C1013.14 618.894 1013.53 620.133 1013.53 621.404C1013.53 622.675 1013.14 623.914 1012.42 624.946C1011.53 625.748 1010.39 626.191 1009.2 626.191C1008.01 626.191 1006.87 625.748 1005.98 624.946V624.946ZM1010.92 623.87C1011.28 623.104 1011.47 622.263 1011.47 621.411C1011.47 620.559 1011.28 619.718 1010.92 618.952C1010.71 618.696 1010.45 618.491 1010.15 618.351C1009.85 618.211 1009.53 618.138 1009.2 618.138C1008.87 618.138 1008.55 618.211 1008.25 618.351C1007.95 618.491 1007.69 618.696 1007.48 618.952C1007.12 619.718 1006.93 620.559 1006.93 621.411C1006.93 622.263 1007.12 623.104 1007.48 623.87C1007.69 624.126 1007.95 624.33 1008.25 624.471C1008.55 624.611 1008.87 624.684 1009.2 624.684C1009.53 624.684 1009.85 624.611 1010.15 624.471C1010.45 624.33 1010.71 624.126 1010.92 623.87V623.87Z" fill="url(#paint7_linear)"/>
<path d="M1015.44 625.759C1015.34 625.656 1015.27 625.532 1015.22 625.396C1015.17 625.261 1015.15 625.116 1015.16 624.972V617.889C1015.15 617.745 1015.18 617.602 1015.23 617.47C1015.29 617.337 1015.37 617.221 1015.48 617.128C1015.71 616.945 1015.99 616.848 1016.28 616.853H1018.89C1019.22 616.832 1019.56 616.832 1019.89 616.853C1020.2 616.895 1020.5 616.969 1020.79 617.076C1021.06 617.163 1021.31 617.301 1021.53 617.482C1021.74 617.664 1021.91 617.893 1022.03 618.151C1022.15 618.455 1022.21 618.781 1022.21 619.109C1022.22 619.618 1022.05 620.115 1021.72 620.499C1021.32 620.91 1020.79 621.169 1020.22 621.234V621.234C1020.71 621.288 1021.16 621.516 1021.49 621.876C1021.79 622.299 1021.97 622.799 1022 623.319L1022.16 624.631C1022.16 624.723 1022.16 624.815 1022.16 624.906C1022.17 625.191 1022.09 625.472 1021.91 625.693C1021.82 625.785 1021.72 625.857 1021.6 625.902C1021.48 625.947 1021.35 625.965 1021.23 625.956C1021.1 625.962 1020.97 625.941 1020.84 625.893C1020.72 625.846 1020.61 625.773 1020.51 625.68C1020.31 625.444 1020.2 625.142 1020.2 624.828L1020.07 623.516C1020.06 623.105 1019.92 622.708 1019.68 622.388C1019.36 622.133 1018.96 622.016 1018.56 622.06H1017.11V624.841C1017.11 624.986 1017.09 625.131 1017.04 625.267C1016.99 625.402 1016.91 625.525 1016.81 625.628C1016.62 625.804 1016.37 625.901 1016.11 625.901C1015.86 625.901 1015.61 625.804 1015.41 625.628L1015.44 625.759ZM1018.25 620.801H1018.82C1019 620.787 1019.18 620.757 1019.36 620.709C1019.53 620.671 1019.69 620.6 1019.83 620.499C1019.96 620.409 1020.07 620.281 1020.13 620.132C1020.22 619.947 1020.26 619.746 1020.26 619.542C1020.28 619.39 1020.28 619.235 1020.26 619.083C1020.23 618.965 1020.18 618.854 1020.11 618.755C1020.05 618.658 1019.97 618.581 1019.87 618.532L1019.57 618.401C1019.46 618.387 1019.34 618.387 1019.22 618.401H1018.86H1017.17V620.919L1018.25 620.801Z" fill="url(#paint8_linear)"/>
<path d="M1024.18 625.628C1024 625.356 1023.91 625.035 1023.92 624.71V618.151C1023.92 617.286 1024.33 616.84 1025.2 616.84H1026.89C1028.21 616.742 1029.53 617.164 1030.56 618.02C1031 618.469 1031.34 619.009 1031.56 619.603C1031.78 620.198 1031.87 620.835 1031.84 621.47C1031.87 622.093 1031.77 622.716 1031.55 623.297C1031.33 623.879 1031 624.405 1030.56 624.841C1029.57 625.671 1028.3 626.083 1027.03 625.995H1024.95C1024.8 626.012 1024.65 625.987 1024.52 625.923C1024.38 625.858 1024.26 625.756 1024.18 625.628V625.628ZM1026.96 624.552C1027.34 624.592 1027.73 624.548 1028.09 624.424C1028.46 624.3 1028.79 624.098 1029.08 623.831C1029.56 623.139 1029.78 622.291 1029.7 621.444C1029.72 620.816 1029.62 620.19 1029.39 619.607C1029.22 619.177 1028.91 618.827 1028.5 618.624C1028 618.405 1027.46 618.302 1026.91 618.322H1025.88V624.552H1026.96Z" fill="url(#paint9_linear)"/>
<path d="M1033.62 625.641C1033.45 625.391 1033.36 625.093 1033.36 624.788V618.23C1033.34 617.883 1033.43 617.539 1033.62 617.247C1033.72 617.12 1033.86 617.022 1034.01 616.96C1034.16 616.898 1034.32 616.875 1034.48 616.892H1038.68C1038.78 616.888 1038.88 616.907 1038.97 616.948C1039.06 616.989 1039.14 617.051 1039.2 617.129C1039.27 617.199 1039.32 617.282 1039.36 617.375C1039.4 617.467 1039.42 617.566 1039.42 617.666C1039.42 617.764 1039.4 617.861 1039.36 617.951C1039.32 618.041 1039.27 618.123 1039.2 618.191C1039.13 618.265 1039.05 618.323 1038.96 618.361C1038.87 618.4 1038.78 618.418 1038.68 618.414H1035.36V620.631H1038.48C1038.57 620.628 1038.67 620.647 1038.76 620.685C1038.86 620.723 1038.94 620.781 1039.01 620.854C1039.08 620.922 1039.13 621.003 1039.17 621.093C1039.21 621.183 1039.23 621.28 1039.23 621.378C1039.23 621.479 1039.21 621.579 1039.17 621.673C1039.13 621.766 1039.08 621.85 1039.01 621.921C1038.94 621.991 1038.85 622.045 1038.76 622.08C1038.67 622.116 1038.57 622.131 1038.48 622.126H1035.36V624.447H1038.88C1038.98 624.445 1039.07 624.464 1039.16 624.503C1039.25 624.541 1039.33 624.598 1039.39 624.67C1039.53 624.82 1039.6 625.017 1039.59 625.221C1039.6 625.318 1039.58 625.415 1039.54 625.505C1039.51 625.595 1039.46 625.677 1039.39 625.746C1039.33 625.818 1039.25 625.875 1039.16 625.914C1039.07 625.952 1038.98 625.971 1038.88 625.969H1034.39C1034.25 625.991 1034.1 625.972 1033.96 625.914C1033.82 625.856 1033.71 625.762 1033.62 625.641V625.641Z" fill="url(#paint10_linear)"/>
<path d="M1041.34 625.759C1041.24 625.655 1041.16 625.532 1041.12 625.396C1041.07 625.261 1041.05 625.116 1041.06 624.972V617.889C1041.05 617.745 1041.07 617.602 1041.13 617.47C1041.18 617.337 1041.27 617.221 1041.38 617.128C1041.6 616.945 1041.89 616.848 1042.18 616.853H1044.72C1045.06 616.832 1045.4 616.832 1045.74 616.853C1046.04 616.896 1046.34 616.971 1046.63 617.076C1046.9 617.166 1047.15 617.303 1047.38 617.482C1047.58 617.669 1047.75 617.896 1047.86 618.151C1047.98 618.455 1048.04 618.781 1048.04 619.109C1048.05 619.618 1047.88 620.115 1047.56 620.499C1047.15 620.91 1046.62 621.169 1046.06 621.234V621.234C1046.54 621.285 1046.99 621.513 1047.33 621.876C1047.63 622.294 1047.81 622.797 1047.84 623.319L1047.99 624.631C1047.99 624.723 1047.99 624.814 1047.99 624.906C1048 625.047 1047.99 625.19 1047.94 625.325C1047.9 625.46 1047.84 625.585 1047.75 625.693C1047.66 625.785 1047.55 625.857 1047.43 625.902C1047.31 625.947 1047.19 625.965 1047.06 625.956C1046.93 625.962 1046.8 625.94 1046.68 625.893C1046.56 625.846 1046.44 625.773 1046.35 625.68C1046.15 625.444 1046.03 625.142 1046.03 624.828L1045.9 623.516C1045.9 623.104 1045.76 622.705 1045.51 622.388C1045.2 622.135 1044.8 622.018 1044.4 622.06H1042.99V624.841C1043 624.986 1042.98 625.131 1042.93 625.267C1042.88 625.402 1042.8 625.525 1042.7 625.628C1042.51 625.804 1042.26 625.901 1042 625.901C1041.74 625.901 1041.49 625.804 1041.3 625.628L1041.34 625.759ZM1044.15 620.801H1044.73C1044.91 620.786 1045.08 620.756 1045.25 620.709C1045.42 620.671 1045.58 620.6 1045.73 620.499C1045.86 620.409 1045.96 620.281 1046.03 620.132C1046.12 619.949 1046.16 619.746 1046.16 619.542C1046.16 619.386 1046.14 619.232 1046.09 619.083C1046.06 618.968 1046.01 618.858 1045.95 618.755C1045.89 618.661 1045.8 618.584 1045.7 618.532L1045.41 618.401C1045.29 618.387 1045.17 618.387 1045.05 618.401H1044.7H1042.99V620.919L1044.15 620.801Z" fill="url(#paint11_linear)"/>
<path d="M1053.55 625.759C1053.47 625.676 1053.41 625.578 1053.36 625.47C1053.32 625.362 1053.3 625.246 1053.31 625.129V618.033C1053.29 617.718 1053.39 617.407 1053.59 617.168C1053.68 617.066 1053.79 616.985 1053.91 616.931C1054.03 616.877 1054.17 616.85 1054.3 616.853C1054.53 616.861 1054.75 616.938 1054.94 617.076C1055.15 617.225 1055.34 617.417 1055.5 617.64L1059.31 623.109V617.732C1059.31 617.614 1059.33 617.498 1059.38 617.39C1059.42 617.282 1059.48 617.184 1059.57 617.102C1059.64 617.021 1059.74 616.957 1059.84 616.914C1059.94 616.871 1060.05 616.85 1060.16 616.853C1060.28 616.85 1060.39 616.871 1060.49 616.913C1060.6 616.956 1060.69 617.02 1060.77 617.102C1060.86 617.184 1060.92 617.282 1060.96 617.39C1061.01 617.498 1061.03 617.614 1061.03 617.732V624.552C1061.04 624.922 1060.96 625.288 1060.79 625.615C1060.7 625.744 1060.59 625.848 1060.46 625.917C1060.32 625.986 1060.17 626.017 1060.02 626.008C1059.84 625.971 1059.67 625.885 1059.53 625.759C1059.31 625.596 1059.11 625.397 1058.95 625.169L1055.14 619.699V625.103C1055.14 625.222 1055.12 625.339 1055.07 625.448C1055.03 625.556 1054.96 625.654 1054.87 625.733C1054.79 625.814 1054.7 625.878 1054.6 625.921C1054.5 625.964 1054.38 625.984 1054.27 625.982C1054.14 626.006 1054.01 625.998 1053.89 625.959C1053.76 625.921 1053.64 625.852 1053.55 625.759V625.759Z" fill="url(#paint12_linear)"/>
<path d="M1063.8 624.946C1063.07 623.918 1062.68 622.677 1062.68 621.404C1062.68 620.131 1063.07 618.891 1063.8 617.863C1064.69 617.059 1065.83 616.615 1067.02 616.615C1068.2 616.615 1069.35 617.059 1070.24 617.863C1070.96 618.891 1071.36 620.131 1071.36 621.404C1071.36 622.677 1070.96 623.918 1070.24 624.946C1069.35 625.75 1068.2 626.194 1067.02 626.194C1065.83 626.194 1064.69 625.75 1063.8 624.946V624.946ZM1068.74 623.87C1069.16 623.125 1069.35 622.266 1069.3 621.404C1069.35 620.549 1069.16 619.697 1068.75 618.952C1068.55 618.677 1068.29 618.458 1067.99 618.316C1067.68 618.174 1067.35 618.113 1067.02 618.138C1066.69 618.111 1066.36 618.172 1066.06 618.314C1065.76 618.456 1065.5 618.676 1065.3 618.952C1064.94 619.718 1064.75 620.559 1064.75 621.411C1064.75 622.263 1064.94 623.104 1065.3 623.87C1065.5 624.144 1065.76 624.362 1066.06 624.504C1066.36 624.647 1066.69 624.708 1067.02 624.683C1067.35 624.711 1067.68 624.65 1067.98 624.508C1068.28 624.366 1068.54 624.146 1068.74 623.87V623.87Z" fill="url(#paint13_linear)"/>
<path d="M1082.53 625.759C1082.28 625.941 1081.99 626.038 1081.69 626.034C1081.37 626.033 1081.06 625.933 1080.81 625.746C1080.54 625.535 1080.34 625.234 1080.26 624.893L1078.53 618.846L1076.8 624.893C1076.71 625.232 1076.52 625.531 1076.25 625.746C1076 625.93 1075.69 626.031 1075.38 626.034C1075.07 626.038 1074.77 625.942 1074.52 625.759C1074.28 625.576 1074.11 625.311 1074.04 625.011L1072.32 617.955C1072.31 617.872 1072.31 617.788 1072.32 617.705C1072.32 617.581 1072.34 617.458 1072.39 617.344C1072.44 617.23 1072.51 617.13 1072.6 617.049C1072.77 616.881 1073 616.787 1073.24 616.787C1073.44 616.785 1073.64 616.86 1073.79 616.997C1073.96 617.155 1074.07 617.368 1074.1 617.6L1075.54 623.975L1077.22 618.164C1077.3 617.791 1077.46 617.444 1077.7 617.154C1077.82 617.042 1077.95 616.954 1078.1 616.898C1078.25 616.841 1078.41 616.817 1078.57 616.827C1078.73 616.817 1078.88 616.841 1079.03 616.897C1079.18 616.954 1079.31 617.041 1079.42 617.154C1079.67 617.439 1079.84 617.788 1079.92 618.164L1081.58 623.975L1083.02 617.6C1083.06 617.365 1083.17 617.15 1083.35 616.997C1083.5 616.86 1083.69 616.784 1083.89 616.787C1084.13 616.788 1084.36 616.882 1084.53 617.049C1084.62 617.132 1084.69 617.233 1084.74 617.347C1084.79 617.46 1084.81 617.582 1084.8 617.705C1084.81 617.788 1084.81 617.872 1084.8 617.955L1083.08 625.011C1082.99 625.323 1082.8 625.59 1082.53 625.759V625.759Z" fill="url(#paint14_linear)"/>
<path d="M1142.77 357.02H947.527V691.357H1142.77V357.02Z" stroke="#263238" stroke-linecap="round" stroke-linejoin="round"/>
<path d="M1268.83 650.916C1268.92 650.594 1269.04 650.28 1269.18 649.975C1269.48 649.295 1269.85 648.38 1270.34 647.229C1271.73 643.679 1272.85 640.005 1273.7 636.247C1276.42 622.266 1276.34 607.782 1273.49 593.836C1271.7 584.187 1269.37 574.676 1266.5 565.361C1263.54 555.268 1260.09 544.443 1257.18 532.938C1253.96 520.845 1252.39 508.273 1252.52 495.652C1252.94 482.578 1256.41 469.295 1260.23 456.195C1264.05 443.095 1268.01 430.257 1269.2 417.34C1270.51 404.928 1268.28 392.37 1262.84 381.466C1257.78 371.007 1251.4 362.038 1246.53 352.703C1242.08 344.096 1238.79 334.789 1236.79 325.091C1233.91 311.057 1233.7 296.5 1236.16 282.366C1237.13 277.247 1238.54 272.246 1240.38 267.436C1240.33 267.783 1240.25 268.124 1240.15 268.456C1239.94 269.162 1239.68 270.129 1239.33 271.332C1238.33 275.046 1237.51 278.817 1236.86 282.628C1234.6 296.666 1234.94 311.076 1237.86 324.961C1239.89 334.536 1243.18 343.719 1247.63 352.206C1252.28 361.358 1258.78 370.274 1263.93 380.969C1269.51 392.088 1271.8 404.903 1270.48 417.575C1269.29 430.649 1265.31 443.592 1261.51 456.797C1257.71 470.001 1254.24 482.944 1253.82 495.861C1253.65 508.338 1255.14 520.775 1258.25 532.755C1261.02 544.313 1264.42 555.033 1267.36 565.178C1270.25 574.539 1272.58 584.104 1274.35 593.81C1277.21 607.871 1277.21 622.474 1274.35 636.535C1273.45 640.304 1272.24 643.971 1270.74 647.491L1269.48 650.106C1269.3 650.41 1269.08 650.683 1268.83 650.916V650.916Z" fill="#263238"/>
<path d="M1253.24 361.907C1253.24 361.907 1243.55 327.183 1260.93 306.841C1261.06 306.677 1261.23 306.558 1261.42 306.497C1261.61 306.436 1261.81 306.435 1262.01 306.495C1262.2 306.554 1262.37 306.672 1262.5 306.834C1262.64 306.997 1262.73 307.198 1262.77 307.416C1263.68 313.168 1264.84 330.635 1253.24 361.907Z" fill="#D292E3"/>
<path d="M1259.04 318.398C1259.01 320.561 1258.8 322.715 1258.39 324.83C1257.74 329.223 1256.99 334.426 1256.06 340.152C1255.13 345.879 1254.52 351.056 1253.89 355.475C1253.72 357.614 1253.37 359.731 1252.87 361.803C1252.69 359.65 1252.74 357.482 1253.03 355.344C1253.36 351.37 1253.99 345.931 1254.85 339.917C1255.71 333.903 1256.66 328.543 1257.41 324.647C1257.75 322.503 1258.29 320.407 1259.04 318.398Z" fill="#263238"/>
<path d="M1264.61 443.88C1264.61 443.88 1270.53 408.084 1294.45 399.22C1294.64 399.147 1294.84 399.134 1295.03 399.182C1295.23 399.23 1295.41 399.337 1295.55 399.492C1295.69 399.646 1295.79 399.841 1295.84 400.057C1295.89 400.272 1295.89 400.498 1295.83 400.71C1294.15 406.254 1287.91 422.308 1264.61 443.88Z" fill="#D292E3"/>
<path d="M1287.86 408.45C1286.94 410.312 1285.86 412.064 1284.62 413.679L1276.28 426.152C1273.18 430.806 1270.36 434.99 1267.96 438.572C1266.93 440.385 1265.74 442.083 1264.42 443.644C1265.16 441.646 1266.11 439.757 1267.27 438.023C1269.2 434.676 1271.92 430.178 1275.3 425.341C1278.68 420.504 1281.66 416.216 1283.95 413.182C1285.09 411.442 1286.4 409.854 1287.86 408.45V408.45Z" fill="#263238"/>
<path d="M1258.16 533.671C1258.16 533.671 1254.57 497.535 1275.07 481.219C1275.23 481.087 1275.42 481.009 1275.62 480.993C1275.82 480.976 1276.02 481.022 1276.19 481.125C1276.37 481.229 1276.52 481.385 1276.62 481.577C1276.72 481.769 1276.77 481.989 1276.77 482.212C1276.72 488.043 1274.88 505.379 1258.16 533.671Z" fill="#D292E3"/>
<path d="M1271.16 492.305C1270.77 494.413 1270.19 496.472 1269.43 498.45C1268.06 502.633 1266.45 507.575 1264.77 513.014C1263.1 518.453 1261.42 523.473 1260.11 527.604C1259.58 529.666 1258.89 531.669 1258.04 533.592C1258.23 531.442 1258.65 529.325 1259.3 527.291C1260.28 523.473 1261.84 518.244 1263.7 512.543C1265.56 506.843 1267.41 501.744 1268.83 498.084C1269.42 496.071 1270.2 494.134 1271.16 492.305Z" fill="#263238"/>
<path d="M1276.12 623.984C1276.12 623.984 1273.79 587.665 1294.76 572.264C1294.92 572.137 1295.11 572.065 1295.31 572.054C1295.51 572.043 1295.71 572.095 1295.88 572.204C1296.06 572.313 1296.2 572.474 1296.3 572.669C1296.4 572.864 1296.44 573.086 1296.43 573.31C1296.11 579.141 1293.71 596.45 1276.12 623.984Z" fill="#D292E3"/>
<path d="M1290.52 583.063C1290.06 585.157 1289.42 587.19 1288.58 589.129C1287.09 593.287 1285.32 598.15 1283.36 603.511C1281.41 608.871 1279.66 613.734 1278.14 617.813C1277.53 619.859 1276.75 621.838 1275.81 623.723C1276.09 621.584 1276.58 619.487 1277.28 617.473C1278.4 613.682 1280.1 608.531 1282.18 602.909C1284.25 597.287 1286.21 592.267 1287.74 588.685C1288.48 586.704 1289.41 584.819 1290.52 583.063V583.063Z" fill="#263238"/>
<path d="M1239.31 331.393C1239.31 331.393 1210.58 314.502 1210 286.367C1210 286.146 1210.05 285.927 1210.14 285.736C1210.24 285.544 1210.39 285.387 1210.56 285.282C1210.73 285.176 1210.93 285.127 1211.13 285.138C1211.32 285.15 1211.52 285.222 1211.68 285.347C1215.96 288.642 1227.8 300.068 1239.31 331.393Z" fill="#D292E3"/>
<path d="M1215.96 296.041C1217.31 297.586 1218.51 299.276 1219.55 301.088L1227.66 313.665L1235.79 326.216C1237.03 327.842 1238.13 329.593 1239.08 331.445C1237.59 330.058 1236.26 328.478 1235.11 326.739C1232.79 323.679 1229.85 319.313 1226.68 314.397C1223.51 309.481 1220.76 304.905 1218.85 301.558C1217.71 299.847 1216.74 297.997 1215.96 296.041V296.041Z" fill="#263238"/>
<path d="M1270.2 406.018C1270.2 406.018 1240.59 391.14 1238.54 363.084C1238.52 362.86 1238.55 362.633 1238.64 362.431C1238.73 362.228 1238.87 362.057 1239.04 361.937C1239.21 361.817 1239.4 361.753 1239.6 361.752C1239.8 361.752 1240 361.815 1240.17 361.933C1244.55 364.94 1256.99 375.53 1270.2 406.018Z" fill="#D292E3"/>
<path d="M1244.97 372.314C1246.4 373.814 1247.7 375.469 1248.84 377.256L1257.6 389.258L1266.5 401.102C1267.82 402.655 1269 404.345 1270.04 406.149C1268.48 404.876 1267.07 403.392 1265.84 401.73C1263.4 398.828 1260.18 394.696 1256.76 389.99C1253.33 385.283 1250.33 380.917 1248.25 377.7C1246.99 376.046 1245.88 374.24 1244.97 372.314V372.314Z" fill="#263238"/>
<path d="M1253.15 489.246C1253.15 489.246 1232.83 460.928 1242.36 434.781C1242.43 434.573 1242.56 434.393 1242.72 434.26C1242.88 434.126 1243.07 434.046 1243.27 434.027C1243.46 434.008 1243.66 434.051 1243.84 434.152C1244.02 434.253 1244.17 434.407 1244.27 434.598C1247 439.566 1253.78 455.359 1253.15 489.246Z" fill="#D292E3"/>
<path d="M1244.39 446.364C1245.06 448.378 1245.55 450.463 1245.85 452.587C1246.72 456.98 1247.7 462.105 1248.79 467.779C1249.88 473.453 1250.91 478.551 1251.77 482.918C1252.32 484.985 1252.69 487.103 1252.89 489.246C1252.01 487.317 1251.35 485.27 1250.93 483.153C1249.95 479.336 1248.74 474.002 1247.6 468.066C1246.46 462.131 1245.57 456.718 1245.02 452.77C1244.59 450.668 1244.38 448.519 1244.39 446.364Z" fill="#263238"/>
<path d="M1273.3 587.194C1273.3 587.194 1243.92 571.767 1242.24 543.659C1242.23 543.437 1242.27 543.214 1242.35 543.015C1242.44 542.817 1242.58 542.65 1242.75 542.533C1242.92 542.416 1243.11 542.355 1243.31 542.355C1243.51 542.355 1243.71 542.417 1243.87 542.534C1248.28 545.646 1260.56 556.471 1273.3 587.194Z" fill="#D292E3"/>
<path d="M1248.58 553.046C1249.99 554.506 1251.26 556.137 1252.35 557.909L1260.95 570.068L1269.57 582.2C1270.87 583.818 1272.03 585.568 1273.04 587.43C1271.47 586.096 1270.06 584.551 1268.83 582.828C1266.5 579.873 1263.26 575.69 1259.9 570.905C1256.55 566.12 1253.64 561.727 1251.59 558.485C1250.41 556.798 1249.41 554.974 1248.58 553.046V553.046Z" fill="#263238"/>
<path d="M1331.73 444.063C1331.77 444.332 1331.77 444.605 1331.73 444.874V447.201C1331.73 449.371 1331.54 452.43 1331.38 456.012C1331.01 463.857 1330.47 474.603 1329.84 487.546C1327.75 500.62 1321.76 515.315 1313.74 529.383C1307.85 539.842 1301.68 549.307 1296.34 558.145C1291.51 565.859 1287.15 573.941 1283.32 582.331C1280.8 588.024 1278.75 593.967 1277.21 600.086C1276.7 602.256 1276.3 603.955 1276.09 605.106C1276.01 605.707 1275.86 606.294 1275.65 606.858C1275.66 606.251 1275.72 605.646 1275.84 605.054C1276 603.877 1276.3 602.151 1276.75 599.955C1278.12 593.733 1280.07 587.687 1282.55 581.913C1286.29 573.405 1290.6 565.225 1295.43 557.439C1300.72 548.549 1306.85 539.136 1312.72 528.677C1320.71 514.583 1326.7 500.202 1328.82 487.233C1329.63 474.29 1330.31 463.491 1330.77 455.856C1331.05 452.169 1331.26 449.214 1331.43 447.044C1331.43 446.103 1331.57 445.344 1331.64 444.717C1331.64 444.495 1331.67 444.276 1331.73 444.063V444.063Z" fill="#263238"/>
<path d="M1314.33 526.846C1314.33 526.846 1326.77 493.246 1311.11 471.204C1310.99 471.025 1310.83 470.888 1310.64 470.809C1310.45 470.729 1310.25 470.71 1310.05 470.754C1309.85 470.797 1309.67 470.902 1309.53 471.055C1309.38 471.209 1309.27 471.405 1309.22 471.622C1307.85 477.244 1305.29 494.528 1314.33 526.846Z" fill="#D292E3"/>
<path d="M1312.07 482.944C1312.6 485.016 1312.92 487.146 1313.04 489.298C1313.49 493.246 1313.98 498.711 1314.37 504.777C1314.77 510.843 1314.93 516.334 1314.93 520.309C1315.06 522.47 1314.94 524.639 1314.58 526.767C1314.24 524.653 1314.07 522.509 1314.07 520.361C1313.81 515.89 1313.49 510.66 1313.16 504.882C1312.83 499.103 1312.46 493.848 1312.18 489.376C1311.95 487.242 1311.91 485.087 1312.07 482.944V482.944Z" fill="#263238"/>
<g opacity="0.3">
<path opacity="0.3" d="M1314.33 526.846C1314.33 526.846 1326.77 493.246 1311.11 471.204C1310.99 471.025 1310.83 470.888 1310.64 470.809C1310.45 470.729 1310.25 470.71 1310.05 470.754C1309.85 470.797 1309.67 470.902 1309.53 471.055C1309.38 471.209 1309.27 471.405 1309.22 471.622C1307.85 477.244 1305.29 494.528 1314.33 526.846Z" fill="black"/>
</g>
<path d="M1275.81 607.878C1275.81 607.878 1285.79 573.232 1268.59 552.706C1268.46 552.544 1268.28 552.427 1268.09 552.367C1267.9 552.307 1267.7 552.307 1267.51 552.366C1267.32 552.425 1267.14 552.541 1267 552.703C1266.87 552.864 1266.77 553.064 1266.73 553.282C1265.75 559.008 1264.45 576.474 1275.81 607.878Z" fill="#D292E3"/>
<path d="M1270.34 564.289C1271.03 566.306 1271.51 568.402 1271.78 570.539C1272.51 574.435 1273.39 579.847 1274.11 585.861C1274.84 591.875 1275.51 597.34 1275.79 601.288C1276.03 603.442 1276.03 605.619 1275.79 607.773C1275.31 605.689 1274.99 603.564 1274.84 601.419C1274.25 597 1273.56 591.797 1272.79 586.07C1272.02 580.344 1271.32 575.141 1270.71 570.722C1270.4 568.597 1270.27 566.442 1270.34 564.289Z" fill="#263238"/>
<g opacity="0.3">
<path opacity="0.3" d="M1275.81 607.878C1275.81 607.878 1285.79 573.232 1268.59 552.706C1268.46 552.544 1268.28 552.427 1268.09 552.367C1267.9 552.307 1267.7 552.307 1267.51 552.366C1267.32 552.425 1267.14 552.541 1267 552.703C1266.87 552.864 1266.77 553.064 1266.73 553.282C1265.75 559.008 1264.45 576.474 1275.81 607.878Z" fill="black"/>
</g>
<path d="M1330.17 485.768C1330.17 485.768 1356.75 464.85 1354.07 436.872C1354.05 436.653 1353.97 436.445 1353.85 436.27C1353.73 436.096 1353.57 435.961 1353.38 435.881C1353.2 435.8 1353 435.777 1352.8 435.814C1352.61 435.85 1352.43 435.945 1352.28 436.088C1348.43 440.01 1338 453.084 1330.17 485.768Z" fill="#D292E3"/>
<g opacity="0.3">
<path opacity="0.3" d="M1330.17 485.768C1330.17 485.768 1356.75 464.85 1354.07 436.872C1354.05 436.653 1353.97 436.445 1353.85 436.27C1353.73 436.096 1353.57 435.961 1353.38 435.881C1353.2 435.8 1353 435.777 1352.8 435.814C1352.61 435.85 1352.43 435.945 1352.28 436.088C1348.43 440.01 1338 453.084 1330.17 485.768Z" fill="black"/>
</g>
<path d="M1349.25 447.331C1348.74 449.411 1348 451.413 1347.06 453.293C1345.52 456.901 1343.33 461.817 1340.77 467.151C1338.21 472.485 1335.71 477.27 1333.78 480.617C1332.86 482.515 1331.72 484.272 1330.4 485.847C1331.14 483.854 1332.02 481.938 1333.06 480.12L1339.67 466.524C1342.14 461.294 1344.33 456.797 1346.27 452.875C1347.09 450.92 1348.09 449.063 1349.25 447.331V447.331Z" fill="#263238"/>
<path d="M1286.49 573.52C1286.49 573.52 1318.54 567.924 1327.14 541.436C1327.21 541.228 1327.22 541.002 1327.18 540.784C1327.14 540.566 1327.05 540.365 1326.92 540.202C1326.78 540.04 1326.61 539.922 1326.42 539.863C1326.23 539.804 1326.02 539.806 1325.83 539.868C1320.85 541.463 1306.36 548.026 1286.49 573.52Z" fill="#D292E3"/>
<g opacity="0.3">
<path opacity="0.3" d="M1286.49 573.52C1286.49 573.52 1318.54 567.924 1327.14 541.436C1327.21 541.228 1327.22 541.002 1327.18 540.784C1327.14 540.566 1327.05 540.365 1326.92 540.202C1326.78 540.04 1326.61 539.922 1326.42 539.863C1326.23 539.804 1326.02 539.806 1325.83 539.868C1320.85 541.463 1306.36 548.026 1286.49 573.52Z" fill="black"/>
</g>
<path d="M1318.71 548.47C1317.42 550.062 1315.97 551.483 1314.4 552.706C1311.62 555.19 1307.71 558.537 1303.31 562.041C1298.9 565.544 1294.8 568.63 1291.66 570.696C1290.08 571.941 1288.38 572.96 1286.58 573.729C1288.03 572.302 1289.59 571.024 1291.24 569.911L1302.54 560.942L1313.81 551.948C1315.33 550.6 1316.97 549.435 1318.71 548.47V548.47Z" fill="#263238"/>
<path d="M1255.92 639.725L1246.58 710.349H1304.84L1297.27 639.725H1255.92Z" fill="#455A64"/>
<path d="M1299.6 661.61C1291.79 662.284 1283.95 662.511 1276.12 662.29C1268.28 662.511 1260.45 662.284 1252.63 661.61C1260.45 660.921 1268.28 660.694 1276.12 660.931C1283.95 660.694 1291.79 660.921 1299.6 661.61Z" fill="#263238"/>
<path d="M1300.77 667.233C1300.77 667.599 1289.91 667.912 1276.51 667.912C1263.12 667.912 1252.24 667.599 1252.24 667.233C1260.31 666.543 1268.42 666.316 1276.51 666.553C1284.6 666.316 1292.7 666.543 1300.77 667.233Z" fill="#263238"/>
<defs>
<linearGradient id="paint0_linear" x1="345.616" y1="2.75568" x2="349.195" y2="783.886" gradientUnits="userSpaceOnUse">
<stop stop-color="#E88FFF" stop-opacity="0.45"/>
<stop offset="1" stop-color="#FFCBCE" stop-opacity="0.6"/>
</linearGradient>
<linearGradient id="paint1_linear" x1="1050.5" y1="384.615" x2="1050.5" y2="425.079" gradientUnits="userSpaceOnUse">
<stop stop-color="#A41BD3"/>
<stop offset="1" stop-color="#FB6464" stop-opacity="0.91"/>
</linearGradient>
<linearGradient id="paint2_linear" x1="1055.6" y1="398.268" x2="1055.6" y2="428.476" gradientUnits="userSpaceOnUse">
<stop stop-color="#A41BD3"/>
<stop offset="1" stop-color="#FB6464" stop-opacity="0.91"/>
</linearGradient>
<linearGradient id="paint3_linear" x1="1053.45" y1="409.523" x2="1053.45" y2="434.89" gradientUnits="userSpaceOnUse">
<stop stop-color="#A41BD3"/>
<stop offset="1" stop-color="#FB6464" stop-opacity="0.91"/>
</linearGradient>
<linearGradient id="paint4_linear" x1="1020.04" y1="403.909" x2="1020.04" y2="408.552" gradientUnits="userSpaceOnUse">
<stop stop-color="#A41BD3"/>
<stop offset="1" stop-color="#FB6464" stop-opacity="0.91"/>
</linearGradient>
<linearGradient id="paint5_linear" x1="995.936" y1="430.696" x2="995.936" y2="487.791" gradientUnits="userSpaceOnUse">
<stop stop-color="#A41BD3"/>
<stop offset="1" stop-color="#FB6464" stop-opacity="0.91"/>
</linearGradient>
<linearGradient id="paint6_linear" x1="1048.31" y1="465.543" x2="1048.31" y2="584.175" gradientUnits="userSpaceOnUse">
<stop stop-color="#A41BD3"/>
<stop offset="1" stop-color="#FB6464" stop-opacity="0.91"/>
</linearGradient>
<linearGradient id="paint7_linear" x1="1009.19" y1="616.618" x2="1009.19" y2="626.191" gradientUnits="userSpaceOnUse">
<stop stop-color="#A41BD3"/>
<stop offset="1" stop-color="#FB6464" stop-opacity="0.91"/>
</linearGradient>
<linearGradient id="paint8_linear" x1="1018.68" y1="616.837" x2="1018.68" y2="625.958" gradientUnits="userSpaceOnUse">
<stop stop-color="#A41BD3"/>
<stop offset="1" stop-color="#FB6464" stop-opacity="0.91"/>
</linearGradient>
<linearGradient id="paint9_linear" x1="1027.88" y1="616.826" x2="1027.88" y2="626.007" gradientUnits="userSpaceOnUse">
<stop stop-color="#A41BD3"/>
<stop offset="1" stop-color="#FB6464" stop-opacity="0.91"/>
</linearGradient>
<linearGradient id="paint10_linear" x1="1036.48" y1="616.887" x2="1036.48" y2="625.978" gradientUnits="userSpaceOnUse">
<stop stop-color="#A41BD3"/>
<stop offset="1" stop-color="#FB6464" stop-opacity="0.91"/>
</linearGradient>
<linearGradient id="paint11_linear" x1="1044.55" y1="616.837" x2="1044.55" y2="625.958" gradientUnits="userSpaceOnUse">
<stop stop-color="#A41BD3"/>
<stop offset="1" stop-color="#FB6464" stop-opacity="0.91"/>
</linearGradient>
<linearGradient id="paint12_linear" x1="1057.17" y1="616.853" x2="1057.17" y2="626.01" gradientUnits="userSpaceOnUse">
<stop stop-color="#A41BD3"/>
<stop offset="1" stop-color="#FB6464" stop-opacity="0.91"/>
</linearGradient>
<linearGradient id="paint13_linear" x1="1067.02" y1="616.615" x2="1067.02" y2="626.194" gradientUnits="userSpaceOnUse">
<stop stop-color="#A41BD3"/>
<stop offset="1" stop-color="#FB6464" stop-opacity="0.91"/>
</linearGradient>
<linearGradient id="paint14_linear" x1="1078.56" y1="616.787" x2="1078.56" y2="626.034" gradientUnits="userSpaceOnUse">
<stop stop-color="#A41BD3"/>
<stop offset="1" stop-color="#FB6464" stop-opacity="0.91"/>
</linearGradient>
</defs>
</svg>
