<svg width="91" height="92" viewBox="0 0 91 92" fill="none" xmlns="http://www.w3.org/2000/svg">
<ellipse cx="45.5" cy="46" rx="45.5" ry="46" fill="url(#paint0_radial)"/>
<path d="M27.4969 63.9904L27.4886 62.4193L30.345 62.3851L30.3814 64.6821L30.204 64.6958C29.4161 64.7504 26.1947 64.9178 25.6656 64.759C25.0767 64.5831 27.4969 63.9904 27.4969 63.9904Z" fill="#FF725E"/>
<path d="M29.3462 64.6718C29.3856 64.4232 29.5126 64.1983 29.7028 64.0399C29.8891 63.8829 30.1259 63.8037 30.3663 63.8179L30.3763 64.6394L29.3462 64.6718Z" fill="#FF725E"/>
<path d="M26.3145 64.3235C26.3145 64.3235 25.4668 64.5865 25.5747 64.7299C25.6825 64.8734 28.9453 64.8307 30.3851 64.6821V64.6155L26.5799 64.6992C26.5799 64.6992 26.482 64.3286 26.3145 64.3235Z" fill="#FF725E"/>
<path d="M30.4211 64.6138H30.3713L30.2303 64.6257L29.7128 64.6548C29.2732 64.677 28.6678 64.6992 27.9976 64.7077C27.3275 64.7162 26.722 64.7077 26.2825 64.7077L25.7633 64.6923H25.6223H25.5725H25.7633H26.2841C26.722 64.6923 27.3275 64.6923 27.9976 64.6923C28.6678 64.6923 29.2732 64.6633 29.7111 64.6479L30.2303 64.6308H30.3713L30.4211 64.6138Z" fill="#263238"/>
<path d="M26.5729 64.7452C26.5495 64.6567 26.5161 64.5713 26.4733 64.4908C26.4214 64.4167 26.3613 64.3491 26.2942 64.2892C26.3842 64.3219 26.4588 64.3884 26.5032 64.4754C26.5573 64.5537 26.5821 64.6496 26.5729 64.7452Z" fill="#263238"/>
<path d="M27.4106 64.2927C27.4023 64.2927 27.3625 64.2483 27.3194 64.1817C27.2889 64.1434 27.2674 64.0984 27.2563 64.0502C27.2646 64.0502 27.3061 64.0946 27.3476 64.1629C27.3891 64.2313 27.4189 64.2876 27.4106 64.2927Z" fill="#263238"/>
<path d="M27.6413 64.1647C27.6413 64.1647 27.5883 64.1408 27.5385 64.0964C27.4887 64.052 27.4539 64.0093 27.4605 64.0025C27.4672 63.9956 27.5119 64.0247 27.5617 64.0708C27.6115 64.1169 27.6463 64.1579 27.6413 64.1647Z" fill="#263238"/>
<path d="M27.7839 63.8846C27.7366 63.9042 27.6854 63.9118 27.6346 63.9069C27.5845 63.913 27.5337 63.9083 27.4854 63.8932C27.5327 63.8737 27.5839 63.866 27.6346 63.8709C27.6848 63.865 27.7356 63.8696 27.7839 63.8846Z" fill="#263238"/>
<path d="M27.8318 63.6881C27.783 63.7228 27.7251 63.7413 27.6659 63.7412C27.6097 63.7513 27.5518 63.7436 27.5 63.719C27.5548 63.7092 27.6103 63.7046 27.6659 63.7052C27.7206 63.6949 27.7761 63.6892 27.8318 63.6881Z" fill="#263238"/>
<path d="M27.3113 64.0383C27.2503 64.0487 27.1881 64.0487 27.1271 64.0383C27.0608 64.0297 26.9954 64.0154 26.9314 63.9956C26.8922 63.9848 26.8543 63.9694 26.8186 63.9495C26.7966 63.9367 26.7801 63.916 26.7722 63.8914C26.7695 63.8774 26.7707 63.8629 26.7757 63.8496C26.7807 63.8363 26.7892 63.8247 26.8004 63.8162C26.8696 63.7792 26.9493 63.7685 27.0254 63.786C27.1016 63.8035 27.1693 63.8481 27.2167 63.9119C27.2457 63.9484 27.2666 63.9909 27.2781 64.0365C27.2817 64.0534 27.2817 64.0709 27.2781 64.0878C27.2581 64.0298 27.229 63.9755 27.1918 63.9273C27.1493 63.879 27.0948 63.8436 27.0342 63.8248C26.9983 63.813 26.9605 63.8085 26.923 63.8117C26.8854 63.815 26.8488 63.8258 26.8153 63.8436C26.7854 63.8658 26.7987 63.9016 26.8302 63.9204C26.8636 63.9387 26.8986 63.9536 26.9347 63.9648C26.9963 63.9862 27.0596 64.0022 27.1238 64.0126C27.2416 64.0331 27.3113 64.0331 27.3113 64.0383Z" fill="#263238"/>
<path d="M27.2628 64.0484C27.2406 64.0086 27.2324 63.9622 27.2396 63.9169C27.2453 63.8674 27.2623 63.8199 27.2893 63.7786C27.3044 63.7503 27.3261 63.7264 27.3525 63.7091C27.3789 63.6918 27.4091 63.6816 27.4403 63.6795C27.4592 63.6832 27.4758 63.6945 27.4867 63.7108C27.4976 63.7271 27.5018 63.7471 27.4984 63.7666C27.4943 63.7969 27.4841 63.826 27.4685 63.852C27.4448 63.8939 27.4158 63.9324 27.3822 63.9664C27.3548 64.0017 27.3187 64.0288 27.2777 64.045C27.2777 64.045 27.3142 64.0108 27.364 63.9493C27.3938 63.9145 27.4194 63.8761 27.4403 63.8349C27.4652 63.7956 27.4818 63.7239 27.4403 63.7154C27.3988 63.7068 27.3474 63.7598 27.3192 63.7973C27.2942 63.8341 27.2772 63.8761 27.2694 63.9203C27.2637 63.9627 27.2615 64.0056 27.2628 64.0484Z" fill="#263238"/>
<path d="M30.3533 63.8094C30.3533 63.8094 30.2704 63.8094 30.1426 63.8196C29.9746 63.8411 29.8158 63.911 29.6846 64.0213C29.5535 64.1315 29.4552 64.2777 29.4012 64.443C29.3597 64.5711 29.3564 64.6547 29.3497 64.6547C29.347 64.6349 29.347 64.6148 29.3497 64.595C29.355 64.5412 29.365 64.488 29.3796 64.4361C29.4286 64.2624 29.5276 64.1081 29.6635 63.9934C29.7994 63.8788 29.9659 63.8093 30.141 63.794C30.1934 63.7885 30.2462 63.7885 30.2986 63.794C30.3174 63.7966 30.3358 63.8017 30.3533 63.8094Z" fill="#263238"/>
<path d="M30.0365 62.5969C30.0708 62.9983 30.0808 63.4015 30.0664 63.8043C30.0343 63.4027 30.0243 62.9996 30.0365 62.5969Z" fill="#263238"/>
<path d="M28.9829 64.39C28.7097 64.4469 28.4289 64.4532 28.1536 64.4089C28.1536 64.3986 28.341 64.4089 28.5716 64.4089C28.8021 64.4089 28.9813 64.3797 28.9829 64.39Z" fill="#263238"/>
<path d="M29.5388 64.3815C29.5388 64.3815 29.5238 64.4224 29.5056 64.4668C29.4873 64.5112 29.4774 64.5505 29.4674 64.5488C29.4575 64.5471 29.4525 64.5027 29.4674 64.4515C29.4824 64.4002 29.5388 64.3746 29.5388 64.3815Z" fill="#263238"/>
<path d="M29.7493 64.1083C29.7576 64.1083 29.7393 64.1458 29.7095 64.1766C29.6796 64.2073 29.6514 64.2278 29.6448 64.221C29.6381 64.2141 29.6547 64.1834 29.6846 64.1526C29.7144 64.1219 29.7426 64.1014 29.7493 64.1083Z" fill="#263238"/>
<path d="M30.0494 63.9802C30.0494 63.9905 30.0096 63.9905 29.9682 64.0059C29.9267 64.0213 29.8968 64.0453 29.8885 64.0385C29.8802 64.0316 29.9051 63.9922 29.9565 63.9733C30.008 63.9545 30.0527 63.9716 30.0494 63.9802Z" fill="#263238"/>
<path d="M30.2651 63.9187C30.2651 63.929 30.2519 63.9444 30.2287 63.953C30.2054 63.9616 30.1822 63.965 30.1789 63.953C30.1756 63.941 30.1922 63.929 30.2154 63.9187C30.2386 63.9084 30.2602 63.9101 30.2651 63.9187Z" fill="#263238"/>
<path d="M42.0972 63.1792L41.6311 61.6832L38.9058 62.5627L39.5693 64.7572L39.7351 64.7145C40.5015 64.5147 43.6133 63.6437 44.0695 63.3243C44.5771 62.9691 42.0972 63.1792 42.0972 63.1792Z" fill="#FF725E"/>
<path d="M40.5448 64.4174C40.4333 64.1931 40.2446 64.0196 40.0157 63.9307C39.7906 63.8402 39.5407 63.8402 39.3157 63.9307L39.5545 64.7145L40.5448 64.4174Z" fill="#FF725E"/>
<path d="M43.3212 63.1177C43.3212 63.1177 44.207 63.0972 44.1506 63.268C44.0942 63.4388 40.9774 64.4395 39.5658 64.7572L39.5525 64.694L43.1935 63.5566C43.1935 63.5566 43.1653 63.1758 43.3212 63.1177Z" fill="#FF725E"/>
<path d="M39.5044 64.706L39.5542 64.6957L39.6902 64.6599L40.1878 64.5232C40.6108 64.4037 41.1947 64.2312 41.8333 64.0263C42.4719 63.8214 43.0475 63.6215 43.4622 63.473L43.9515 63.2919L44.0842 63.2407C44.0999 63.2358 44.115 63.2289 44.129 63.2202L44.0809 63.2339L43.9466 63.2783L43.4489 63.4491C43.0326 63.5925 42.4537 63.7906 41.8184 63.9921C41.1831 64.1937 40.5975 64.373 40.1762 64.5045L39.6786 64.653L39.5442 64.694C39.5307 64.697 39.5174 64.701 39.5044 64.706Z" fill="#263238"/>
<path d="M43.2022 63.601C43.1993 63.5095 43.206 63.4179 43.2221 63.3278C43.249 63.2405 43.2857 63.1568 43.3315 63.0784C43.2557 63.1371 43.2042 63.2231 43.1872 63.3192C43.1598 63.412 43.1651 63.5118 43.2022 63.601Z" fill="#263238"/>
<path d="M42.2696 63.4388C42.2795 63.4388 42.3028 63.3807 42.3243 63.3039C42.3459 63.227 42.3525 63.1621 42.3426 63.1587C42.3159 63.1999 42.2978 63.2465 42.2895 63.2953C42.2726 63.341 42.2658 63.39 42.2696 63.4388Z" fill="#263238"/>
<path d="M42.0124 63.3909C42.0207 63.3909 42.0555 63.3517 42.0887 63.2936C42.1218 63.2355 42.1434 63.1826 42.1351 63.1775C42.1268 63.1723 42.0937 63.2167 42.0588 63.2748C42.024 63.3329 42.0041 63.3858 42.0124 63.3909Z" fill="#263238"/>
<path d="M41.7938 63.1707C41.8443 63.1722 41.8946 63.1629 41.9415 63.1434C41.9909 63.1328 42.0378 63.1119 42.0791 63.0819C42.0285 63.0782 41.9777 63.0876 41.9315 63.1092C41.8519 63.1331 41.7905 63.1605 41.7938 63.1707Z" fill="#263238"/>
<path d="M41.689 62.9982C41.7429 63.0162 41.8009 63.0162 41.8548 62.9982C41.9135 62.99 41.9684 62.9638 42.0124 62.923C41.956 62.9314 41.9005 62.9451 41.8465 62.964C41.7932 62.9709 41.7405 62.9824 41.689 62.9982Z" fill="#263238"/>
<path d="M42.2879 63.1638C42.3494 63.1568 42.4091 63.1376 42.4637 63.1074C42.5245 63.0785 42.5828 63.0442 42.6379 63.005C42.6716 62.9818 42.7028 62.9549 42.7308 62.9247C42.7474 62.9053 42.7568 62.8805 42.7573 62.8547C42.7558 62.8404 42.7503 62.8268 42.7414 62.8156C42.7326 62.8044 42.7209 62.796 42.7075 62.7915C42.6304 62.7781 42.5511 62.7932 42.4837 62.8341C42.4164 62.8751 42.3652 62.9392 42.3393 63.0152C42.3237 63.0601 42.317 63.1077 42.3194 63.1553C42.3186 63.1724 42.3221 63.1894 42.3293 63.2048C42.3299 63.1435 42.3411 63.0827 42.3625 63.0255C42.3876 62.9652 42.4291 62.9136 42.4819 62.8769C42.5125 62.854 42.5471 62.8375 42.5838 62.8285C42.6205 62.8194 42.6586 62.8178 42.6959 62.8239C42.7291 62.8376 42.7291 62.8735 42.7042 62.9025C42.6782 62.9307 42.6493 62.9559 42.618 62.9777C42.5653 63.0177 42.5099 63.0536 42.4521 63.0852C42.3542 63.1382 42.2862 63.1587 42.2879 63.1638Z" fill="#263238"/>
<path d="M42.3359 63.1588C42.3461 63.1143 42.3402 63.0676 42.3193 63.0273C42.3 62.9816 42.2697 62.9416 42.2314 62.9112C42.2095 62.8902 42.1829 62.875 42.154 62.867C42.1251 62.8589 42.0947 62.8583 42.0655 62.8651C42.0572 62.8697 42.0498 62.876 42.0439 62.8836C42.0379 62.8912 42.0335 62.9 42.0309 62.9093C42.0282 62.9187 42.0275 62.9285 42.0286 62.9382C42.0297 62.9479 42.0326 62.9573 42.0373 62.9658C42.0495 62.9936 42.0676 63.0181 42.0904 63.0375C42.1259 63.0694 42.1648 63.0969 42.2065 63.1195C42.2432 63.144 42.2856 63.1582 42.3293 63.1605C42.3293 63.1605 42.2845 63.14 42.2181 63.0973C42.1801 63.0731 42.1446 63.0451 42.112 63.0136C42.0771 62.9829 42.039 62.9197 42.0804 62.8975C42.105 62.8928 42.1304 62.8939 42.1545 62.9007C42.1786 62.9075 42.2009 62.9198 42.2198 62.9368C42.2548 62.9636 42.2836 62.998 42.3044 63.0375C42.3195 63.0765 42.3301 63.1172 42.3359 63.1588Z" fill="#263238"/>
<path d="M39.3257 63.9186C39.3257 63.9186 39.402 63.8862 39.5297 63.8623C39.6959 63.8284 39.868 63.8438 40.026 63.9066C40.1839 63.9695 40.3213 64.0773 40.4221 64.2175C40.5001 64.3251 40.5283 64.4054 40.5349 64.4019C40.5321 64.3824 40.5265 64.3634 40.5183 64.3456C40.4977 64.2957 40.4722 64.2482 40.442 64.2038C40.3429 64.0545 40.2023 63.9396 40.0386 63.874C39.8749 63.8085 39.6958 63.7955 39.5247 63.8367C39.4735 63.8495 39.4235 63.8672 39.3754 63.8896C39.3575 63.8965 39.3407 63.9063 39.3257 63.9186Z" fill="#263238"/>
<path d="M39.2559 62.6601C39.3432 63.0527 39.454 63.4394 39.5876 63.818C39.547 63.6206 39.4961 63.4256 39.435 63.2339C39.3865 63.0391 39.3267 62.8475 39.2559 62.6601Z" fill="#263238"/>
<path d="M40.8052 64.0331C40.9453 64.0216 41.0834 63.9923 41.2166 63.946C41.3521 63.9091 41.4825 63.8546 41.6047 63.7837C41.6047 63.7752 41.4256 63.8435 41.2066 63.9118C40.9876 63.9801 40.8035 64.0228 40.8052 64.0331Z" fill="#263238"/>
<path d="M40.271 64.2039C40.271 64.2039 40.2975 64.2381 40.3274 64.274C40.3572 64.3098 40.3805 64.344 40.3888 64.3406C40.3971 64.3371 40.3888 64.2927 40.3539 64.25C40.3191 64.2074 40.2743 64.1954 40.271 64.2039Z" fill="#263238"/>
<path d="M39.9888 64.0109C39.9888 64.0195 40.0103 64.0435 40.0485 64.064C40.0866 64.0846 40.1198 64.0932 40.1231 64.0846C40.1265 64.076 40.1016 64.0521 40.0651 64.0315C40.0286 64.0109 39.9888 64.0024 39.9888 64.0109Z" fill="#263238"/>
<path d="M39.6673 63.9855C39.6673 63.994 39.7071 63.9855 39.7519 63.9855C39.7966 63.9855 39.8331 64.0009 39.8381 63.9855C39.8431 63.97 39.8082 63.9461 39.7535 63.9443C39.6988 63.9426 39.6573 63.9769 39.6673 63.9855Z" fill="#263238"/>
<path d="M39.4448 63.9955C39.4448 64.0058 39.4647 64.0144 39.4896 64.0161C39.5145 64.0178 39.5361 64.0161 39.5361 64.0024C39.5361 63.9887 39.5178 63.9835 39.4913 63.9818C39.4647 63.9801 39.4448 63.9853 39.4448 63.9955Z" fill="#263238"/>
<path d="M25.5527 32.8045L26.8864 63.3141L31.3352 63.4097L30.597 37.8681L38.6586 63.7137L42.2946 62.689L34.1816 32.8045" fill="#263238"/>
<path d="M38.4675 63.5413L38.6749 63.9512L42.5282 62.795L42.2943 62.129L38.4675 63.5413Z" fill="#455A64"/>
<path d="M41.8502 61.977C41.8734 61.977 41.9082 62.0197 41.9281 62.0863C41.948 62.1529 41.9447 62.2161 41.9281 62.2229C41.9115 62.2297 41.8717 62.1802 41.8518 62.1119C41.8319 62.0436 41.8269 61.9838 41.8502 61.977Z" fill="#455A64"/>
<path d="M41.5613 60.9865C41.5845 60.9865 41.6359 61.0838 41.6757 61.2204C41.7156 61.357 41.7288 61.4749 41.7056 61.4817C41.6824 61.4885 41.6326 61.3844 41.5928 61.246C41.553 61.1077 41.5381 60.9933 41.5613 60.9865Z" fill="#455A64"/>
<path d="M41.273 59.996C41.2962 59.996 41.3476 60.0933 41.3874 60.2299C41.4272 60.3666 41.4405 60.4844 41.4173 60.4912C41.3941 60.4981 41.3443 60.3922 41.3045 60.2556C41.2647 60.1189 41.2497 60.0028 41.273 59.996Z" fill="#455A64"/>
<path d="M40.9844 59.0105C41.0076 59.0105 41.059 59.1078 41.0989 59.2445C41.1387 59.3811 41.1519 59.4989 41.1287 59.5058C41.1055 59.5126 41.0557 59.4067 41.0159 59.2701C40.9761 59.1335 40.9612 59.0105 40.9844 59.0105Z" fill="#455A64"/>
<path d="M40.6956 58.0149C40.7188 58.0149 40.7702 58.1122 40.81 58.2489C40.8498 58.3855 40.8631 58.5033 40.8399 58.5101C40.8167 58.517 40.7669 58.4111 40.7271 58.2745C40.6873 58.1379 40.674 58.0217 40.6956 58.0149Z" fill="#455A64"/>
<path d="M40.4068 57.0244C40.43 57.0159 40.4814 57.1218 40.5212 57.2584C40.561 57.395 40.5743 57.5111 40.5511 57.5197C40.5279 57.5282 40.4781 57.4206 40.4383 57.284C40.3985 57.1474 40.3852 57.0312 40.4068 57.0244Z" fill="#455A64"/>
<path d="M40.1182 56.0322C40.1414 56.0322 40.1928 56.1312 40.2326 56.2678C40.2724 56.4045 40.2857 56.5206 40.2625 56.5291C40.2393 56.5377 40.1895 56.4301 40.1497 56.2935C40.1099 56.1568 40.0966 56.0407 40.1182 56.0322Z" fill="#455A64"/>
<path d="M39.8228 55.0416C39.846 55.0416 39.8974 55.1407 39.9372 55.2773C39.977 55.4139 39.9903 55.53 39.9671 55.5369C39.9438 55.5437 39.8941 55.4395 39.8543 55.3029C39.8145 55.1663 39.8078 55.0502 39.8228 55.0416Z" fill="#455A64"/>
<path d="M39.5413 54.0579C39.5645 54.0579 39.6159 54.1569 39.6557 54.2935C39.6955 54.4302 39.7088 54.5463 39.6856 54.5531C39.6624 54.56 39.6126 54.4558 39.5728 54.3192C39.533 54.1825 39.5197 54.0579 39.5413 54.0579Z" fill="#455A64"/>
<path d="M39.2525 53.0605C39.2757 53.0605 39.3271 53.1596 39.3669 53.2962C39.4067 53.4328 39.42 53.549 39.3968 53.5558C39.3735 53.5626 39.3238 53.4585 39.284 53.3218C39.2442 53.1852 39.2309 53.0674 39.2525 53.0605Z" fill="#455A64"/>
<path d="M38.9653 52.0701C38.9868 52.0701 39.0383 52.1692 39.0781 52.3058C39.1179 52.4424 39.1312 52.5586 39.1096 52.5654C39.088 52.5722 39.035 52.468 38.9951 52.3314C38.9553 52.1948 38.9421 52.077 38.9653 52.0701Z" fill="#455A64"/>
<path d="M38.6769 51.0795C38.6985 51.0795 38.7499 51.1769 38.7897 51.3152C38.8295 51.4535 38.8428 51.5679 38.8212 51.5748C38.7997 51.5816 38.7466 51.4774 38.7068 51.3408C38.667 51.2042 38.662 51.0864 38.6769 51.0795Z" fill="#455A64"/>
<path d="M38.3881 50.0891C38.4097 50.0891 38.4611 50.1864 38.5009 50.323C38.5407 50.4596 38.554 50.5775 38.5324 50.5843C38.5109 50.5911 38.4578 50.487 38.418 50.3486C38.3782 50.2103 38.3649 50.0959 38.3881 50.0891Z" fill="#455A64"/>
<path d="M38.0996 49.1053C38.1211 49.1053 38.1726 49.2027 38.2124 49.3393C38.2522 49.4759 38.2654 49.5938 38.2439 49.6006C38.2223 49.6074 38.1692 49.5016 38.1294 49.3649C38.0896 49.2283 38.0763 49.1053 38.0996 49.1053Z" fill="#455A64"/>
<path d="M37.811 48.108C37.8326 48.108 37.884 48.2053 37.9238 48.3419C37.9636 48.4786 37.9769 48.5964 37.9553 48.6032C37.9337 48.6101 37.8807 48.5042 37.8408 48.3676C37.801 48.2309 37.7878 48.1148 37.811 48.108Z" fill="#455A64"/>
<path d="M37.5224 47.1175C37.5456 47.1175 37.5954 47.2148 37.6352 47.3515C37.675 47.4881 37.6899 47.6059 37.6667 47.6128C37.6435 47.6196 37.5921 47.5137 37.5523 47.3771C37.5125 47.2405 37.5008 47.1243 37.5224 47.1175Z" fill="#455A64"/>
<path d="M37.2336 46.1269C37.2568 46.1184 37.3066 46.2243 37.3464 46.3609C37.3862 46.4975 37.4011 46.6137 37.3779 46.6222C37.3547 46.6307 37.3033 46.5231 37.2635 46.3865C37.2236 46.2499 37.2104 46.1338 37.2336 46.1269Z" fill="#455A64"/>
<path d="M36.945 45.1348C36.9682 45.1348 37.018 45.2338 37.0578 45.3704C37.0976 45.5071 37.1126 45.6232 37.0893 45.6317C37.0661 45.6403 37.0147 45.5327 36.9749 45.3961C36.9351 45.2594 36.9218 45.1433 36.945 45.1348Z" fill="#455A64"/>
<path d="M36.6564 44.1528C36.6797 44.1528 36.7294 44.2518 36.7692 44.3884C36.8091 44.5251 36.824 44.6412 36.8008 44.648C36.7775 44.6549 36.7261 44.5507 36.6863 44.4141C36.6465 44.2774 36.6332 44.1528 36.6564 44.1528Z" fill="#455A64"/>
<path d="M36.3679 43.1537C36.3911 43.1537 36.4409 43.2528 36.4807 43.3894C36.5205 43.526 36.5354 43.6422 36.5122 43.649C36.489 43.6558 36.4376 43.5517 36.3977 43.415C36.3579 43.2784 36.3397 43.1606 36.3679 43.1537Z" fill="#455A64"/>
<path d="M36.0792 42.1633C36.1024 42.1633 36.1522 42.2623 36.192 42.3989C36.2318 42.5356 36.2467 42.6517 36.2235 42.6585C36.2003 42.6654 36.1505 42.5612 36.109 42.4246C36.0676 42.2879 36.056 42.1701 36.0792 42.1633Z" fill="#455A64"/>
<path d="M35.7905 41.1727C35.8138 41.1727 35.8635 41.2718 35.9033 41.4084C35.9431 41.545 35.9581 41.6612 35.9349 41.668C35.9116 41.6748 35.8619 41.5706 35.8221 41.434C35.7823 41.2974 35.7673 41.1796 35.7905 41.1727Z" fill="#455A64"/>
<path d="M35.5103 40.1822C35.5335 40.1822 35.5833 40.2795 35.6231 40.4179C35.6629 40.5562 35.6778 40.6706 35.6546 40.6774C35.6314 40.6843 35.5816 40.5801 35.5418 40.4435C35.502 40.3069 35.4788 40.189 35.5103 40.1822Z" fill="#455A64"/>
<path d="M35.2136 39.2002C35.2369 39.2002 35.2866 39.2975 35.3281 39.4342C35.3696 39.5708 35.3812 39.6886 35.358 39.6955C35.3347 39.7023 35.285 39.5981 35.2452 39.4598C35.2054 39.3214 35.1904 39.2002 35.2136 39.2002Z" fill="#455A64"/>
<path d="M34.9246 38.2012C34.9478 38.2012 34.9992 38.2986 35.039 38.4352C35.0789 38.5718 35.0921 38.6897 35.0689 38.6965C35.0457 38.7033 34.9959 38.5974 34.9561 38.4608C34.9163 38.3242 34.9014 38.2081 34.9246 38.2012Z" fill="#455A64"/>
<path d="M34.636 37.2107C34.6592 37.2107 34.7107 37.308 34.7505 37.4447C34.7903 37.5813 34.8035 37.6991 34.7803 37.7059C34.7571 37.7128 34.7073 37.6069 34.6675 37.4703C34.6277 37.3337 34.6128 37.2175 34.636 37.2107Z" fill="#455A64"/>
<path d="M34.3489 36.2202C34.3721 36.2202 34.4235 36.3175 34.4634 36.4541C34.5032 36.5907 34.5164 36.7086 34.4932 36.7154C34.47 36.7222 34.4202 36.6164 34.3804 36.4797C34.3406 36.3431 34.324 36.227 34.3489 36.2202Z" fill="#455A64"/>
<path d="M34.0591 35.2296C34.0823 35.2211 34.1338 35.327 34.1736 35.4636C34.2134 35.6002 34.2266 35.7163 34.2034 35.7249C34.1802 35.7334 34.1304 35.6258 34.0906 35.4892C34.0508 35.3526 34.0359 35.2364 34.0591 35.2296Z" fill="#455A64"/>
<path d="M33.7703 34.2374C33.7935 34.2374 33.8449 34.3365 33.8847 34.4731C33.9246 34.6097 33.9378 34.7259 33.9146 34.7344C33.8914 34.7429 33.8416 34.6353 33.8018 34.4987C33.762 34.3621 33.7487 34.2477 33.7703 34.2374Z" fill="#455A64"/>
<path d="M33.5545 33.498C33.5777 33.498 33.6126 33.539 33.6325 33.6073C33.6524 33.6756 33.6491 33.7354 33.6325 33.7422C33.6159 33.749 33.5761 33.7012 33.5562 33.6329C33.5363 33.5646 33.5313 33.5048 33.5545 33.498Z" fill="#455A64"/>
<path d="M30.5687 63.1604C30.5919 63.1604 30.6135 63.2151 30.6185 63.2851C30.6234 63.3551 30.6052 63.4149 30.5803 63.4166C30.5554 63.4183 30.5355 63.3619 30.5322 63.2902C30.5289 63.2185 30.5438 63.1621 30.5687 63.1604Z" fill="#455A64"/>
<path d="M30.5338 62.1443C30.557 62.1443 30.5819 62.2554 30.5869 62.3971C30.5919 62.5388 30.5769 62.6516 30.552 62.6516C30.5272 62.6516 30.5056 62.5406 30.5006 62.4005C30.4956 62.2605 30.5039 62.1443 30.5338 62.1443Z" fill="#455A64"/>
<path d="M30.4976 61.1281C30.5209 61.1281 30.5441 61.2391 30.5474 61.3809C30.5507 61.5226 30.5358 61.6353 30.5109 61.6353C30.486 61.6353 30.4645 61.5226 30.4612 61.3826C30.4578 61.2425 30.4728 61.1281 30.4976 61.1281Z" fill="#455A64"/>
<path d="M30.4727 60.1103C30.4959 60.1103 30.5174 60.223 30.5208 60.363C30.5241 60.5031 30.5075 60.6175 30.4843 60.6192C30.461 60.6209 30.4378 60.5065 30.4345 60.3665C30.4312 60.2264 30.4478 60.1103 30.4727 60.1103Z" fill="#455A64"/>
<path d="M30.4478 59.0925C30.4727 59.0925 30.4942 59.2052 30.4976 59.347C30.5009 59.4887 30.4843 59.6015 30.4611 59.6015C30.4378 59.6015 30.4146 59.4887 30.4113 59.3487C30.408 59.2087 30.4246 59.0942 30.4478 59.0925Z" fill="#455A64"/>
<path d="M30.4229 58.0746C30.4461 58.0746 30.4694 58.1874 30.4727 58.3291C30.476 58.4709 30.4594 58.5836 30.4362 58.5836C30.413 58.5836 30.3897 58.4709 30.3864 58.3308C30.3831 58.1908 30.3997 58.0764 30.4229 58.0746Z" fill="#455A64"/>
<path d="M30.3896 57.0585C30.4145 57.0585 30.4377 57.1695 30.4427 57.3113C30.4477 57.453 30.4311 57.5657 30.4078 57.5675C30.3846 57.5692 30.3597 57.4547 30.3564 57.3147C30.3531 57.1747 30.368 57.0585 30.3896 57.0585Z" fill="#455A64"/>
<path d="M30.3481 56.0424C30.373 56.0424 30.3962 56.1534 30.4029 56.2935C30.4095 56.4335 30.3929 56.5496 30.3697 56.5496C30.3465 56.5496 30.3216 56.4386 30.315 56.2969C30.3083 56.1551 30.3249 56.0424 30.3481 56.0424Z" fill="#455A64"/>
<path d="M30.3103 55.0245C30.3335 55.0245 30.3584 55.1372 30.3633 55.2772C30.3683 55.4173 30.3534 55.5317 30.3285 55.5334C30.3036 55.5351 30.2821 55.4207 30.2771 55.2806C30.2721 55.1406 30.287 55.0262 30.3103 55.0245Z" fill="#455A64"/>
<path d="M30.2752 54.0084C30.3001 54.0084 30.3233 54.1211 30.3266 54.2612C30.33 54.4012 30.3167 54.5156 30.2918 54.5173C30.2669 54.5191 30.2454 54.4046 30.2404 54.2646C30.2354 54.1246 30.252 54.0101 30.2752 54.0084Z" fill="#455A64"/>
<path d="M30.2456 52.9906C30.2688 52.9906 30.292 53.1033 30.2953 53.2434C30.2986 53.3834 30.2837 53.4978 30.2605 53.4995C30.2373 53.5012 30.2141 53.3868 30.2091 53.2468C30.2041 53.1067 30.2223 52.9923 30.2456 52.9906Z" fill="#455A64"/>
<path d="M30.2187 51.9744C30.2436 51.9744 30.2651 52.0871 30.2685 52.2271C30.2718 52.3672 30.2552 52.4816 30.232 52.4816C30.2087 52.4816 30.1855 52.3689 30.1822 52.2288C30.1789 52.0888 30.2021 51.9744 30.2187 51.9744Z" fill="#455A64"/>
<path d="M30.2021 50.9566C30.2253 50.9566 30.2469 51.0693 30.2502 51.2111C30.2535 51.3528 30.2353 51.4655 30.2121 51.4655C30.1889 51.4655 30.1656 51.3528 30.164 51.2128C30.1623 51.0727 30.1739 50.9566 30.2021 50.9566Z" fill="#455A64"/>
<path d="M30.1823 49.9404C30.2055 49.9404 30.227 50.0531 30.2287 50.1932C30.2304 50.3332 30.2138 50.4476 30.1889 50.4476C30.164 50.4476 30.1441 50.3349 30.1424 50.1949C30.1408 50.0548 30.1574 49.9404 30.1823 49.9404Z" fill="#455A64"/>
<path d="M30.1691 48.9226C30.1939 48.9226 30.2138 49.0353 30.2155 49.1771C30.2172 49.3188 30.1989 49.4315 30.1757 49.4315C30.1525 49.4315 30.1309 49.3171 30.1293 49.1771C30.1276 49.037 30.1458 48.9226 30.1691 48.9226Z" fill="#455A64"/>
<path d="M30.1624 47.9099C30.1873 47.9099 30.2072 48.0243 30.2072 48.1644C30.2072 48.3044 30.189 48.4188 30.1657 48.4188C30.1425 48.4188 30.1226 48.3061 30.1209 48.1644C30.1193 48.0226 30.1392 47.9099 30.1624 47.9099Z" fill="#455A64"/>
<path d="M30.1608 46.8853C30.184 46.8853 30.2039 46.998 30.2039 47.1397C30.2039 47.2815 30.1857 47.3925 30.1608 47.3942C30.1359 47.3959 30.1177 47.2797 30.1177 47.1397C30.1177 46.9997 30.1376 46.8853 30.1608 46.8853Z" fill="#455A64"/>
<path d="M30.1639 45.8708C30.1872 45.8708 30.2054 45.9853 30.2054 46.1253C30.2054 46.2653 30.1855 46.3798 30.1606 46.3798C30.1357 46.3798 30.1191 46.2653 30.1191 46.1253C30.1191 45.9853 30.139 45.8708 30.1639 45.8708Z" fill="#455A64"/>
<path d="M30.1706 44.853C30.1955 44.853 30.2137 44.9674 30.2121 45.1075C30.2104 45.2475 30.1905 45.3619 30.1673 45.3619C30.1441 45.3619 30.1242 45.2475 30.1258 45.1075C30.1275 44.9674 30.1474 44.853 30.1706 44.853Z" fill="#455A64"/>
<path d="M30.1838 43.8369C30.207 43.8369 30.2252 43.9513 30.2236 44.0913C30.2219 44.2314 30.2003 44.3458 30.1771 44.3458C30.1539 44.3458 30.1357 44.2314 30.1373 44.0896C30.139 43.9479 30.1605 43.8369 30.1838 43.8369Z" fill="#455A64"/>
<path d="M30.2021 42.8191C30.2253 42.8191 30.2419 42.9352 30.2402 43.0753C30.2386 43.2153 30.2153 43.328 30.1921 43.328C30.1689 43.328 30.1506 43.2136 30.154 43.0735C30.1573 42.9335 30.1772 42.8191 30.2021 42.8191Z" fill="#455A64"/>
<path d="M30.2237 41.8011C30.247 41.8011 30.2636 41.9173 30.2602 42.0573C30.2569 42.1974 30.2354 42.3118 30.2121 42.3101C30.1889 42.3084 30.1707 42.1956 30.174 42.0556C30.1773 41.9156 30.2022 41.8011 30.2237 41.8011Z" fill="#455A64"/>
<path d="M30.2587 40.7833C30.2819 40.7833 30.2969 40.8995 30.2919 41.0395C30.2869 41.1795 30.2637 41.294 30.2388 41.2923C30.2139 41.2905 30.2006 41.1778 30.2056 41.0361C30.2106 40.8943 30.2355 40.7833 30.2587 40.7833Z" fill="#455A64"/>
<path d="M30.3165 39.7689C30.3397 39.7689 30.3513 39.8851 30.343 40.0251C30.3347 40.1651 30.3082 40.2779 30.2833 40.2761C30.2584 40.2744 30.2485 40.16 30.2568 40.0183C30.2651 39.8765 30.2916 39.7655 30.3165 39.7689Z" fill="#455A64"/>
<path d="M30.4064 38.7544C30.4313 38.7544 30.4379 38.8722 30.4246 39.0123C30.4114 39.1523 30.3798 39.2633 30.3566 39.2616C30.3334 39.2599 30.3251 39.1438 30.3384 39.0038C30.3516 38.8637 30.3832 38.7527 30.4064 38.7544Z" fill="#455A64"/>
<path d="M30.5023 38.0047C30.5255 38.0047 30.5371 38.0679 30.5272 38.1362C30.5172 38.2045 30.4907 38.2609 30.4674 38.2574C30.4442 38.254 30.4326 38.1943 30.4409 38.1242C30.4492 38.0542 30.4791 37.9944 30.5023 38.0047Z" fill="#455A64"/>
<path d="M26.7703 63.4627L31.4745 63.5413L31.438 62.7335L26.7703 62.7591V63.4627Z" fill="#455A64"/>
<path d="M29.8553 33.1905C29.8719 33.2512 29.8814 33.3137 29.8835 33.3766C29.8952 33.4979 29.9117 33.6721 29.9283 33.889C29.9615 34.321 30.003 34.9136 30.0411 35.5763C30.061 35.9042 30.0776 36.2184 30.0942 36.5053C30.0914 36.7557 30.1204 37.0055 30.1805 37.2482C30.2294 37.4066 30.3374 37.5387 30.4807 37.6154C30.5345 37.6371 30.59 37.6542 30.6466 37.6666C30.6308 37.6705 30.6143 37.6705 30.5985 37.6666C30.552 37.6666 30.5059 37.658 30.4624 37.641C30.3829 37.6058 30.3112 37.5541 30.2519 37.4892C30.1925 37.4242 30.1467 37.3474 30.1174 37.2636C30.0473 37.0166 30.011 36.7608 30.0096 36.5036C29.9914 36.2167 29.9715 35.9024 29.9515 35.5746C29.9117 34.9153 29.8802 34.3193 29.862 33.8873C29.852 33.6704 29.847 33.4962 29.8454 33.3749C29.8406 33.3133 29.8439 33.2512 29.8553 33.1905Z" fill="#455A64"/>
<path d="M30.3115 33.5953C30.3115 33.6072 30.275 33.638 30.2701 33.7097C30.2688 33.7286 30.2713 33.7475 30.2773 33.7654C30.2832 33.7833 30.2926 33.7998 30.3049 33.8139C30.3207 33.8278 30.34 33.8367 30.3606 33.8398C30.3811 33.8428 30.4021 33.8397 30.421 33.8309C30.4408 33.8239 30.4582 33.8111 30.4711 33.7941C30.484 33.7772 30.492 33.7568 30.494 33.7353C30.4933 33.7164 30.4887 33.6979 30.4808 33.6808C30.4728 33.6638 30.4615 33.6486 30.4476 33.6363C30.3961 33.5867 30.3431 33.597 30.3414 33.5833C30.3397 33.5696 30.3961 33.5321 30.4841 33.5833C30.509 33.5994 30.5301 33.6211 30.5456 33.6469C30.5612 33.6726 30.5707 33.7017 30.5736 33.7319C30.5736 33.7715 30.5621 33.8102 30.5405 33.843C30.519 33.8757 30.4884 33.9011 30.4527 33.9158C30.417 33.9305 30.3778 33.9339 30.3402 33.9254C30.3026 33.917 30.2684 33.8972 30.2419 33.8685C30.223 33.8451 30.2099 33.8174 30.2036 33.7877C30.1972 33.758 30.1978 33.7271 30.2054 33.6977C30.2386 33.5987 30.3115 33.585 30.3115 33.5953Z" fill="#455A64"/>
<path d="M34.4985 34.3194C34.3878 34.3968 34.2612 34.4465 34.1286 34.4645C33.8093 34.5307 33.478 34.4927 33.1806 34.3559C32.8833 34.219 32.6349 33.9902 32.4698 33.7011C32.3938 33.5875 32.3449 33.4571 32.3271 33.3203C32.3421 33.3203 32.3869 33.4638 32.5212 33.6619C32.6913 33.9285 32.9319 34.1395 33.2146 34.2699C33.4974 34.4003 33.8105 34.4447 34.117 34.3979C34.3492 34.3689 34.4935 34.3057 34.4985 34.3194Z" fill="#455A64"/>
<path d="M27.1004 33.1905C27.1222 33.3006 27.1165 33.4146 27.0839 33.5218C27.0238 33.7868 26.8845 34.0257 26.6857 34.2049C26.4858 34.3845 26.2365 34.4955 25.9725 34.5226C25.8653 34.5418 25.755 34.5324 25.6523 34.4952C25.6523 34.4799 25.7767 34.4952 25.9658 34.4594C26.2115 34.4173 26.4411 34.3062 26.6294 34.1383C26.8147 33.9672 26.9516 33.7477 27.0258 33.503C27.0822 33.3169 27.0855 33.1905 27.1004 33.1905Z" fill="#455A64"/>
<path d="M40.9595 44.4913L42.1451 63.1621L44.8967 62.8485C44.8967 62.8485 44.9642 44.6405 44.8358 44.6574C44.7073 44.6744 40.9595 44.4913 40.9595 44.4913Z" fill="#FFBE9D"/>
<path d="M35.1893 44.3794L32.0952 62.8892L34.5405 63.2723L38.8269 45.2593L35.1893 44.3794Z" fill="#FFBE9D"/>
<path d="M36.1032 32.7476L31.8811 57.7014L36.775 58.7932L40.49 37.993L41.3215 58.2304H45.8664L45.0496 31.983L36.1032 32.7476Z" fill="#263238"/>
<path d="M36.8408 58.8949L31.7871 57.7675L31.8003 57.6878L36.0323 32.6679H36.0965L45.1302 31.8965V31.9847L45.9535 58.3202H41.244V58.2405L40.4388 38.7491L36.8408 58.8949ZM31.9765 57.6353L36.709 58.6915L40.5409 37.2369L41.4004 58.1456H45.7823L44.9704 32.0746L36.1722 32.8256L31.9765 57.6353Z" fill="#263238"/>
<path d="M41.7811 37.9676C41.7272 37.982 41.672 37.99 41.6164 37.9913L41.1636 38.0269C40.7799 38.054 40.2496 38.0812 39.6667 38.1405C39.0838 38.1998 38.5601 38.2795 38.1847 38.3304L37.7335 38.388C37.6793 38.3991 37.6238 38.4019 37.5688 38.3965C37.6218 38.3753 37.6771 38.3611 37.7335 38.3541C37.8389 38.3321 37.992 38.3015 38.1814 38.2676C38.5618 38.2015 39.0854 38.1117 39.6717 38.0523C40.2579 37.993 40.7898 37.976 41.1734 37.9642C41.3661 37.9642 41.5209 37.9642 41.6296 37.9642C41.68 37.9582 41.7309 37.9593 41.7811 37.9676Z" fill="#455A64"/>
<path d="M45.1453 36.045C45.1098 36.0631 45.0712 36.074 45.0317 36.0772C44.9265 36.0933 44.82 36.0984 44.7139 36.0925C44.3589 36.0759 44.0164 35.9534 43.7278 35.74C43.4393 35.5266 43.2172 35.2315 43.0886 34.8905C43.0488 34.7888 43.0195 34.6831 43.0013 34.5751C42.9934 34.5354 42.9934 34.4945 43.0013 34.4548C43.0161 34.4548 43.0425 34.6243 43.1512 34.865C43.2896 35.1855 43.5084 35.4623 43.785 35.667C44.0617 35.8716 44.3862 35.9968 44.7254 36.0297C44.979 36.0586 45.142 36.0297 45.1453 36.045Z" fill="#455A64"/>
<path d="M45.9307 57.1859C45.9307 57.2097 44.9031 57.1758 43.6385 57.1097C42.3738 57.0435 41.348 56.9706 41.3496 56.9401C41.3513 56.9096 42.3771 56.9503 43.6434 57.0164C44.9097 57.0825 45.9323 57.1605 45.9307 57.1859Z" fill="#455A64"/>
<path d="M37.0798 57.3098C37.0135 57.3005 36.9484 57.284 36.8855 57.2606L36.3651 57.0996C35.9255 56.9639 35.3178 56.7842 34.6394 56.6079C33.961 56.4316 33.3418 56.2943 32.8939 56.1993L32.3604 56.0857C32.2944 56.0769 32.2297 56.0598 32.1677 56.0349C32.2345 56.0344 32.3012 56.0401 32.367 56.0518C32.4938 56.0688 32.6782 56.0976 32.9038 56.1366C33.3566 56.2163 33.9807 56.3451 34.6608 56.5214C35.3409 56.6978 35.9485 56.8893 36.3832 57.0402C36.6006 57.1148 36.7768 57.1792 36.8953 57.2284C36.9593 57.2492 37.021 57.2765 37.0798 57.3098Z" fill="#455A64"/>
<path d="M32.1415 62.3416L31.7266 64.0742L34.5885 64.4065L34.6922 62.6891L32.1415 62.3416Z" fill="#FF725E"/>
<path d="M33.4342 62.4263C33.4315 62.6946 33.4001 62.9618 33.3404 63.2231C33.3081 63.4895 33.248 63.7515 33.1609 64.0046C33.1637 63.7368 33.1952 63.4702 33.2547 63.2095C33.2871 62.9426 33.3473 62.68 33.4342 62.4263Z" fill="#263238"/>
<path d="M34.5996 64.2166C34.4602 64.2135 34.3213 64.1976 34.1846 64.1691L33.1966 64.0182C32.8097 63.9572 32.4589 63.8962 32.2086 63.8487C32.071 63.8282 31.9357 63.793 31.8052 63.7436C31.9447 63.7468 32.0836 63.7633 32.2201 63.7928L33.2081 63.9436C33.5951 64.003 33.9459 64.064 34.1962 64.1132C34.3338 64.1331 34.469 64.1678 34.5996 64.2166Z" fill="#263238"/>
<path d="M45.2309 63.1079L45.221 62.7689L42.0923 62.8485L42.112 63.9742L42.3047 63.9827C43.1643 64.0115 46.6717 64.0675 47.2448 63.8759C47.8837 63.6589 45.2309 63.1079 45.2309 63.1079Z" fill="#FF725E"/>
<g opacity="0.4">
<path opacity="0.4" d="M43.2466 63.9199C43.197 63.6487 43.05 63.4066 42.8349 63.2418C42.6264 63.0773 42.3653 62.9998 42.1038 63.0248L42.1235 63.9199H43.2466Z" fill="white"/>
</g>
<g opacity="0.4">
<path opacity="0.4" d="M46.528 63.4249C46.528 63.4249 47.4584 63.6792 47.3513 63.8385C47.2443 63.9979 43.6924 64.0776 42.1248 63.9725V63.8996L46.2629 63.8436C46.2629 63.8436 46.3468 63.4367 46.528 63.4249Z" fill="white"/>
</g>
<path d="M42.0757 63.8995H42.1284H42.2815L42.848 63.9131C43.3239 63.9131 43.9842 63.9131 44.712 63.9046C45.4399 63.8961 46.1002 63.8588 46.5761 63.8317L47.1409 63.7978L47.294 63.7842H47.3467H47.2924H47.1392L46.5744 63.808C46.0985 63.83 45.4399 63.8537 44.712 63.8707C43.9842 63.8877 43.3255 63.8894 42.848 63.8894H42.1284C42.1106 63.8913 42.093 63.8947 42.0757 63.8995Z" fill="#263238"/>
<path d="M46.2617 63.8928C46.2851 63.796 46.3188 63.7022 46.3622 63.613C46.4159 63.53 46.4789 63.4538 46.5499 63.3859C46.4539 63.4241 46.3752 63.4979 46.3293 63.5927C46.2727 63.6812 46.2488 63.7877 46.2617 63.8928Z" fill="#263238"/>
<path d="M45.3296 63.435C45.3378 63.435 45.3806 63.3842 45.4235 63.3096C45.4553 63.2672 45.4773 63.2179 45.4877 63.1655C45.4778 63.1655 45.435 63.2146 45.3922 63.2892C45.3494 63.3638 45.3296 63.43 45.3296 63.435Z" fill="#263238"/>
<path d="M45.0809 63.3028C45.0809 63.3113 45.1368 63.2774 45.1895 63.2265C45.2422 63.1757 45.2785 63.1282 45.2702 63.1197C45.262 63.1112 45.2159 63.1468 45.1632 63.1977C45.1105 63.2486 45.0743 63.2892 45.0809 63.3028Z" fill="#263238"/>
<path d="M44.9163 63.0061C44.9694 63.0237 45.0255 63.0295 45.081 63.0231C45.1715 63.0231 45.2456 63.0129 45.2456 63.001C45.1927 62.9828 45.1364 62.977 45.081 62.9841C44.9887 62.9858 44.9146 62.9942 44.9163 63.0061Z" fill="#263238"/>
<path d="M44.8572 62.7942C44.9138 62.8231 44.9756 62.8399 45.0387 62.8434C45.1019 62.8468 45.1651 62.837 45.2244 62.8145C45.1634 62.8049 45.1016 62.8015 45.04 62.8043C44.9796 62.7941 44.9183 62.7907 44.8572 62.7942Z" fill="#263238"/>
<path d="M45.4351 63.1536C45.501 63.165 45.5684 63.165 45.6343 63.1536C45.7065 63.1428 45.7776 63.1253 45.8467 63.101C45.8885 63.0874 45.9288 63.0692 45.9669 63.0468C45.9905 63.0326 46.0076 63.0095 46.0147 62.9824C46.0175 62.9671 46.0161 62.9514 46.0106 62.937C46.005 62.9225 45.9956 62.9101 45.9834 62.901C45.9336 62.8777 45.8794 62.866 45.8247 62.8669C45.77 62.8677 45.7162 62.881 45.667 62.9058C45.6179 62.9306 45.5747 62.9663 45.5406 63.0103C45.5065 63.0543 45.4822 63.1056 45.4696 63.1604C45.4696 63.1943 45.4696 63.2146 45.4696 63.2146C45.489 63.1533 45.5185 63.096 45.5569 63.0451C45.5997 62.9902 45.6568 62.949 45.7216 62.9264C45.7996 62.898 45.8853 62.9023 45.9603 62.9383C45.9916 62.962 45.9801 63.001 45.9455 63.023C45.9099 63.0437 45.8724 63.0608 45.8336 63.0739C45.767 63.0993 45.6988 63.1197 45.6294 63.1349C45.5108 63.1451 45.4351 63.1468 45.4351 63.1536Z" fill="#263238"/>
<path d="M45.4944 63.1622C45.5181 63.119 45.5258 63.0683 45.5158 63.0198C45.5081 62.9661 45.4884 62.915 45.4581 62.8706C45.441 62.8409 45.417 62.8161 45.3883 62.7983C45.3595 62.7806 45.327 62.7705 45.2935 62.7689C45.2735 62.7741 45.2562 62.787 45.2451 62.805C45.2341 62.823 45.2302 62.8446 45.2342 62.8655C45.2402 62.8982 45.2525 62.9293 45.2704 62.957C45.2978 63.0017 45.3304 63.0427 45.3676 63.0791C45.4318 63.1401 45.4812 63.1639 45.4828 63.1588C45.4845 63.1537 45.4433 63.1232 45.3857 63.0605C45.3533 63.0228 45.3246 62.9819 45.3001 62.9384C45.2721 62.896 45.2507 62.818 45.3001 62.8079C45.3495 62.7977 45.4022 62.8519 45.4334 62.8909C45.4616 62.9311 45.4817 62.9766 45.4927 63.0249C45.4976 63.0705 45.4982 63.1165 45.4944 63.1622Z" fill="#263238"/>
<path d="M42.1204 63.0231C42.1204 63.0231 42.2093 63.0129 42.3493 63.0231C42.5326 63.04 42.7077 63.1093 42.8548 63.2231C43.0026 63.3389 43.1165 63.4943 43.1841 63.6724C43.2352 63.808 43.2418 63.8996 43.2483 63.8996C43.2519 63.8782 43.2519 63.8565 43.2483 63.8351C43.242 63.7773 43.2293 63.7204 43.2105 63.6656C43.1511 63.4787 43.0378 63.3148 42.8858 63.1957C42.7337 63.0767 42.55 63.0082 42.3591 62.9993C42.3044 62.9929 42.2492 62.9929 42.1945 62.9993C42.1686 63.0028 42.1435 63.0108 42.1204 63.0231Z" fill="#263238"/>
<path d="M43.6301 63.5995C43.9312 63.6532 44.2394 63.6491 44.5391 63.5876C44.5391 63.5774 44.3349 63.5876 44.0846 63.5978C43.8343 63.6079 43.6318 63.5893 43.6301 63.5995Z" fill="#263238"/>
<path d="M43.0241 63.6131C43.0159 63.6131 43.0406 63.6572 43.062 63.7046C43.0834 63.7521 43.0965 63.7945 43.1081 63.7928C43.1196 63.7911 43.1229 63.7419 43.0965 63.6877C43.0702 63.6334 43.0241 63.6046 43.0241 63.6131Z" fill="#263238"/>
<path d="M42.7856 63.3232C42.7856 63.3317 42.8005 63.3639 42.8334 63.3978C42.8663 63.4317 42.8976 63.4504 42.9059 63.4436C42.9141 63.4368 42.891 63.4029 42.8581 63.369C42.8252 63.3351 42.7939 63.3164 42.7856 63.3232Z" fill="#263238"/>
<path d="M42.4547 63.1977C42.4547 63.2079 42.4992 63.2062 42.5453 63.2215C42.5914 63.2367 42.6244 63.2621 42.6326 63.2537C42.6408 63.2452 42.6128 63.2028 42.5568 63.1859C42.5009 63.1689 42.4515 63.1875 42.4547 63.1977Z" fill="#263238"/>
<path d="M42.2207 63.1384C42.2207 63.1485 42.2339 63.1655 42.2602 63.174C42.2866 63.1825 42.3113 63.1842 42.3146 63.174C42.3179 63.1638 42.2997 63.1485 42.2734 63.1384C42.2471 63.1282 42.224 63.1282 42.2207 63.1384Z" fill="#263238"/>
<path d="M66.5069 67.073C66.5069 67.073 68.0725 69.4878 67.8569 70.4437C67.6413 71.3996 66.2656 71.1047 65.6137 70.075C64.9618 69.0454 63.3038 67.5075 63.6041 66.8466C63.9044 66.1856 65.9217 66.4858 66.5069 67.073Z" fill="white" stroke="#263238" stroke-width="1.02307" stroke-linecap="round" stroke-linejoin="round"/>
<path d="M59.78 66.9387C59.78 66.9387 57.8884 69.8195 58.1913 70.6069C58.4941 71.3943 59.4746 71.1599 60.224 70.4489C60.9734 69.7379 62.4697 67.7418 62.4697 67.7418C62.4697 67.7418 61.2121 66.1513 59.78 66.9387Z" fill="white" stroke="#263238" stroke-width="1.02307" stroke-linecap="round" stroke-linejoin="round"/>
<path d="M58.1912 70.607C58.7041 70.6795 59.226 70.5748 59.6746 70.3094C60.537 69.8617 62.041 67.842 62.041 67.842" stroke="#263238" stroke-width="0.767303" stroke-linecap="round" stroke-linejoin="round"/>
<path d="M64.1301 67.3285C64.1301 67.3285 64.9489 68.9085 65.8703 69.8038C66.7916 70.6992 67.2434 70.9546 67.8491 70.4437" stroke="#263238" stroke-width="0.767303" stroke-linecap="round" stroke-linejoin="round"/>
<path d="M57.1232 30.9885C57.1232 30.9885 55.4678 34.4539 55.5422 35.8707C55.6167 37.2874 55.9195 44.4553 56.3712 46.8174C56.8229 49.1795 57.267 55.0624 57.5749 57.4139C57.8829 59.7655 59.8566 65.2744 59.8566 65.2744C59.8566 65.2744 59.5538 66.5358 59.7796 66.9282C60.0055 67.3205 62.3949 67.9683 62.4694 67.7313C62.5438 67.4943 62.9211 66.7859 62.9827 66.0776C63.0443 65.3692 61.9304 57.8089 62.3821 56.1552C62.8338 54.5015 62.9211 43.3835 62.9827 42.2381C63.0443 41.0926 62.9647 39.0781 62.9647 39.0781C63.099 39.1204 63.2425 39.1208 63.3769 39.079C63.5113 39.0373 63.6305 38.9554 63.7193 38.8437C64.0196 38.4487 65.0154 49.1532 65.3183 51.6733C65.6211 54.1934 64.941 54.9017 64.7151 56.4765C64.4893 58.0512 63.9631 63.1678 63.9631 63.7998C63.9631 64.4318 63.2855 66.4752 63.5858 66.8702C63.8861 67.2652 64.5252 67.1994 64.787 67.2731C65.5724 67.497 66.1858 67.1467 66.486 67.0677C66.7863 66.9887 67.0404 65.8485 67.0404 65.8485C67.0404 65.8485 69.4581 58.8386 69.9098 55.9235C70.3615 53.0084 71.1136 47.5995 70.9647 44.2921C70.8158 40.9846 69.9098 34.2854 69.9098 34.2854L69.684 32.3157L57.1232 30.9885Z" fill="#263238" stroke="#263238" stroke-width="1.02307" stroke-linecap="round" stroke-linejoin="round"/>
<path d="M56.0661 34.9964C56.0661 34.9964 55.9198 36.9398 57.1595 38.2091" stroke="white" stroke-width="0.506629" stroke-linecap="round" stroke-linejoin="round"/>
<path d="M56.1379 37.7614C56.1379 37.7614 56.8668 39.0333 57.742 39.1808" stroke="white" stroke-width="0.506629" stroke-linecap="round" stroke-linejoin="round"/>
<path d="M61.9638 59.0283C61.9638 59.0283 60.9372 61.5405 60.7986 62.9124C60.66 64.2844 61.9638 63.7498 62.2564 64.6636C62.549 65.5773 60.5086 65.5036 60.873 65.7301C61.2375 65.9565 62.3283 66.1119 62.3283 66.1119" stroke="white" stroke-width="0.511535" stroke-linecap="round" stroke-linejoin="round"/>
<path d="M63.9402 65.2745C64.1583 65.1981 66.6351 64.7478 66.3425 63.3706C66.0499 61.9934 64.5947 61.9222 64.8026 60.3238C65.0104 58.7254 67.2767 55.2178 67.2767 54.2277C67.2767 53.2375 65.6752 49.5482 65.5289 47.2625" stroke="white" stroke-width="0.511535" stroke-linecap="round" stroke-linejoin="round"/>
<path d="M67.5 34.849C67.5 34.849 65.8241 37.3138 65.6059 37.6877C65.3877 38.0617 67.5719 36.0445 67.5719 36.0445" stroke="white" stroke-width="0.506629" stroke-linecap="round" stroke-linejoin="round"/>
<path d="M63.1165 33.9774C63.1165 33.9774 63.2987 35.7786 63.2987 36.1499V38.2012" stroke="white" stroke-width="0.506629" stroke-linecap="round" stroke-linejoin="round"/>
<path d="M63.2986 37.0847C63.2986 37.0847 64.0865 36.961 64.2662 36.3395C64.4458 35.718 64.3894 34.4751 64.3894 34.4751" stroke="white" stroke-width="0.506629" stroke-linecap="round" stroke-linejoin="round"/>
<path d="M64.3599 21.4435C64.3599 21.4435 64.4182 21.4435 64.5082 21.4848C64.63 21.5278 64.7325 21.6151 64.7964 21.7303L64.8314 21.7956L64.8514 21.7218C64.8814 21.6193 64.9282 21.5229 64.9897 21.4367C65.1105 21.2695 65.277 21.1433 65.4679 21.0743C65.6145 21.0193 65.7161 21.0228 65.7144 21.0108C65.6278 20.9916 65.5377 20.9981 65.4545 21.0297C65.2467 21.0878 65.0644 21.2175 64.938 21.3972C64.8709 21.4897 64.8217 21.5946 64.7931 21.7063L64.8497 21.6977C64.7748 21.5723 64.6552 21.4823 64.5165 21.447C64.4659 21.4291 64.4112 21.4279 64.3599 21.4435Z" fill="#A36957"/>
<path d="M81.3611 66.928C81.3611 66.928 76.6075 51.5369 76.5109 51.0561C76.4242 50.6199 78.1537 39.9602 78.3703 37.2004L72.2572 37.4357V37.482L69.658 37.6297L72.0722 68.7707L74.7381 68.7226L74.5148 57.8757C76.2493 62.6844 78.9151 67.9687 78.9151 67.9687L81.3611 66.928Z" fill="#B78876"/>
<path d="M74.6434 61.4805C74.6434 61.3878 74.6084 58.1128 74.6084 58.1128C74.5734 58.3086 73.5304 55.2688 73.5554 55.0833C73.5604 54.9872 74.6434 61.4805 74.6434 61.4805Z" fill="#A36957"/>
<path d="M73.4287 53.6442C73.414 53.7042 73.4078 53.7661 73.4103 53.8279C73.4013 53.995 73.4013 54.1624 73.4103 54.3294C73.4103 54.4359 73.4253 54.5527 73.4387 54.6729C73.452 54.7931 73.4703 54.9305 73.4986 55.0679C73.5556 55.3672 73.6324 55.6621 73.7286 55.9506C73.9319 56.562 74.1584 57.0995 74.3184 57.4876L74.5133 57.9462C74.535 58.0036 74.5629 58.0584 74.5966 58.1093C74.5882 58.0499 74.5713 57.992 74.5467 57.9376C74.51 57.826 74.4517 57.6645 74.38 57.467C74.2368 57.072 74.0202 56.5311 73.8185 55.9214C73.7235 55.6368 73.6451 55.3466 73.5836 55.0524C73.5553 54.9167 73.5353 54.7862 73.517 54.6643C73.4986 54.5423 73.4853 54.4273 73.4787 54.3208C73.4587 54.113 73.4503 53.9413 73.4453 53.8245C73.4461 53.7639 73.4405 53.7035 73.4287 53.6442Z" fill="#A36957"/>
<path d="M71.9322 68.8909V68.6195L74.8147 68.489L74.823 69.6139L74.6448 69.6259C73.8533 69.674 70.6193 69.8114 70.0895 69.6465C69.498 69.4645 71.9322 68.8909 71.9322 68.8909Z" fill="#455A64"/>
<path d="M74.8615 69.5453H74.8115L74.6699 69.5556L74.15 69.5796C73.7085 69.5985 73.1004 69.614 72.4289 69.6174C71.7574 69.6209 71.1476 69.6174 70.7078 69.5951L70.1862 69.5762L70.0446 69.5676H69.9946H70.1862L70.7078 69.5779C71.1476 69.5779 71.7574 69.5917 72.4289 69.5882C73.1004 69.5848 73.7085 69.5728 74.1484 69.5625L74.6699 69.5487H74.8115L74.8615 69.5453Z" fill="#263238"/>
<path d="M70.9978 69.6413C70.9755 69.5524 70.9431 69.4665 70.9011 69.3855C70.8484 69.3104 70.7881 69.2413 70.7212 69.1794C70.811 69.2125 70.8854 69.2793 70.9295 69.3666C70.9855 69.4458 71.01 69.5441 70.9978 69.6413Z" fill="#263238"/>
<path d="M71.8425 69.1949C71.8425 69.1949 71.7942 69.1503 71.7526 69.0816C71.7109 69.0129 71.6826 68.9545 71.6909 68.9493C71.6992 68.9442 71.7392 68.9957 71.7809 69.0627C71.8225 69.1296 71.8509 69.1898 71.8425 69.1949Z" fill="#263238"/>
<path d="M72.0741 69.0678C72.0741 69.0678 72.0224 69.0438 71.9741 68.9991C71.9258 68.9545 71.8891 68.9098 71.8958 68.9029C71.9025 68.8961 71.9474 68.927 71.9974 68.9716C72.0474 69.0163 72.0807 69.0609 72.0741 69.0678Z" fill="#263238"/>
<path d="M72.2206 68.7878C72.1728 68.8065 72.1215 68.8135 72.0706 68.8085C72.0201 68.8152 71.9688 68.8099 71.9207 68.793C71.9684 68.7744 72.0198 68.7673 72.0706 68.7724C72.1211 68.7673 72.1721 68.7726 72.2206 68.7878Z" fill="#263238"/>
<path d="M72.2705 68.5921C72.2212 68.6259 72.163 68.6433 72.1039 68.6419C72.0474 68.6511 71.9896 68.6434 71.9373 68.6196C71.9923 68.61 72.0481 68.6054 72.1039 68.6059C72.1588 68.5956 72.2147 68.591 72.2705 68.5921Z" fill="#263238"/>
<path d="M71.7442 68.9373C71.6837 68.9494 71.6215 68.9494 71.561 68.9373C71.4944 68.9288 71.4286 68.9145 71.3644 68.8944C71.3256 68.8825 71.2882 68.8663 71.2527 68.8463C71.2416 68.8402 71.2317 68.8319 71.2237 68.8219C71.2157 68.8119 71.2097 68.8003 71.2061 68.7879C71.203 68.7735 71.204 68.7586 71.2091 68.7449C71.2141 68.7312 71.2229 68.7192 71.2344 68.7106C71.3045 68.6739 71.3849 68.664 71.4615 68.6825C71.538 68.7011 71.6057 68.7469 71.6526 68.8119C71.6804 68.8499 71.7008 68.893 71.7126 68.939C71.7159 68.9554 71.7159 68.9724 71.7126 68.9888C71.6928 68.9307 71.6641 68.8762 71.6276 68.8274C71.5862 68.7778 71.5318 68.7414 71.471 68.7226C71.3984 68.6981 71.3193 68.7042 71.2511 68.7398C71.2211 68.7621 71.2327 68.7965 71.266 68.8171C71.2986 68.8362 71.3333 68.8512 71.3693 68.8617C71.431 68.8845 71.4946 68.9012 71.5593 68.9115C71.6743 68.9321 71.7442 68.9321 71.7442 68.9373Z" fill="#263238"/>
<path d="M71.6976 68.9477C71.6744 68.908 71.6667 68.8607 71.6759 68.8154C71.6808 68.7654 71.698 68.7175 71.7259 68.6763C71.7413 68.6481 71.7635 68.6244 71.7903 68.6076C71.8172 68.5907 71.8478 68.5813 71.8792 68.5801C71.8978 68.5843 71.9141 68.5957 71.9247 68.6121C71.9353 68.6284 71.9393 68.6484 71.9358 68.6677C71.9314 68.6978 71.9206 68.7266 71.9042 68.7519C71.8804 68.794 71.8513 68.8327 71.8175 68.8669C71.7893 68.9013 71.7532 68.9278 71.7125 68.9442C71.7125 68.9442 71.7492 68.9099 71.7992 68.8498C71.8289 68.8152 71.8546 68.7771 71.8758 68.7364C71.9025 68.6952 71.9192 68.6231 71.8758 68.6145C71.8325 68.6059 71.7825 68.6574 71.7542 68.6952C71.7292 68.7325 71.7117 68.7745 71.7026 68.8189C71.6963 68.8615 71.6947 68.9047 71.6976 68.9477Z" fill="#263238"/>
<path d="M74.8 68.7364C74.8 68.7364 74.7183 68.7364 74.5884 68.745C74.4196 68.7654 74.2598 68.8344 74.1272 68.9441C73.9946 69.0537 73.8946 69.1995 73.8386 69.3649C73.7953 69.492 73.792 69.5779 73.7853 69.5762C73.7819 69.5563 73.7819 69.5359 73.7853 69.516C73.7906 69.462 73.8006 69.4085 73.8153 69.3563C73.8666 69.1827 73.9675 69.0291 74.1048 68.9154C74.2421 68.8018 74.4095 68.7334 74.585 68.7192C74.6404 68.7128 74.6963 68.7128 74.7517 68.7192C74.7684 68.7229 74.7846 68.7286 74.8 68.7364Z" fill="#263238"/>
<path d="M73.4201 69.3099C73.2823 69.3414 73.1413 69.3552 73.0002 69.3512C72.8599 69.3575 72.7194 69.3454 72.582 69.3151C72.582 69.3048 72.7703 69.3151 73.0002 69.3151C73.2302 69.3151 73.4184 69.2996 73.4201 69.3099Z" fill="#263238"/>
<path d="M73.977 69.3031C73.977 69.3031 73.962 69.3443 73.9419 69.389C73.9219 69.4336 73.9135 69.4731 73.9035 69.4714C73.8935 69.4697 73.8885 69.425 73.9035 69.3735C73.9186 69.322 73.977 69.2962 73.977 69.3031Z" fill="#263238"/>
<path d="M74.1922 69.0317C74.1922 69.0317 74.1805 69.0695 74.1522 69.1004C74.1238 69.1313 74.092 69.1502 74.0854 69.1434C74.0787 69.1365 74.097 69.1056 74.1271 69.0747C74.1572 69.0438 74.1856 69.0249 74.1922 69.0317Z" fill="#263238"/>
<path d="M74.4948 68.9064C74.4948 68.915 74.4548 68.915 74.4132 68.9305C74.3715 68.9459 74.3399 68.97 74.3332 68.9631C74.3265 68.9562 74.3482 68.915 74.4015 68.8978C74.4548 68.8807 74.4982 68.8961 74.4948 68.9064Z" fill="#263238"/>
<path d="M74.7102 68.8463C74.7102 68.8549 74.6985 68.8703 74.6734 68.8806C74.6484 68.8909 74.6283 68.8909 74.625 68.8806C74.6216 68.8703 74.6367 68.8566 74.6617 68.8463C74.6868 68.836 74.7068 68.8377 74.7102 68.8463Z" fill="#263238"/>
<path d="M78.8637 68.2693L78.7537 68.022L81.3313 66.6876L81.7845 67.7077L81.6278 67.7953C80.9247 68.1714 78.0289 69.6638 77.4808 69.7376C76.8693 69.82 78.8637 68.2693 78.8637 68.2693Z" fill="#455A64"/>
<path d="M81.7946 67.6287C81.7946 67.6287 81.7813 67.639 81.7529 67.6545L81.6263 67.7232L81.1614 67.967C80.7666 68.168 80.2184 68.441 79.6069 68.7278C78.9954 69.0146 78.4406 69.2602 78.0274 69.4337L77.5442 69.6346L77.4126 69.6879C77.3973 69.6955 77.381 69.7007 77.3643 69.7033L77.4092 69.681L77.5392 69.6226L78.0191 69.4096C78.4223 69.2379 78.9804 68.9803 79.5919 68.6952C80.2034 68.4101 80.7582 68.1405 81.1514 67.943L81.6213 67.7112L81.7496 67.6493L81.7946 67.6287Z" fill="#263238"/>
<path d="M78.3086 69.3478C78.2525 69.2759 78.1882 69.2113 78.117 69.1554C78.0407 69.108 77.959 69.0705 77.8738 69.0438C77.9676 69.0431 78.0594 69.0718 78.1371 69.1261C78.2147 69.1803 78.2746 69.2577 78.3086 69.3478Z" fill="#263238"/>
<path d="M78.902 68.5853C78.8559 68.5727 78.8128 68.5505 78.7754 68.52C78.7087 68.4753 78.6604 68.4324 78.6654 68.4255C78.6704 68.4187 78.7287 68.4462 78.7937 68.4891C78.8587 68.532 78.907 68.5767 78.902 68.5853Z" fill="#263238"/>
<path d="M79.0638 68.3706C79.0638 68.3792 79.0072 68.3706 78.9439 68.35C78.8805 68.3294 78.8306 68.3053 78.8339 68.295C78.8372 68.2847 78.8905 68.295 78.9538 68.3156C79.0172 68.3362 79.0655 68.3603 79.0638 68.3706Z" fill="#263238"/>
<path d="M79.0853 68.0546C79.0053 68.1184 78.9126 68.163 78.8137 68.1851C78.8137 68.1748 78.867 68.1387 78.942 68.1027C79.017 68.0666 79.0803 68.0443 79.0853 68.0546Z" fill="#263238"/>
<path d="M79.0519 67.8537C79.0519 67.8537 79.0053 67.9224 78.9203 67.9705C78.8709 68.0043 78.8129 68.0222 78.7537 68.022C78.8007 67.9887 78.851 67.9605 78.9036 67.9378C78.9853 67.8932 79.0452 67.8451 79.0519 67.8537Z" fill="#263238"/>
<path d="M78.7106 68.3912C78.6597 68.4266 78.6034 68.4527 78.544 68.4685C78.4798 68.489 78.414 68.5034 78.3474 68.5115C78.307 68.5167 78.2661 68.5167 78.2257 68.5115C78.2132 68.5104 78.2011 68.5069 78.1899 68.501C78.1788 68.4951 78.1688 68.487 78.1607 68.4771C78.1533 68.465 78.1494 68.451 78.1494 68.4367C78.1494 68.4225 78.1533 68.4085 78.1607 68.3964C78.2101 68.3334 78.2795 68.2904 78.3566 68.275C78.4337 68.2596 78.5137 68.2728 78.5823 68.3122C78.6229 68.3342 78.6586 68.3646 78.6873 68.4015C78.7073 68.4273 78.7139 68.4445 78.7122 68.4462C78.6721 68.4011 78.6248 68.3633 78.5723 68.3346C78.5141 68.3065 78.4493 68.2964 78.3857 68.3054C78.3099 68.3137 78.2404 68.3526 78.1924 68.4136C78.1741 68.4462 78.1924 68.4737 78.2374 68.4771C78.2745 68.4805 78.3119 68.4805 78.349 68.4771C78.4142 68.4708 78.4788 68.4593 78.5423 68.4428C78.6423 68.4153 78.7089 68.3861 78.7106 68.3912Z" fill="#263238"/>
<path d="M78.6707 68.4204C78.6353 68.3926 78.61 68.3533 78.5991 68.3088C78.5836 68.2612 78.5801 68.2104 78.5891 68.1611C78.592 68.1288 78.6029 68.0978 78.6207 68.0711C78.6385 68.0443 78.6626 68.0227 78.6907 68.0083C78.7307 67.9945 78.8274 68.0804 78.834 68.1113C78.8407 68.1422 78.7857 68.1267 78.7824 68.1542C78.7772 68.2024 78.766 68.2498 78.7491 68.295C78.7207 68.374 78.6874 68.4135 78.6841 68.4101C78.6807 68.4067 78.7041 68.3637 78.7257 68.2882C78.7391 68.2435 78.7475 68.1974 78.7507 68.1508C78.7507 68.1027 78.7507 68.0306 78.6991 68.0426C78.6474 68.0546 78.6308 68.1216 78.6208 68.168C78.6115 68.2121 78.6115 68.2578 78.6208 68.3019C78.6342 68.3428 78.6509 68.3824 78.6707 68.4204Z" fill="#263238"/>
<path d="M81.4179 66.9177C81.4179 66.9177 81.3396 66.9452 81.228 67.0156C81.0811 67.1041 80.9619 67.2341 80.8846 67.3902C80.8072 67.5464 80.7749 67.7221 80.7914 67.8966C80.7991 67.9688 80.8107 68.0405 80.8264 68.1113C80.8264 68.1113 80.8148 68.0941 80.8014 68.0581C80.7847 68.0061 80.773 67.9526 80.7664 67.8983C80.7439 67.7183 80.7748 67.5354 80.8551 67.3739C80.9354 67.2123 81.0614 67.0796 81.2163 66.9933C81.2622 66.9666 81.3108 66.9453 81.3613 66.9297C81.3794 66.9228 81.3985 66.9187 81.4179 66.9177Z" fill="#263238"/>
<path d="M80.3864 68.0237C80.2737 68.1108 80.1505 68.1824 80.0198 68.2366C79.8945 68.3028 79.7611 68.3513 79.6233 68.3809C79.6233 68.3706 79.7899 68.3036 80.0065 68.2092C80.2231 68.1147 80.3814 68.0134 80.3864 68.0237Z" fill="#263238"/>
<path d="M80.8965 67.7867C80.9048 67.7867 80.8965 67.8313 80.8965 67.8794C80.8965 67.9275 80.8965 67.9687 80.8965 67.9721C80.8965 67.9756 80.8647 67.9361 80.8647 67.8794C80.8647 67.8227 80.8881 67.7764 80.8965 67.7867Z" fill="#263238"/>
<path d="M80.9748 67.4432C80.9849 67.4432 80.9748 67.4827 80.9648 67.5222C80.9548 67.5617 80.9314 67.5944 80.9231 67.5909C80.9147 67.5875 80.9231 67.5514 80.9331 67.5102C80.9431 67.469 80.9748 67.4432 80.9748 67.4432Z" fill="#263238"/>
<path d="M81.2063 67.201C81.2063 67.2113 81.1729 67.2268 81.1413 67.2577C81.1096 67.2886 81.0913 67.3247 81.0813 67.3213C81.0713 67.3178 81.0813 67.2714 81.1179 67.2319C81.1546 67.1924 81.2046 67.1907 81.2063 67.201Z" fill="#263238"/>
<path d="M81.3796 67.0551C81.3796 67.0551 81.3797 67.0825 81.3596 67.1014C81.3396 67.1203 81.3212 67.1306 81.3145 67.1238C81.3078 67.1169 81.3145 67.0963 81.3346 67.0774C81.3546 67.0585 81.373 67.0482 81.3796 67.0551Z" fill="#263238"/>
<path d="M79.3967 37.4837C79.3717 35.7835 77.9738 31.7374 77.9738 31.7374L70.9076 32.0448C70.9076 32.0448 69.1048 35.981 69.1681 39.9653C69.2314 43.9496 70.3344 54.7484 70.3344 54.7484H78.8835L78.6419 46.6631C78.5453 44.0492 79.445 40.7879 79.3967 37.4837Z" fill="#263238"/>
<path d="M78.2719 32.6391C78.2657 32.6584 78.2585 32.6773 78.2503 32.6958L78.182 32.8675L77.9087 33.4875C77.6688 34.0302 77.3239 34.8047 76.8974 35.7613C76.0459 37.683 74.868 40.3398 73.7067 43.3331C73.1318 44.8307 72.6236 46.275 72.1921 47.5991C71.9872 48.2637 71.7822 48.894 71.619 49.4882C71.5356 49.7853 71.4523 50.0738 71.3757 50.3469C71.2991 50.6199 71.2341 50.893 71.1691 51.1471C71.0308 51.6624 70.9325 52.1226 70.8359 52.5314C70.7892 52.7357 70.7459 52.9246 70.7076 53.0998C70.6692 53.275 70.6409 53.4433 70.6109 53.5824C70.5543 53.8675 70.5093 54.0976 70.4776 54.247C70.461 54.3208 70.4493 54.3775 70.4393 54.4187C70.4365 54.4387 70.4314 54.4583 70.4243 54.4771C70.4243 54.4771 70.6059 53.1805 71.1074 51.13C71.1724 50.8741 71.2391 50.6062 71.309 50.3262C71.379 50.0463 71.4657 49.7612 71.549 49.4676C71.7156 48.8682 71.9122 48.2379 72.1155 47.5785C72.542 46.2509 73.0485 44.8049 73.625 43.3039C74.7913 40.3089 75.9743 37.6555 76.8407 35.7475L77.877 33.484C78.0003 33.2213 78.097 33.0169 78.1636 32.8709C78.197 32.8057 78.2219 32.7524 78.2403 32.7129C78.2475 32.687 78.2582 32.6621 78.2719 32.6391Z" fill="#455A64"/>
<path d="M76.7824 54.7347C76.7611 54.6995 76.7432 54.6621 76.7291 54.6231L76.5891 54.2985C76.4692 54.0152 76.3059 53.6013 76.1143 53.0861C75.1222 50.3941 74.4415 47.5909 74.0866 44.7345C74.0199 44.1867 73.9749 43.7419 73.9516 43.4345C73.9416 43.2885 73.9333 43.17 73.9266 43.0807C73.9226 43.039 73.9226 42.997 73.9266 42.9553C73.9373 42.9957 73.944 43.0372 73.9466 43.079C73.9583 43.1683 73.9716 43.2851 73.9899 43.4224C74.0216 43.7281 74.0766 44.1712 74.1565 44.7173C74.5443 47.5622 75.2223 50.357 76.1793 53.0552C76.3625 53.5704 76.5125 53.9894 76.6291 54.2762L76.7524 54.6077C76.7675 54.6486 76.7776 54.6913 76.7824 54.7347Z" fill="#455A64"/>
<path d="M43.5647 55.1822C43.4648 55.4913 42.4451 68.1449 42.4451 68.1449L45.1942 68.3372L46.8604 56.3895L43.5647 55.1822Z" fill="#FFBE9D"/>
<path d="M50.7026 54.6997C50.7793 55.014 51.5191 68.4713 51.5191 68.4713L54.2599 68.2583L54.4398 54.6997H50.7026Z" fill="#FFBE9D"/>
<path d="M54.3427 68.4231L54.3344 68.126L51.4136 68.1879L51.4319 69.1685H51.6118C52.4149 69.1959 55.6973 69.2526 56.2304 69.0878C56.8236 68.9091 54.3427 68.4231 54.3427 68.4231Z" fill="#FF725E"/>
<g opacity="0.3">
<path opacity="0.3" d="M52.4918 69.1256C52.4407 68.8869 52.303 68.6774 52.107 68.5399C51.9082 68.3953 51.6662 68.3278 51.4238 68.3493L51.4405 69.129L52.4918 69.1256Z" fill="black"/>
</g>
<g opacity="0.3">
<path opacity="0.3" d="M55.5561 68.7065C55.5561 68.7065 56.4275 68.9297 56.3225 69.0671C56.2176 69.2045 52.8986 69.2698 51.4324 69.1736V69.1118L55.3045 69.0706C55.3045 69.0706 55.3878 68.7065 55.5561 68.7065Z" fill="black"/>
</g>
<path d="M51.3889 69.1049H51.4389H51.5822L52.112 69.1169C52.5586 69.1169 53.175 69.1255 53.8565 69.1169C54.538 69.1084 55.1561 69.0809 55.601 69.0568L56.1291 69.0259L56.2724 69.0156H56.3224H56.2724H56.1291L55.601 69.0345C55.1544 69.0517 54.538 69.0723 53.8565 69.0843C53.175 69.0963 52.5586 69.0981 52.112 69.0981H51.3889V69.1049Z" fill="#263238"/>
<path d="M55.3081 69.1084C55.3294 69.0235 55.3607 68.9416 55.4014 68.8646C55.4522 68.7915 55.5115 68.7252 55.578 68.6671C55.4899 68.6988 55.4163 68.7631 55.3714 68.8474C55.3443 68.8843 55.3248 68.9264 55.3139 68.9712C55.303 69.0161 55.301 69.0627 55.3081 69.1084Z" fill="#263238"/>
<path d="M54.4415 68.7065C54.4499 68.7065 54.4899 68.6619 54.5298 68.5966C54.5698 68.5314 54.5982 68.4764 54.5898 68.4713C54.5815 68.4661 54.5415 68.5142 54.4998 68.5795C54.4582 68.6447 54.4332 68.7065 54.4415 68.7065Z" fill="#263238"/>
<path d="M54.2032 68.5932C54.2032 68.5932 54.2549 68.5692 54.3032 68.5245C54.3515 68.4799 54.3882 68.4404 54.3815 68.4335C54.3749 68.4266 54.3299 68.4558 54.2799 68.5005C54.2299 68.5451 54.1966 68.5863 54.2032 68.5932Z" fill="#263238"/>
<path d="M54.0481 68.3322C54.0968 68.3493 54.1487 68.3546 54.1997 68.3476C54.2509 68.353 54.3025 68.3471 54.3513 68.3305C54.3026 68.3133 54.2507 68.308 54.1997 68.315C54.1486 68.3101 54.097 68.3159 54.0481 68.3322Z" fill="#263238"/>
<path d="M53.9917 68.1484C54.0423 68.1784 54.1 68.1933 54.1583 68.1913C54.2178 68.2006 54.2787 68.1917 54.3333 68.1656C54.2778 68.1616 54.2221 68.1616 54.1666 68.1656C54.1091 68.1537 54.0504 68.1479 53.9917 68.1484Z" fill="#263238"/>
<path d="M54.5347 68.4626C54.5965 68.4726 54.6594 68.4726 54.7213 68.4626C54.7884 68.4534 54.8548 68.4385 54.9195 68.418C54.9582 68.4058 54.9956 68.3897 55.0312 68.3699C55.0528 68.3579 55.069 68.3375 55.0762 68.3132C55.079 68.2999 55.0777 68.286 55.0727 68.2735C55.0676 68.2609 55.0589 68.2502 55.0478 68.2428C54.9761 68.21 54.8958 68.2024 54.8194 68.221C54.743 68.2396 54.6746 68.2834 54.6246 68.3458C54.5975 68.3821 54.5777 68.4235 54.5663 68.4678C54.5623 68.4835 54.5623 68.5001 54.5663 68.5159C54.5847 68.4599 54.6124 68.4076 54.648 68.3613C54.6906 68.3126 54.7453 68.277 54.8063 68.2583C54.8795 68.2342 54.9586 68.2379 55.0295 68.2686C55.0595 68.2892 55.0478 68.3235 55.0162 68.3424C54.983 68.3615 54.9478 68.3765 54.9112 68.3871C54.8487 68.4095 54.7846 68.4273 54.7196 68.4403C54.6046 68.4558 54.5347 68.4575 54.5347 68.4626Z" fill="#263238"/>
<path d="M54.5829 68.4712C54.6043 68.4334 54.6109 68.3885 54.6012 68.3459C54.5943 68.2985 54.5759 68.2536 54.5479 68.2153C54.5304 68.1886 54.5068 68.1667 54.4792 68.1514C54.4517 68.1362 54.4209 68.128 54.3896 68.1277C54.3805 68.1291 54.3717 68.1325 54.3639 68.1376C54.356 68.1427 54.3493 68.1494 54.3441 68.1573C54.339 68.1652 54.3354 68.1742 54.3338 68.1836C54.3322 68.193 54.3325 68.2026 54.3346 68.2119C54.3391 68.2407 54.3505 68.2679 54.368 68.2909C54.3937 68.33 54.4239 68.3657 54.4579 68.3974C54.4884 68.429 54.5254 68.4531 54.5663 68.4678C54.5663 68.4678 54.5296 68.4369 54.4763 68.3802C54.4459 68.3484 54.4191 68.3133 54.3963 68.2754C54.3696 68.2377 54.3496 68.169 54.3963 68.1604C54.4212 68.1623 54.4453 68.1699 54.4669 68.1827C54.4886 68.1954 54.5071 68.2131 54.5213 68.2342C54.5484 68.2674 54.5673 68.3069 54.5762 68.3493C54.5822 68.3896 54.5845 68.4304 54.5829 68.4712Z" fill="#263238"/>
<path d="M51.4324 68.3425C51.504 68.3384 51.5757 68.3384 51.6473 68.3425C51.8163 68.3563 51.9789 68.4155 52.1188 68.5142C52.253 68.613 52.3575 68.7487 52.4204 68.9058C52.4687 69.0243 52.4737 69.105 52.4804 69.1033C52.484 69.0846 52.484 69.0653 52.4804 69.0466C52.4747 68.9955 52.4629 68.9453 52.4454 68.8972C52.3872 68.7322 52.2814 68.5896 52.1422 68.4885C51.9976 68.3839 51.827 68.3243 51.6506 68.3167C51.5953 68.3103 51.5394 68.3103 51.484 68.3167C51.4524 68.3339 51.4324 68.3391 51.4324 68.3425Z" fill="#263238"/>
<path d="M52.8452 68.8474C52.985 68.8765 53.1277 68.8874 53.2701 68.88C53.4128 68.8853 53.5557 68.8715 53.695 68.8388C53.695 68.8388 53.505 68.8388 53.2701 68.8388C53.0352 68.8388 52.8469 68.8388 52.8452 68.8474Z" fill="#263238"/>
<path d="M52.2754 68.8577C52.2754 68.8577 52.2921 68.8954 52.3121 68.9367C52.3322 68.9779 52.3439 69.0157 52.3539 69.0139C52.3639 69.0122 52.3672 68.971 52.3438 68.9229C52.3205 68.8748 52.2821 68.8508 52.2754 68.8577Z" fill="#263238"/>
<path d="M52.0552 68.6052C52.0552 68.6052 52.0669 68.6413 52.0986 68.6687C52.1303 68.6962 52.1587 68.7168 52.1671 68.71C52.1754 68.7031 52.1537 68.6739 52.1237 68.6447C52.0936 68.6155 52.0619 68.5983 52.0552 68.6052Z" fill="#263238"/>
<path d="M51.7455 68.4936C51.7455 68.5039 51.7855 68.5022 51.8288 68.5159C51.8722 68.5297 51.9038 68.5503 51.9105 68.5451C51.9171 68.54 51.8938 68.5005 51.8405 68.4833C51.7872 68.4661 51.7422 68.485 51.7455 68.4936Z" fill="#263238"/>
<path d="M51.5256 68.4438C51.5256 68.4438 51.539 68.4661 51.564 68.4747C51.5891 68.4833 51.6108 68.4833 51.6141 68.4747C51.6175 68.4661 51.5991 68.4506 51.5757 68.442C51.5524 68.4335 51.529 68.4352 51.5256 68.4438Z" fill="#263238"/>
<path d="M42.2684 68.4112L42.2767 68.1141L45.1975 68.1759L45.1792 69.1565H44.9992C44.1961 69.184 40.9121 69.2407 40.3806 69.0741C39.7858 68.8955 42.2684 68.4112 42.2684 68.4112Z" fill="#FF725E"/>
<g opacity="0.3">
<path opacity="0.3" d="M44.126 69.1136C44.1774 68.8751 44.3143 68.6653 44.5092 68.5263C44.7088 68.3823 44.9513 68.3154 45.194 68.3373L45.1773 69.1153L44.126 69.1136Z" fill="black"/>
</g>
<g opacity="0.3">
<path opacity="0.3" d="M41.0538 68.6893C41.0538 68.6893 40.1824 68.9109 40.2873 69.05C40.3923 69.1891 43.713 69.2509 45.1792 69.1565V69.0929L41.3037 69.05C41.3037 69.05 41.2237 68.7065 41.0538 68.6893Z" fill="black"/>
</g>
<path d="M45.2228 69.0929H45.1711H45.0278L44.4996 69.1049C44.0531 69.1049 43.435 69.1135 42.7535 69.1049C42.0721 69.0963 41.4556 69.0671 41.009 69.0448L40.4809 69.0139L40.3376 69.0019H40.2876H40.3376H40.4825L41.0107 69.0225C41.4572 69.0397 42.0737 69.0603 42.7552 69.0723C43.4366 69.0843 44.0531 69.086 44.4996 69.086H45.1661L45.2228 69.0929Z" fill="#263238"/>
<path d="M41.3036 69.0964C41.2817 69.0117 41.2504 68.9299 41.2103 68.8526C41.159 68.78 41.0997 68.7137 41.0337 68.6551C41.1212 68.6878 41.1945 68.7518 41.2403 68.8354C41.2934 68.9107 41.3161 69.0043 41.3036 69.0964Z" fill="#263238"/>
<path d="M42.1701 68.6945C42.1618 68.6945 42.1218 68.6516 42.0802 68.5863C42.0385 68.5211 42.0135 68.4644 42.0219 68.4592C42.0302 68.4541 42.0702 68.5039 42.1102 68.5691C42.1502 68.6344 42.1785 68.6894 42.1701 68.6945Z" fill="#263238"/>
<path d="M42.4081 68.5794C42.4081 68.5794 42.3565 68.5571 42.3065 68.5125C42.2565 68.4678 42.2232 68.4266 42.2299 68.4197C42.2365 68.4128 42.2815 68.4438 42.3315 68.4884C42.3815 68.5331 42.4148 68.5726 42.4081 68.5794Z" fill="#263238"/>
<path d="M42.5632 68.3202C42.5135 68.3352 42.4615 68.3405 42.4099 68.3356C42.3586 68.3415 42.3067 68.335 42.2583 68.3167C42.3074 68.3015 42.3589 68.2963 42.4099 68.3013C42.4617 68.2963 42.514 68.3027 42.5632 68.3202Z" fill="#263238"/>
<path d="M42.6181 68.1346C42.51 68.1876 42.3861 68.1943 42.2732 68.1535C42.3286 68.148 42.3844 68.148 42.4398 68.1535C42.4988 68.1431 42.5583 68.1367 42.6181 68.1346Z" fill="#263238"/>
<path d="M42.0767 68.4507C42.0148 68.4607 41.9519 68.4607 41.89 68.4507C41.8228 68.441 41.7565 68.4254 41.6918 68.4043C41.6524 68.3935 41.6143 68.378 41.5785 68.358C41.5568 68.3459 41.5407 68.3255 41.5335 68.3013C41.5309 68.2878 41.5323 68.2738 41.5377 68.2612C41.5431 68.2486 41.5521 68.238 41.5635 68.2309C41.635 68.198 41.715 68.1902 41.7912 68.2088C41.8674 68.2275 41.9355 68.2714 41.985 68.3339C42.0124 68.3693 42.0323 68.4103 42.0433 68.4541C42.0433 68.485 42.0433 68.5022 42.0433 68.5039C42.0263 68.4474 41.9985 68.3948 41.9617 68.3494C41.92 68.3004 41.8657 68.2647 41.8051 68.2463C41.7321 68.2205 41.6523 68.2242 41.5818 68.2566C41.5518 68.2772 41.5618 68.3116 41.5951 68.3305C41.628 68.3489 41.6627 68.3638 41.6984 68.3751C41.7611 68.3966 41.8251 68.4138 41.89 68.4266C42.005 68.4421 42.0767 68.4438 42.0767 68.4507Z" fill="#263238"/>
<path d="M42.0282 68.4575C42.017 68.4393 42.0095 68.419 42.006 68.3978C42.0026 68.3766 42.0033 68.3548 42.0082 68.3339C42.0156 68.2863 42.0345 68.2414 42.0631 68.2034C42.08 68.1764 42.1032 68.1542 42.1306 68.1389C42.1579 68.1235 42.1886 68.1156 42.2198 68.1158C42.2288 68.1172 42.2375 68.1205 42.2452 68.1255C42.253 68.1305 42.2597 68.137 42.265 68.1447C42.2703 68.1523 42.274 68.161 42.276 68.1702C42.2779 68.1794 42.2781 68.189 42.2764 68.1982C42.2708 68.2272 42.2594 68.2547 42.2431 68.2789C42.2164 68.3177 42.1856 68.3534 42.1515 68.3854C42.121 68.417 42.084 68.4411 42.0432 68.4558C42.0432 68.4558 42.0815 68.4232 42.1348 68.3682C42.165 68.3358 42.1918 68.3001 42.2148 68.2618C42.2414 68.224 42.2598 68.157 42.2148 68.1484C42.1899 68.1503 42.1658 68.1579 42.1441 68.1707C42.1225 68.1835 42.1039 68.2011 42.0898 68.2223C42.0633 68.2558 42.0445 68.2952 42.0348 68.3373C42.0293 68.3771 42.027 68.4173 42.0282 68.4575Z" fill="#263238"/>
<path d="M45.1791 68.3286C45.1791 68.3286 45.0958 68.3201 44.9642 68.3286C44.7949 68.3435 44.632 68.4026 44.491 68.5004C44.3569 68.5993 44.2524 68.7349 44.1894 68.8919C44.1662 68.9565 44.1467 69.0225 44.1311 69.0894C44.1311 69.0894 44.1311 69.0688 44.1311 69.0328C44.1376 68.9818 44.1493 68.9317 44.1661 68.8834C44.224 68.7177 44.3298 68.5744 44.4693 68.4729C44.6172 68.3689 44.7903 68.3094 44.9692 68.3012C45.0246 68.2958 45.0804 68.2958 45.1358 68.3012C45.1511 68.3088 45.1656 68.318 45.1791 68.3286Z" fill="#263238"/>
<path d="M43.7662 68.8353C43.6258 68.8631 43.4826 68.8741 43.3397 68.8679C43.1975 68.8723 43.0554 68.8584 42.9165 68.8267C42.9165 68.8164 43.1064 68.8267 43.3414 68.8267C43.5763 68.8267 43.7646 68.825 43.7662 68.8353Z" fill="#263238"/>
<path d="M44.3362 68.8456C44.3362 68.8456 44.3195 68.8834 44.2995 68.9246C44.2794 68.9659 44.2677 69.0036 44.2577 69.0019C44.2477 69.0002 44.2427 68.9573 44.2677 68.9109C44.2928 68.8645 44.3279 68.8388 44.3362 68.8456Z" fill="#263238"/>
<path d="M44.5563 68.5932C44.5563 68.5932 44.5429 68.6275 44.5129 68.6567C44.4828 68.6859 44.4511 68.7031 44.4444 68.6962C44.4377 68.6894 44.4578 68.6619 44.4878 68.6327C44.5179 68.6035 44.5496 68.5863 44.5563 68.5932Z" fill="#263238"/>
<path d="M44.8659 68.4816C44.8659 68.4919 44.8242 68.4901 44.7809 68.5039C44.7376 68.5176 44.7076 68.5382 44.6993 68.5314C44.6909 68.5245 44.7176 68.4867 44.7709 68.4712C44.8242 68.4558 44.8692 68.473 44.8659 68.4816Z" fill="#263238"/>
<path d="M45.086 68.43C45.086 68.4386 45.0726 68.4541 45.0476 68.4609C45.0225 68.4678 45.0008 68.4695 44.9975 68.4609C44.9942 68.4524 45.0109 68.4386 45.0359 68.43C45.061 68.4214 45.0827 68.4214 45.086 68.43Z" fill="#263238"/>
<path d="M46.0502 30.7167L44.1225 35.3535L41.8682 60.9423L47.6664 61.588L49.5508 39.5113L50.1206 61.7632L55.439 61.5915L54.6576 35.3896C54.6313 34.6821 54.461 33.9881 54.1578 33.3528L52.8798 30.6583L46.0502 30.7167Z" fill="#263238"/>
<path d="M50.1211 37.7527C50.1211 37.7527 50.1061 37.7733 50.0678 37.7991C50.0095 37.8353 49.9426 37.8543 49.8745 37.854C49.766 37.8539 49.6595 37.8236 49.5663 37.7664C49.4428 37.6889 49.3465 37.5728 49.2914 37.435C49.1597 37.1293 49.1897 36.7395 49.1797 36.3273C49.1697 35.9151 49.1797 35.4514 49.1714 34.9706C49.1714 34.0071 49.1714 33.1364 49.1714 32.5061C49.1714 32.2022 49.1797 31.9514 49.1814 31.7591C49.1789 31.6672 49.1845 31.5752 49.198 31.4843C49.2107 31.5753 49.2168 31.6672 49.2164 31.7591C49.2164 31.9514 49.2264 32.2022 49.233 32.5061C49.243 33.1364 49.2514 34.0071 49.2564 34.9706C49.2564 35.4497 49.2564 35.9082 49.2564 36.3273C49.2564 36.7463 49.228 37.1259 49.3447 37.4109C49.3852 37.5239 49.4564 37.6225 49.5497 37.695C49.6431 37.7674 49.7546 37.8107 49.8712 37.8197C49.9587 37.8203 50.0449 37.7972 50.1211 37.7527Z" fill="#455A64"/>
<path d="M54.2533 33.5349C54.2104 33.5701 54.1619 33.5974 54.11 33.6156C53.9731 33.6757 53.8292 33.7173 53.6818 33.7393C53.4599 33.7718 53.2341 33.7625 53.0154 33.7118C52.751 33.6516 52.4966 33.5515 52.2606 33.4147C51.826 33.1672 51.4767 32.7868 51.2609 32.3259C51.1959 32.1881 51.1451 32.0436 51.1093 31.8948C51.0933 31.8391 51.0854 31.7812 51.086 31.7231C51.1026 31.7231 51.1443 31.9549 51.3159 32.2915C51.5402 32.7278 51.8814 33.0885 52.2989 33.3305C52.529 33.4619 52.775 33.5612 53.0304 33.6259C53.2387 33.677 53.4539 33.6915 53.6668 33.6689C53.8656 33.641 54.0618 33.5961 54.2533 33.5349Z" fill="#455A64"/>
<path d="M47.4066 31.7935C47.4156 31.8463 47.4156 31.9003 47.4066 31.9532C47.393 32.0983 47.3651 32.2416 47.3233 32.3808C47.1856 32.8471 46.917 33.2608 46.5513 33.5698C46.1857 33.8789 45.7394 34.0693 45.2689 34.1171C45.1282 34.1318 44.9864 34.1318 44.8457 34.1171C44.7934 34.1161 44.7416 34.1062 44.6924 34.0879C44.6924 34.0707 44.914 34.1033 45.2622 34.0518C45.7148 33.9885 46.1415 33.7968 46.4946 33.4981C46.8476 33.1994 47.1132 32.8055 47.2616 32.3602C47.3782 32.0202 47.3899 31.7917 47.4066 31.7935Z" fill="#455A64"/>
<path d="M49.7943 31.383C49.7943 31.383 49.816 31.3675 49.8559 31.371C49.9141 31.3767 49.9684 31.4034 50.0092 31.4465C50.041 31.4786 50.0652 31.5177 50.0802 31.5608C50.0952 31.6039 50.1006 31.65 50.0959 31.6956C50.0836 31.752 50.0556 31.8035 50.0154 31.8439C49.9753 31.8843 49.9246 31.9118 49.8695 31.923C49.8145 31.9343 49.7575 31.9289 49.7054 31.9074C49.6533 31.8859 49.6084 31.8493 49.576 31.802C49.5543 31.7619 49.5419 31.7171 49.5398 31.6712C49.5378 31.6253 49.5462 31.5795 49.5644 31.5376C49.5859 31.4816 49.6261 31.4353 49.6777 31.407C49.7143 31.3882 49.7377 31.3899 49.7377 31.395C49.7377 31.4002 49.6577 31.4362 49.621 31.5668C49.611 31.5998 49.6079 31.6346 49.6119 31.669C49.6159 31.7033 49.627 31.7364 49.6443 31.766C49.6678 31.7986 49.7001 31.8233 49.7372 31.837C49.7742 31.8508 49.8144 31.8529 49.8526 31.8433C49.892 31.8372 49.9288 31.8193 49.9585 31.7918C49.9881 31.7643 50.0092 31.7285 50.0192 31.6887C50.0238 31.6546 50.0215 31.6198 50.0123 31.5867C50.0031 31.5536 49.9873 31.5228 49.9659 31.4963C49.8859 31.3899 49.7943 31.3985 49.7943 31.383Z" fill="#455A64"/>
<path d="M47.7068 60.0252C47.6331 60.0335 47.5588 60.0335 47.4852 60.0252C47.3436 60.0252 47.137 60.0029 46.8837 59.9823C46.3839 59.9411 45.6741 59.8706 44.9026 59.7728C44.1312 59.6749 43.4348 59.5667 42.9316 59.4791C42.68 59.4362 42.4767 59.3984 42.3368 59.3692C42.2637 59.3583 42.1917 59.3405 42.1218 59.3159C42.1962 59.3133 42.2705 59.3197 42.3434 59.3348L42.9399 59.4173C43.4398 59.4877 44.1429 59.589 44.9126 59.6835C45.6824 59.7779 46.3839 59.8552 46.8887 59.9187L47.4885 59.9891C47.5623 59.993 47.6355 60.0051 47.7068 60.0252Z" fill="#455A64"/>
<path d="M55.1576 59.7761C55.0915 59.7914 55.0238 59.7984 54.956 59.7968L54.4079 59.8208C53.9447 59.8414 53.3065 59.8758 52.6018 59.9324C51.897 59.9891 51.2605 60.0595 50.8006 60.1145L50.2558 60.178C50.1892 60.1891 50.1217 60.1937 50.0542 60.1918C50.1177 60.1678 50.1837 60.1517 50.2508 60.1437C50.3774 60.1179 50.564 60.087 50.7923 60.0509C51.2522 59.9805 51.8886 59.9015 52.5951 59.8431C53.3015 59.7847 53.943 59.7624 54.4062 59.759C54.6378 59.759 54.8261 59.759 54.956 59.759C55.0236 59.7582 55.0911 59.764 55.1576 59.7761Z" fill="#455A64"/>
<path d="M54.6131 58.8385C54.6816 59.1193 54.6935 59.4115 54.6482 59.6972C54.5986 59.5613 54.5776 59.4161 54.5864 59.2713C54.5673 59.1266 54.5764 58.9795 54.6131 58.8385Z" fill="#455A64"/>
<path d="M54.5447 57.1229C54.5943 57.2588 54.6153 57.4039 54.6065 57.5488C54.6254 57.6929 54.6163 57.8394 54.5798 57.9798C54.5306 57.8433 54.5101 57.6975 54.5197 57.5522C54.4999 57.4088 54.5084 57.2628 54.5447 57.1229Z" fill="#455A64"/>
<path d="M54.478 55.4056C54.5469 55.6863 54.5583 55.9787 54.5114 56.2643C54.4631 56.1275 54.4427 55.9819 54.4513 55.8366C54.4305 55.6926 54.4396 55.5457 54.478 55.4056Z" fill="#455A64"/>
<path d="M54.4099 53.6898C54.4572 53.8269 54.4777 53.9722 54.47 54.1174C54.4908 54.2615 54.4817 54.4084 54.4433 54.5485C54.3962 54.4114 54.3758 54.2661 54.3832 54.1209C54.3624 53.9769 54.3715 53.83 54.4099 53.6898Z" fill="#455A64"/>
<path d="M54.3416 51.9742C54.3897 52.1105 54.4102 52.2554 54.4017 52.4001C54.4225 52.5442 54.4134 52.6911 54.375 52.8312C54.3278 52.6947 54.3073 52.55 54.3149 52.4053C54.2962 52.2612 54.3053 52.1147 54.3416 51.9742Z" fill="#455A64"/>
<path d="M54.273 50.2585C54.3222 50.3945 54.3433 50.5396 54.3348 50.6845C54.3537 50.8285 54.3446 50.9751 54.3081 51.1155C54.2587 50.9796 54.2382 50.8344 54.248 50.6896C54.2281 50.5456 54.2367 50.399 54.273 50.2585Z" fill="#455A64"/>
<path d="M54.2066 48.543C54.2541 48.6794 54.2745 48.8242 54.2667 48.9689C54.2856 49.113 54.2765 49.2595 54.24 49.3999C54.1917 49.2631 54.1713 49.1176 54.1799 48.9723C54.1593 48.8289 54.1684 48.6826 54.2066 48.543Z" fill="#455A64"/>
<path d="M54.1382 46.8256C54.1853 46.9627 54.2057 47.108 54.1983 47.2532C54.2191 47.3973 54.21 47.5442 54.1716 47.6843C54.1242 47.5472 54.1038 47.4019 54.1114 47.2567C54.0918 47.1126 54.1008 46.9659 54.1382 46.8256Z" fill="#455A64"/>
<path d="M54.0696 45.1099C54.1177 45.2467 54.1381 45.3922 54.1297 45.5375C54.1495 45.6815 54.1409 45.828 54.1047 45.9685C54.0556 45.8319 54.0346 45.6863 54.0429 45.5409C54.0242 45.3968 54.0333 45.2504 54.0696 45.1099Z" fill="#455A64"/>
<path d="M54.0015 43.3943C54.0506 43.5309 54.0716 43.6765 54.0632 43.8219C54.0819 43.966 54.0729 44.1125 54.0365 44.253C53.9873 44.1164 53.9668 43.9707 53.9764 43.8253C53.9567 43.6814 53.9652 43.5348 54.0015 43.3943Z" fill="#455A64"/>
<path d="M53.9348 41.6786C54.0037 41.9593 54.0151 42.2518 53.9682 42.5373C53.9201 42.4004 53.8997 42.2549 53.9081 42.1097C53.8873 41.9656 53.8964 41.8187 53.9348 41.6786Z" fill="#455A64"/>
<path d="M53.8663 39.963C53.9136 40.1001 53.934 40.2454 53.9264 40.3906C53.9473 40.5341 53.9382 40.6804 53.8997 40.82C53.8522 40.6835 53.8318 40.5387 53.8396 40.3941C53.8197 40.25 53.8288 40.1033 53.8663 39.963Z" fill="#455A64"/>
<path d="M53.7983 38.2473C53.8476 38.3832 53.8681 38.5285 53.8584 38.6732C53.8782 38.8172 53.8697 38.9638 53.8333 39.1043C53.7838 38.9684 53.7627 38.8232 53.7715 38.6784C53.7527 38.5343 53.7618 38.3878 53.7983 38.2473Z" fill="#455A64"/>
<path d="M53.7296 36.5317C53.7792 36.6676 53.8002 36.8127 53.7914 36.9576C53.8103 37.1017 53.8012 37.2482 53.7647 37.3887C53.7155 37.2521 53.695 37.1063 53.7046 36.961C53.6846 36.8176 53.6932 36.6716 53.7296 36.5317Z" fill="#455A64"/>
<path d="M53.6584 34.8143C53.7273 35.095 53.7387 35.3874 53.6918 35.673C53.6436 35.5361 53.6231 35.3906 53.6317 35.2453C53.6109 35.1013 53.62 34.9544 53.6584 34.8143Z" fill="#455A64"/>
<path d="M53.6184 33.6723C53.6418 33.6723 53.6635 33.7324 53.6669 33.8097C53.6702 33.887 53.6535 33.9488 53.6284 33.9505C53.6034 33.9522 53.5834 33.8904 53.58 33.8131C53.5767 33.7358 53.5934 33.6723 53.6184 33.6723Z" fill="#455A64"/>
<path d="M42.8452 58.5741C42.8727 58.7164 42.8727 58.8629 42.8452 59.0052C42.8465 59.151 42.8181 59.2955 42.7617 59.4294C42.7304 59.1406 42.7572 58.8484 42.8402 58.5707L42.8452 58.5741Z" fill="#455A64"/>
<path d="M42.9949 56.867C43.0243 57.0097 43.0243 57.1571 42.9949 57.2998C42.9954 57.4448 42.9677 57.5885 42.9132 57.7223C42.8837 57.5802 42.8837 57.4333 42.9132 57.2912C42.9128 57.1456 42.9405 57.0014 42.9949 56.867Z" fill="#455A64"/>
<path d="M43.1614 55.1582C43.1926 55.4469 43.1659 55.7392 43.0829 56.0169C43.0544 55.8741 43.0544 55.7269 43.0829 55.5841C43.0794 55.438 43.1061 55.2928 43.1614 55.1582Z" fill="#455A64"/>
<path d="M43.3117 53.4477C43.3392 53.59 43.3392 53.7365 43.3117 53.8788C43.3131 54.0246 43.2846 54.1691 43.2282 54.303C43.197 54.0142 43.2237 53.722 43.3067 53.4443L43.3117 53.4477Z" fill="#455A64"/>
<path d="M43.4663 51.7389C43.4958 51.881 43.4958 52.0279 43.4663 52.1699C43.4669 52.315 43.4391 52.4587 43.3847 52.5924C43.3552 52.4503 43.3552 52.3034 43.3847 52.1614C43.3841 52.0163 43.4118 51.8726 43.4663 51.7389Z" fill="#455A64"/>
<path d="M43.6233 50.0284C43.6545 50.3172 43.6278 50.6094 43.5448 50.8871C43.5173 50.7443 43.5173 50.5972 43.5448 50.4544C43.5415 50.3083 43.5683 50.1632 43.6233 50.0284Z" fill="#455A64"/>
<path d="M43.7783 48.3179C43.8058 48.4608 43.8058 48.6078 43.7783 48.7507C43.7795 48.8959 43.751 49.0399 43.6948 49.1731C43.6635 48.8844 43.6903 48.5921 43.7733 48.3145L43.7783 48.3179Z" fill="#455A64"/>
<path d="M43.9329 46.6091C43.9623 46.7512 43.9623 46.8981 43.9329 47.0402C43.9334 47.1852 43.9057 47.3289 43.8512 47.4627C43.8217 47.3206 43.8217 47.1737 43.8512 47.0316C43.8506 46.8866 43.8784 46.7429 43.9329 46.6091Z" fill="#455A64"/>
<path d="M44.0896 44.8986C44.1208 45.1874 44.0941 45.4796 44.0111 45.7573C43.9836 45.6144 43.9836 45.4674 44.0111 45.3245C44.0079 45.1785 44.0346 45.0333 44.0896 44.8986Z" fill="#455A64"/>
<path d="M44.2446 43.1882C44.2731 43.331 44.2731 43.4782 44.2446 43.621C44.2461 43.7663 44.2176 43.9102 44.1611 44.0434C44.1299 43.7547 44.1566 43.4624 44.2396 43.1848L44.2446 43.1882Z" fill="#455A64"/>
<path d="M44.3994 41.4794C44.4288 41.6215 44.4288 41.7684 44.3994 41.9105C44.3998 42.0561 44.372 42.2003 44.3177 42.3347C44.2883 42.192 44.2883 42.0446 44.3177 41.9019C44.3171 41.7569 44.3449 41.6132 44.3994 41.4794Z" fill="#455A64"/>
<path d="M44.5562 39.7689C44.5874 40.0577 44.5607 40.3499 44.4777 40.6276C44.4501 40.4853 44.4501 40.3388 44.4777 40.1965C44.4743 40.0499 44.501 39.9042 44.5562 39.7689Z" fill="#455A64"/>
<path d="M44.7112 38.0583C44.7396 38.2011 44.7396 38.3483 44.7112 38.4911C44.7126 38.6364 44.6842 38.7804 44.6277 38.9136C44.5964 38.6248 44.6231 38.3326 44.7062 38.0549L44.7112 38.0583Z" fill="#455A64"/>
<path d="M44.8659 36.3497C44.8954 36.4918 44.8954 36.6387 44.8659 36.7807C44.8664 36.9263 44.8386 37.0705 44.7843 37.2049C44.7549 37.0623 44.7549 36.9148 44.7843 36.7721C44.7837 36.6271 44.8115 36.4834 44.8659 36.3497Z" fill="#455A64"/>
<path d="M45.0229 34.6392C45.0543 34.9279 45.0276 35.2202 44.9444 35.4978C44.9163 35.3556 44.9163 35.209 44.9444 35.0668C44.9406 34.9201 44.9674 34.7743 45.0229 34.6392Z" fill="#455A64"/>
<path d="M14.5941 67.433L14.2842 68.7777C14.2842 68.7777 12.1498 71.6337 11.4917 71.4946C11.0602 71.4036 11.59 70.6583 12.4014 68.4875L12.568 67.5928L14.5941 67.433Z" fill="#FF725E"/>
<path d="M11.4048 71.0722C11.4301 71.1212 11.4698 71.1609 11.5181 71.1855C11.5848 71.2151 11.6581 71.2253 11.7301 71.215C11.802 71.2047 11.8699 71.1743 11.9263 71.1271C12.3004 70.806 12.6554 70.4619 12.9893 70.0967C13.3842 69.6691 13.7157 69.2587 13.949 68.9547L14.2223 68.594C14.2473 68.558 14.2722 68.5253 14.2956 68.4944C14.3034 68.4822 14.313 68.4712 14.3239 68.4618C14.3239 68.4618 14.3239 68.4755 14.3022 68.4996C14.2806 68.5236 14.2572 68.5648 14.2339 68.6026C14.1739 68.6919 14.084 68.819 13.9707 68.9719C13.6727 69.3734 13.354 69.758 13.016 70.1242C12.6816 70.4932 12.3225 70.8375 11.9413 71.1546C11.8705 71.2065 11.7878 71.2385 11.7014 71.2474C11.6354 71.2515 11.5697 71.2366 11.5114 71.2044C11.4748 71.1841 11.4439 71.1546 11.4214 71.1186C11.4127 71.1045 11.407 71.0887 11.4048 71.0722Z" fill="#263238"/>
<path d="M11.7065 70.1551C11.7627 70.1324 11.8235 70.1253 11.8832 70.1345C12.0261 70.1494 12.1637 70.1988 12.2847 70.2788C12.4102 70.3526 12.5117 70.4632 12.5763 70.5965C12.6043 70.6493 12.6203 70.708 12.6229 70.7682C12.6229 70.7682 12.6029 70.7012 12.553 70.6051C12.4843 70.4813 12.3847 70.3788 12.2647 70.308C12.1476 70.2313 12.0167 70.1799 11.8798 70.1568C11.7749 70.1465 11.7082 70.162 11.7065 70.1551Z" fill="#263238"/>
<path d="M13.7277 69.4836C13.7277 69.4836 13.7144 69.463 13.7011 69.4201C13.6824 69.3601 13.6685 69.2986 13.6594 69.2363C13.6289 69.0268 13.6639 68.8126 13.7594 68.6249C13.8513 68.4343 14.0035 68.2816 14.1909 68.1922C14.244 68.1663 14.2999 68.1473 14.3575 68.1355C14.3801 68.1313 14.4032 68.1313 14.4258 68.1355C14.3463 68.1569 14.2688 68.1856 14.1942 68.2214C14.0177 68.3147 13.8742 68.4632 13.7844 68.6456C13.6936 68.8275 13.6565 69.0329 13.6777 69.2363C13.7044 69.384 13.7344 69.4819 13.7277 69.4836Z" fill="#263238"/>
<path d="M14.4574 67.6667C14.4674 67.6667 14.4191 67.8573 14.3791 68.096C14.3634 68.2418 14.3263 68.3842 14.2691 68.5185C14.2608 68.5185 14.3025 68.3262 14.3425 68.0874C14.3604 67.9421 14.3991 67.8003 14.4574 67.6667Z" fill="#263238"/>
<path d="M12.3647 68.6782C12.454 68.6514 12.5488 68.6514 12.638 68.6782C12.7299 68.6924 12.8156 68.7342 12.8846 68.7984C12.8846 68.8087 12.773 68.7503 12.6297 68.716C12.4864 68.6816 12.3647 68.6971 12.3647 68.6782Z" fill="#263238"/>
<path d="M12.3198 68.9083C12.3935 68.8769 12.4757 68.8739 12.5514 68.8997C12.6298 68.9121 12.7012 68.9529 12.753 69.0147C12.753 69.0147 12.6614 68.9666 12.5414 68.9375C12.4215 68.9083 12.3215 68.9203 12.3198 68.9083Z" fill="#263238"/>
<path d="M12.1494 69.1969C12.1846 69.1744 12.2242 69.1599 12.2653 69.1546C12.3064 69.1493 12.3481 69.1531 12.3877 69.1659C12.4288 69.1722 12.4682 69.1874 12.5032 69.2105C12.5382 69.2336 12.5681 69.2641 12.5909 69.2999C12.5253 69.2645 12.4567 69.2352 12.386 69.2123C12.3079 69.1987 12.2286 69.1935 12.1494 69.1969Z" fill="#263238"/>
<path d="M12.511 68.582C12.511 68.582 12.6093 68.5546 12.7609 68.4927C12.8499 68.4569 12.9362 68.4144 13.0192 68.3657C13.0658 68.3382 13.1125 68.3073 13.1608 68.2729C13.2091 68.2386 13.2508 68.1905 13.2491 68.139C13.2474 68.0874 13.1858 68.0582 13.1358 68.0703C13.0848 68.088 13.0394 68.1194 13.0042 68.1613C12.9259 68.2369 12.8592 68.3107 12.8042 68.3725C12.6959 68.4996 12.6376 68.5838 12.6376 68.5786C12.6479 68.5563 12.6602 68.535 12.6743 68.5151C12.7009 68.4756 12.7393 68.4206 12.7926 68.3554C12.8527 68.2776 12.9178 68.2042 12.9875 68.1355C13.0269 68.0879 13.0782 68.0523 13.1358 68.0325C13.1533 68.0262 13.1719 68.024 13.1904 68.026C13.2088 68.0279 13.2266 68.034 13.2425 68.0439C13.2584 68.0537 13.272 68.067 13.2823 68.0828C13.2927 68.0987 13.2995 68.1167 13.3024 68.1355C13.299 68.1708 13.2876 68.2047 13.2691 68.2346C13.2505 68.2644 13.2254 68.2893 13.1958 68.3073C13.1486 68.3414 13.0996 68.373 13.0492 68.4017C12.9643 68.4499 12.8757 68.4906 12.7842 68.5236C12.7225 68.5451 12.6596 68.5628 12.596 68.5769C12.568 68.5829 12.5394 68.5846 12.511 68.582Z" fill="#263238"/>
<path d="M12.6228 68.5546C12.606 68.4734 12.5932 68.3915 12.5845 68.309C12.5704 68.2209 12.5458 68.1349 12.5112 68.0531C12.4905 68.0065 12.4636 67.9631 12.4312 67.9243C12.3996 67.8865 12.3496 67.8539 12.3096 67.8779C12.2696 67.902 12.2646 67.9621 12.2696 68.0119C12.2779 68.0626 12.2919 68.1121 12.3113 68.1596C12.3465 68.2404 12.3937 68.3152 12.4512 68.3811C12.5495 68.4945 12.6278 68.5528 12.6178 68.5528C12.5975 68.5441 12.5785 68.5326 12.5612 68.5185C12.5135 68.4818 12.4684 68.4416 12.4262 68.3983C12.3636 68.3321 12.3124 68.2554 12.2746 68.1716C12.2516 68.1222 12.2359 68.0695 12.228 68.0153C12.2211 67.9839 12.2229 67.9512 12.2332 67.9208C12.2435 67.8905 12.2619 67.8637 12.2863 67.8436C12.316 67.8319 12.3486 67.8309 12.3789 67.8409C12.4092 67.8509 12.4353 67.8712 12.4529 67.8985C12.4878 67.9406 12.5159 67.9881 12.5362 68.0394C12.5716 68.1235 12.5946 68.2127 12.6045 68.3038C12.6128 68.3811 12.6162 68.4429 12.6178 68.4859C12.6233 68.5083 12.6249 68.5315 12.6228 68.5546Z" fill="#263238"/>
<g opacity="0.4">
<path opacity="0.4" d="M14.2838 68.7778L14.4338 68.1321C14.4338 68.1321 13.9106 68.2317 13.7756 68.6353C13.6954 68.8544 13.6602 69.0883 13.6723 69.3222L12.536 70.5862C12.536 70.5862 12.2511 70.0126 11.7346 70.15C11.7346 70.15 11.3281 71.0722 11.3414 71.3024C11.3547 71.5325 11.6146 71.505 11.7063 71.4621C12.0821 71.2375 12.4249 70.9588 12.7243 70.6343C13.3258 69.9903 13.9922 69.1745 14.2838 68.7778Z" fill="black"/>
</g>
<path d="M24.8124 68.297L24.8224 66.504L21.5634 66.4645L21.5217 69.087L21.7233 69.1024C22.6231 69.166 26.2969 69.3566 26.9018 69.1763C27.5732 68.9753 24.8124 68.297 24.8124 68.297Z" fill="#FF725E"/>
<g opacity="0.4">
<path opacity="0.4" d="M22.7048 69.0749C22.6594 68.7909 22.514 68.5342 22.2966 68.3536C22.0837 68.1743 21.813 68.0842 21.5385 68.1011L21.5269 69.0388L22.7048 69.0749Z" fill="black"/>
</g>
<g opacity="0.4">
<path opacity="0.4" d="M26.162 68.6782C26.162 68.6782 27.1284 68.9788 27.0051 69.1419C26.8818 69.3051 23.1612 69.257 21.5217 69.0869V69.0131L25.8537 69.1076C25.8537 69.1076 25.972 68.6851 26.162 68.6782Z" fill="black"/>
</g>
<path d="M21.4771 69.0096H21.5337L21.7003 69.0217L22.2935 69.056C22.7933 69.0801 23.4848 69.1058 24.2479 69.1161C25.011 69.1264 25.7041 69.1161 26.2039 69.1161L26.7971 69.0972H26.9637C26.982 69.0984 27.0004 69.0984 27.0187 69.0972C26.9999 69.0945 26.9808 69.0945 26.962 69.0972H26.7954H26.2023C25.7024 69.0972 25.011 69.0972 24.2462 69.0972C23.4814 69.0972 22.7917 69.0646 22.2918 69.0474L21.7003 69.0268H21.5337L21.4771 69.0096Z" fill="#263238"/>
<path d="M25.867 69.159C25.8932 69.0579 25.9312 68.9604 25.9803 68.8688C26.0395 68.784 26.1083 68.7067 26.1852 68.6387C26.088 68.6815 26.0056 68.7536 25.9488 68.8456C25.892 68.9375 25.8635 69.045 25.867 69.1539V69.159Z" fill="#263238"/>
<path d="M24.9106 68.6439C24.9206 68.6439 24.9673 68.5923 25.0156 68.5168C25.0498 68.473 25.0743 68.422 25.0873 68.3674C25.0773 68.3674 25.0306 68.4172 24.9823 68.4945C24.9478 68.538 24.9233 68.5891 24.9106 68.6439Z" fill="#263238"/>
<path d="M24.6489 68.4962C24.6489 68.5048 24.7072 68.4704 24.7639 68.4189C24.8205 68.3674 24.8622 68.3193 24.8538 68.3107C24.8455 68.3021 24.7955 68.3382 24.7389 68.388C24.6822 68.4378 24.6423 68.4876 24.6489 68.4962Z" fill="#263238"/>
<path d="M24.4858 68.1819C24.5389 68.2031 24.5958 68.2119 24.6525 68.2077C24.7085 68.2152 24.7655 68.2093 24.8191 68.1905C24.766 68.1698 24.709 68.1616 24.6525 68.1665C24.5965 68.1601 24.5398 68.1653 24.4858 68.1819Z" fill="#263238"/>
<path d="M24.4312 67.9535C24.4873 67.9924 24.5535 68.0127 24.6211 68.0119C24.6875 68.0246 24.756 68.0162 24.8177 67.9878C24.7538 67.9768 24.6892 67.9716 24.6244 67.9724C24.5609 67.9587 24.4961 67.9524 24.4312 67.9535Z" fill="#263238"/>
<path d="M25.0259 68.3537C25.0948 68.3664 25.1653 68.3664 25.2341 68.3537C25.3104 68.3449 25.3857 68.3288 25.4591 68.3056C25.5036 68.2936 25.5467 68.2763 25.5874 68.2541C25.6121 68.2391 25.6305 68.2152 25.639 68.1871C25.643 68.1713 25.6423 68.1547 25.6369 68.1393C25.6316 68.124 25.6219 68.1107 25.609 68.1012C25.5297 68.0597 25.4389 68.0478 25.352 68.0675C25.2651 68.0872 25.1876 68.1374 25.1325 68.2094C25.0996 68.2518 25.0757 68.301 25.0625 68.3537C25.0578 68.3728 25.0578 68.3929 25.0625 68.412C25.0847 68.3454 25.118 68.2832 25.1608 68.2283C25.2084 68.172 25.271 68.1313 25.3408 68.1115C25.3816 68.0973 25.4248 68.0918 25.4678 68.0954C25.5108 68.0989 25.5526 68.1114 25.5907 68.1321C25.6224 68.1579 25.609 68.1974 25.5724 68.2197C25.5347 68.2405 25.4951 68.2572 25.4541 68.2695C25.3833 68.2936 25.3109 68.3125 25.2375 68.3262C25.1059 68.3537 25.0259 68.3537 25.0259 68.3537Z" fill="#263238"/>
<path d="M25.0791 68.364C25.1055 68.3193 25.115 68.2661 25.1058 68.2146C25.0995 68.1583 25.0807 68.1042 25.0508 68.0566C25.0342 68.025 25.0103 67.9982 24.9812 67.9784C24.9522 67.9586 24.9188 67.9465 24.8842 67.9432C24.8629 67.9482 24.8443 67.9612 24.832 67.9796C24.8196 67.9981 24.8145 68.0207 24.8175 68.0428C24.822 68.0772 24.834 68.1101 24.8525 68.139C24.8792 68.1871 24.9117 68.2315 24.9491 68.2713C24.9814 68.3107 25.0226 68.3414 25.0691 68.3606C25.0691 68.3606 25.0274 68.3211 24.9708 68.2524C24.9375 68.2121 24.9085 68.1684 24.8842 68.1218C24.8558 68.0755 24.8375 67.993 24.8842 67.9845C24.9308 67.9759 24.9891 68.0343 25.0208 68.0772C25.0497 68.1192 25.069 68.1673 25.0774 68.218C25.0825 68.2665 25.0831 68.3154 25.0791 68.364Z" fill="#263238"/>
<path d="M21.55 68.0908C21.55 68.0908 21.6434 68.0908 21.79 68.1029C21.9819 68.1267 22.1633 68.2064 22.3129 68.3326C22.4625 68.4588 22.5741 68.6264 22.6347 68.8156C22.683 68.9598 22.6864 69.0577 22.6947 69.056C22.6979 69.0338 22.6979 69.0112 22.6947 68.989C22.6907 68.9272 22.6795 68.8661 22.6614 68.807C22.6051 68.6091 22.4925 68.4332 22.3381 68.3021C22.183 68.1713 21.993 68.0922 21.7933 68.0754C21.7335 68.0691 21.6732 68.0691 21.6134 68.0754C21.5916 68.077 21.5702 68.0822 21.55 68.0908Z" fill="#263238"/>
<path d="M21.9102 66.698C21.8848 66.926 21.8725 67.1554 21.8735 67.3849C21.8596 67.6137 21.8596 67.8431 21.8735 68.0719C21.8978 67.8438 21.9101 67.6144 21.9102 67.3849C21.9233 67.1562 21.9233 66.9268 21.9102 66.698Z" fill="#263238"/>
<path d="M23.1179 68.7538C23.2732 68.7934 23.4328 68.8118 23.5928 68.8087C23.7529 68.819 23.9136 68.8081 24.071 68.7761C24.071 68.7641 23.856 68.7761 23.5944 68.7761C23.3329 68.7761 23.1196 68.7418 23.1179 68.7538Z" fill="#263238"/>
<path d="M22.4799 68.7434C22.4716 68.752 22.4966 68.7915 22.5183 68.8413C22.54 68.8911 22.5501 68.9375 22.5617 68.9358C22.5734 68.9341 22.5784 68.8843 22.5617 68.8259C22.545 68.7675 22.4866 68.7366 22.4799 68.7434Z" fill="#263238"/>
<path d="M22.2432 68.4326C22.2432 68.4326 22.2549 68.4756 22.2883 68.5116C22.3217 68.5477 22.3551 68.57 22.3634 68.5614C22.3718 68.5528 22.35 68.5185 22.3166 68.4824C22.2832 68.4464 22.2498 68.424 22.2432 68.4326Z" fill="#263238"/>
<path d="M21.9001 68.2867C21.9001 68.2987 21.945 68.2987 21.9934 68.3159C22.0417 68.333 22.075 68.3605 22.0833 68.3537C22.0917 68.3468 22.065 68.2987 22.0067 68.2781C21.9484 68.2575 21.8967 68.2764 21.9001 68.2867Z" fill="#263238"/>
<path d="M21.6548 68.2162C21.6548 68.2265 21.6698 68.2454 21.6965 68.2557C21.7233 68.266 21.7483 68.2677 21.7533 68.2557C21.7583 68.2437 21.7383 68.2282 21.7116 68.2162C21.6848 68.2042 21.6598 68.2059 21.6548 68.2162Z" fill="#263238"/>
<path d="M27.0168 33.7126L25.7655 67.3782L20.6904 67.4881L21.5335 38.3169L15.8252 67.7113H11L17.2164 33.7796L27.0168 33.7126Z" fill="#263238"/>
<path d="M22.7031 34.9371C22.6978 35.1233 22.6784 35.3088 22.6447 35.4918C22.5964 35.8353 22.5264 36.3024 22.4415 36.8211C22.4093 37.0675 22.3609 37.3114 22.2965 37.551C22.2393 37.7539 22.123 37.9337 21.9633 38.0662C21.8572 38.1557 21.7303 38.2149 21.5951 38.2379C21.5464 38.2509 21.4954 38.2509 21.4468 38.2379C21.6293 38.2137 21.8005 38.1332 21.9379 38.0069C22.0752 37.8806 22.1724 37.7145 22.2165 37.5304C22.2745 37.2933 22.3196 37.0531 22.3515 36.8108C22.4365 36.2956 22.5181 35.8233 22.5798 35.4867C22.6059 35.3003 22.6471 35.1164 22.7031 34.9371Z" fill="#455A64"/>
<path d="M21.6467 35.0985C21.6584 35.1071 21.6168 35.1604 21.6467 35.2497C21.6524 35.2734 21.6629 35.2957 21.6775 35.3149C21.6922 35.3342 21.7107 35.35 21.7317 35.3613C21.7571 35.3725 21.7851 35.3756 21.8122 35.3701C21.8392 35.3645 21.8641 35.3507 21.8833 35.3304C21.9047 35.3131 21.9208 35.2898 21.9296 35.2633C21.9385 35.2368 21.9398 35.2082 21.9333 35.181C21.925 35.1578 21.9119 35.1367 21.8949 35.1192C21.878 35.1018 21.8575 35.0882 21.835 35.0796C21.7534 35.0436 21.6951 35.0796 21.6884 35.0659C21.6817 35.0522 21.7351 34.9903 21.855 35.0178C21.8893 35.026 21.9211 35.0424 21.9481 35.0657C21.975 35.089 21.9962 35.1185 22.01 35.1518C22.0232 35.1956 22.0237 35.2424 22.0116 35.2866C21.9995 35.3307 21.9752 35.3703 21.9416 35.4004C21.9081 35.4306 21.8668 35.4501 21.8228 35.4566C21.7787 35.4631 21.7338 35.4562 21.6934 35.4369C21.6639 35.4186 21.6388 35.3936 21.62 35.3639C21.6012 35.3341 21.5893 35.3003 21.5851 35.2651C21.5668 35.1363 21.6434 35.0865 21.6467 35.0985Z" fill="#455A64"/>
<path d="M18.9209 35.5777C18.8603 35.426 18.8374 35.2611 18.8543 35.0979C18.8711 34.9348 18.9273 34.7786 19.0175 34.6434C19.0425 34.6555 18.9692 34.853 18.9442 35.1088C18.9192 35.3647 18.9475 35.5725 18.9209 35.5777Z" fill="#455A64"/>
<path d="M19.5322 35.5382C19.4576 35.3855 19.432 35.2123 19.4589 35.0436C19.4553 34.8729 19.5037 34.7054 19.5972 34.5645C19.5894 34.7273 19.5727 34.8896 19.5472 35.0505C19.5509 35.2132 19.5459 35.376 19.5322 35.5382Z" fill="#455A64"/>
<path d="M24.7772 35.6756C24.7728 35.5068 24.7823 35.3379 24.8055 35.1707C24.7998 35.0015 24.807 34.8321 24.8271 34.6641C24.8961 34.8259 24.9197 35.0043 24.8955 35.1793C24.8992 35.3526 24.8584 35.5238 24.7772 35.6756Z" fill="#455A64"/>
<path d="M25.4404 35.6378C25.4154 35.6275 25.4937 35.4077 25.5121 35.1226C25.5304 34.8375 25.4837 34.6074 25.5121 34.6074C25.5988 34.7671 25.6316 34.9519 25.6054 35.1329C25.6054 35.3153 25.5474 35.4926 25.4404 35.6378Z" fill="#455A64"/>
<defs>
<radialGradient id="paint0_radial" cx="0" cy="0" r="1" gradientUnits="userSpaceOnUse" gradientTransform="translate(45.5 46) rotate(90) scale(46 45.5)">
<stop offset="0.619792" stop-color="#D1DCEB"/>
<stop offset="1" stop-color="#A884E1" stop-opacity="0.46"/>
</radialGradient>
</defs>
</svg>
